G04 (created by PCBNEW (2012-nov-02)-testing) date Mon 13 May 2013 11:36:40 AM CDT*
%MOIN*%
G04 Gerber Fmt 3.4, Leading zero omitted, Abs format*
%FSLAX34Y34*%
G01*
G70*
G90*
G04 APERTURE LIST*
%ADD10C,0.006*%
%ADD11C,0.01*%
%ADD12C,0.005*%
%ADD13C,0.00590551*%
%ADD14C,0.008*%
%ADD15C,0.0039*%
%ADD16C,0.012*%
%ADD17C,0.015*%
%ADD18C,0.0075*%
%ADD19C,0.0043*%
G04 APERTURE END LIST*
G54D10*
G54D11*
X83209Y-52869D02*
X83209Y-53035D01*
X82947Y-53107D02*
X82947Y-52869D01*
X83447Y-52869D01*
X83447Y-53107D01*
X83280Y-53321D02*
X82947Y-53321D01*
X83233Y-53321D02*
X83257Y-53345D01*
X83280Y-53392D01*
X83280Y-53464D01*
X83257Y-53511D01*
X83209Y-53535D01*
X82947Y-53535D01*
X82947Y-53988D02*
X83209Y-53988D01*
X83257Y-53964D01*
X83280Y-53916D01*
X83280Y-53821D01*
X83257Y-53773D01*
X82971Y-53988D02*
X82947Y-53940D01*
X82947Y-53821D01*
X82971Y-53773D01*
X83019Y-53750D01*
X83066Y-53750D01*
X83114Y-53773D01*
X83138Y-53821D01*
X83138Y-53940D01*
X83161Y-53988D01*
X82947Y-54226D02*
X83447Y-54226D01*
X83257Y-54226D02*
X83280Y-54273D01*
X83280Y-54369D01*
X83257Y-54416D01*
X83233Y-54440D01*
X83185Y-54464D01*
X83042Y-54464D01*
X82995Y-54440D01*
X82971Y-54416D01*
X82947Y-54369D01*
X82947Y-54273D01*
X82971Y-54226D01*
X82947Y-54750D02*
X82971Y-54702D01*
X83019Y-54678D01*
X83447Y-54678D01*
X82971Y-55130D02*
X82947Y-55083D01*
X82947Y-54988D01*
X82971Y-54940D01*
X83019Y-54916D01*
X83209Y-54916D01*
X83257Y-54940D01*
X83280Y-54988D01*
X83280Y-55083D01*
X83257Y-55130D01*
X83209Y-55154D01*
X83161Y-55154D01*
X83114Y-54916D01*
G54D12*
X80673Y-66451D02*
X80554Y-66451D01*
X80554Y-66201D01*
X80757Y-66451D02*
X80757Y-66284D01*
X80757Y-66201D02*
X80745Y-66213D01*
X80757Y-66225D01*
X80769Y-66213D01*
X80757Y-66201D01*
X80757Y-66225D01*
X80983Y-66439D02*
X80959Y-66451D01*
X80911Y-66451D01*
X80888Y-66439D01*
X80876Y-66427D01*
X80864Y-66403D01*
X80864Y-66332D01*
X80876Y-66308D01*
X80888Y-66296D01*
X80911Y-66284D01*
X80959Y-66284D01*
X80983Y-66296D01*
X81185Y-66439D02*
X81161Y-66451D01*
X81114Y-66451D01*
X81090Y-66439D01*
X81078Y-66415D01*
X81078Y-66320D01*
X81090Y-66296D01*
X81114Y-66284D01*
X81161Y-66284D01*
X81185Y-66296D01*
X81197Y-66320D01*
X81197Y-66344D01*
X81078Y-66367D01*
X81304Y-66284D02*
X81304Y-66451D01*
X81304Y-66308D02*
X81316Y-66296D01*
X81340Y-66284D01*
X81376Y-66284D01*
X81399Y-66296D01*
X81411Y-66320D01*
X81411Y-66451D01*
X81519Y-66439D02*
X81542Y-66451D01*
X81590Y-66451D01*
X81614Y-66439D01*
X81626Y-66415D01*
X81626Y-66403D01*
X81614Y-66379D01*
X81590Y-66367D01*
X81554Y-66367D01*
X81530Y-66355D01*
X81519Y-66332D01*
X81519Y-66320D01*
X81530Y-66296D01*
X81554Y-66284D01*
X81590Y-66284D01*
X81614Y-66296D01*
X81828Y-66439D02*
X81804Y-66451D01*
X81757Y-66451D01*
X81733Y-66439D01*
X81721Y-66415D01*
X81721Y-66320D01*
X81733Y-66296D01*
X81757Y-66284D01*
X81804Y-66284D01*
X81828Y-66296D01*
X81840Y-66320D01*
X81840Y-66344D01*
X81721Y-66367D01*
X81947Y-66427D02*
X81959Y-66439D01*
X81947Y-66451D01*
X81935Y-66439D01*
X81947Y-66427D01*
X81947Y-66451D01*
X81947Y-66296D02*
X81959Y-66308D01*
X81947Y-66320D01*
X81935Y-66308D01*
X81947Y-66296D01*
X81947Y-66320D01*
X82399Y-66427D02*
X82388Y-66439D01*
X82352Y-66451D01*
X82328Y-66451D01*
X82292Y-66439D01*
X82269Y-66415D01*
X82257Y-66391D01*
X82245Y-66344D01*
X82245Y-66308D01*
X82257Y-66260D01*
X82269Y-66236D01*
X82292Y-66213D01*
X82328Y-66201D01*
X82352Y-66201D01*
X82388Y-66213D01*
X82399Y-66225D01*
X82507Y-66451D02*
X82507Y-66284D01*
X82507Y-66332D02*
X82519Y-66308D01*
X82530Y-66296D01*
X82554Y-66284D01*
X82578Y-66284D01*
X82757Y-66439D02*
X82733Y-66451D01*
X82685Y-66451D01*
X82661Y-66439D01*
X82649Y-66415D01*
X82649Y-66320D01*
X82661Y-66296D01*
X82685Y-66284D01*
X82733Y-66284D01*
X82757Y-66296D01*
X82769Y-66320D01*
X82769Y-66344D01*
X82649Y-66367D01*
X82983Y-66451D02*
X82983Y-66320D01*
X82971Y-66296D01*
X82947Y-66284D01*
X82899Y-66284D01*
X82876Y-66296D01*
X82983Y-66439D02*
X82959Y-66451D01*
X82899Y-66451D01*
X82876Y-66439D01*
X82864Y-66415D01*
X82864Y-66391D01*
X82876Y-66367D01*
X82899Y-66355D01*
X82959Y-66355D01*
X82983Y-66344D01*
X83066Y-66284D02*
X83161Y-66284D01*
X83102Y-66201D02*
X83102Y-66415D01*
X83114Y-66439D01*
X83138Y-66451D01*
X83161Y-66451D01*
X83245Y-66451D02*
X83245Y-66284D01*
X83245Y-66201D02*
X83233Y-66213D01*
X83245Y-66225D01*
X83257Y-66213D01*
X83245Y-66201D01*
X83245Y-66225D01*
X83340Y-66284D02*
X83399Y-66451D01*
X83459Y-66284D01*
X83649Y-66439D02*
X83626Y-66451D01*
X83578Y-66451D01*
X83554Y-66439D01*
X83542Y-66415D01*
X83542Y-66320D01*
X83554Y-66296D01*
X83578Y-66284D01*
X83626Y-66284D01*
X83649Y-66296D01*
X83661Y-66320D01*
X83661Y-66344D01*
X83542Y-66367D01*
X84102Y-66427D02*
X84090Y-66439D01*
X84054Y-66451D01*
X84030Y-66451D01*
X83995Y-66439D01*
X83971Y-66415D01*
X83959Y-66391D01*
X83947Y-66344D01*
X83947Y-66308D01*
X83959Y-66260D01*
X83971Y-66236D01*
X83995Y-66213D01*
X84030Y-66201D01*
X84054Y-66201D01*
X84090Y-66213D01*
X84102Y-66225D01*
X84245Y-66451D02*
X84221Y-66439D01*
X84209Y-66427D01*
X84197Y-66403D01*
X84197Y-66332D01*
X84209Y-66308D01*
X84221Y-66296D01*
X84245Y-66284D01*
X84280Y-66284D01*
X84304Y-66296D01*
X84316Y-66308D01*
X84328Y-66332D01*
X84328Y-66403D01*
X84316Y-66427D01*
X84304Y-66439D01*
X84280Y-66451D01*
X84245Y-66451D01*
X84435Y-66451D02*
X84435Y-66284D01*
X84435Y-66308D02*
X84447Y-66296D01*
X84471Y-66284D01*
X84507Y-66284D01*
X84530Y-66296D01*
X84542Y-66320D01*
X84542Y-66451D01*
X84542Y-66320D02*
X84554Y-66296D01*
X84578Y-66284D01*
X84614Y-66284D01*
X84638Y-66296D01*
X84650Y-66320D01*
X84650Y-66451D01*
X84769Y-66451D02*
X84769Y-66284D01*
X84769Y-66308D02*
X84780Y-66296D01*
X84804Y-66284D01*
X84840Y-66284D01*
X84864Y-66296D01*
X84876Y-66320D01*
X84876Y-66451D01*
X84876Y-66320D02*
X84888Y-66296D01*
X84911Y-66284D01*
X84947Y-66284D01*
X84971Y-66296D01*
X84983Y-66320D01*
X84983Y-66451D01*
X85138Y-66451D02*
X85114Y-66439D01*
X85102Y-66427D01*
X85090Y-66403D01*
X85090Y-66332D01*
X85102Y-66308D01*
X85114Y-66296D01*
X85138Y-66284D01*
X85173Y-66284D01*
X85197Y-66296D01*
X85209Y-66308D01*
X85221Y-66332D01*
X85221Y-66403D01*
X85209Y-66427D01*
X85197Y-66439D01*
X85173Y-66451D01*
X85138Y-66451D01*
X85328Y-66284D02*
X85328Y-66451D01*
X85328Y-66308D02*
X85340Y-66296D01*
X85364Y-66284D01*
X85400Y-66284D01*
X85423Y-66296D01*
X85435Y-66320D01*
X85435Y-66451D01*
X85542Y-66439D02*
X85566Y-66451D01*
X85614Y-66451D01*
X85638Y-66439D01*
X85650Y-66415D01*
X85650Y-66403D01*
X85638Y-66379D01*
X85614Y-66367D01*
X85578Y-66367D01*
X85554Y-66355D01*
X85542Y-66332D01*
X85542Y-66320D01*
X85554Y-66296D01*
X85578Y-66284D01*
X85614Y-66284D01*
X85638Y-66296D01*
X85935Y-66379D02*
X86054Y-66379D01*
X85911Y-66451D02*
X85995Y-66201D01*
X86078Y-66451D01*
X86126Y-66284D02*
X86221Y-66284D01*
X86161Y-66201D02*
X86161Y-66415D01*
X86173Y-66439D01*
X86197Y-66451D01*
X86221Y-66451D01*
X86269Y-66284D02*
X86364Y-66284D01*
X86304Y-66201D02*
X86304Y-66415D01*
X86316Y-66439D01*
X86340Y-66451D01*
X86364Y-66451D01*
X86447Y-66451D02*
X86447Y-66284D01*
X86447Y-66332D02*
X86459Y-66308D01*
X86471Y-66296D01*
X86495Y-66284D01*
X86519Y-66284D01*
X86602Y-66451D02*
X86602Y-66284D01*
X86602Y-66201D02*
X86590Y-66213D01*
X86602Y-66225D01*
X86614Y-66213D01*
X86602Y-66201D01*
X86602Y-66225D01*
X86721Y-66451D02*
X86721Y-66201D01*
X86721Y-66296D02*
X86745Y-66284D01*
X86792Y-66284D01*
X86816Y-66296D01*
X86828Y-66308D01*
X86840Y-66332D01*
X86840Y-66403D01*
X86828Y-66427D01*
X86816Y-66439D01*
X86792Y-66451D01*
X86745Y-66451D01*
X86721Y-66439D01*
X87054Y-66284D02*
X87054Y-66451D01*
X86947Y-66284D02*
X86947Y-66415D01*
X86959Y-66439D01*
X86983Y-66451D01*
X87019Y-66451D01*
X87042Y-66439D01*
X87054Y-66427D01*
X87138Y-66284D02*
X87233Y-66284D01*
X87173Y-66201D02*
X87173Y-66415D01*
X87185Y-66439D01*
X87209Y-66451D01*
X87233Y-66451D01*
X87316Y-66451D02*
X87316Y-66284D01*
X87316Y-66201D02*
X87304Y-66213D01*
X87316Y-66225D01*
X87328Y-66213D01*
X87316Y-66201D01*
X87316Y-66225D01*
X87471Y-66451D02*
X87447Y-66439D01*
X87435Y-66427D01*
X87423Y-66403D01*
X87423Y-66332D01*
X87435Y-66308D01*
X87447Y-66296D01*
X87471Y-66284D01*
X87507Y-66284D01*
X87530Y-66296D01*
X87542Y-66308D01*
X87554Y-66332D01*
X87554Y-66403D01*
X87542Y-66427D01*
X87530Y-66439D01*
X87507Y-66451D01*
X87471Y-66451D01*
X87661Y-66284D02*
X87661Y-66451D01*
X87661Y-66308D02*
X87673Y-66296D01*
X87697Y-66284D01*
X87733Y-66284D01*
X87757Y-66296D01*
X87769Y-66320D01*
X87769Y-66451D01*
X87888Y-66355D02*
X88078Y-66355D01*
X88185Y-66439D02*
X88221Y-66451D01*
X88280Y-66451D01*
X88304Y-66439D01*
X88316Y-66427D01*
X88328Y-66403D01*
X88328Y-66379D01*
X88316Y-66355D01*
X88304Y-66344D01*
X88280Y-66332D01*
X88233Y-66320D01*
X88209Y-66308D01*
X88197Y-66296D01*
X88185Y-66272D01*
X88185Y-66248D01*
X88197Y-66225D01*
X88209Y-66213D01*
X88233Y-66201D01*
X88292Y-66201D01*
X88328Y-66213D01*
X88435Y-66451D02*
X88435Y-66201D01*
X88542Y-66451D02*
X88542Y-66320D01*
X88530Y-66296D01*
X88507Y-66284D01*
X88471Y-66284D01*
X88447Y-66296D01*
X88435Y-66308D01*
X88769Y-66451D02*
X88769Y-66320D01*
X88757Y-66296D01*
X88733Y-66284D01*
X88685Y-66284D01*
X88661Y-66296D01*
X88769Y-66439D02*
X88745Y-66451D01*
X88685Y-66451D01*
X88661Y-66439D01*
X88650Y-66415D01*
X88650Y-66391D01*
X88661Y-66367D01*
X88685Y-66355D01*
X88745Y-66355D01*
X88769Y-66344D01*
X88888Y-66451D02*
X88888Y-66284D01*
X88888Y-66332D02*
X88900Y-66308D01*
X88911Y-66296D01*
X88935Y-66284D01*
X88959Y-66284D01*
X89138Y-66439D02*
X89114Y-66451D01*
X89066Y-66451D01*
X89042Y-66439D01*
X89030Y-66415D01*
X89030Y-66320D01*
X89042Y-66296D01*
X89066Y-66284D01*
X89114Y-66284D01*
X89138Y-66296D01*
X89150Y-66320D01*
X89150Y-66344D01*
X89030Y-66367D01*
X89245Y-66379D02*
X89364Y-66379D01*
X89221Y-66451D02*
X89304Y-66201D01*
X89388Y-66451D01*
X89507Y-66451D02*
X89483Y-66439D01*
X89471Y-66415D01*
X89471Y-66201D01*
X89602Y-66451D02*
X89602Y-66284D01*
X89602Y-66201D02*
X89590Y-66213D01*
X89602Y-66225D01*
X89614Y-66213D01*
X89602Y-66201D01*
X89602Y-66225D01*
X89721Y-66451D02*
X89721Y-66201D01*
X89745Y-66355D02*
X89816Y-66451D01*
X89816Y-66284D02*
X89721Y-66379D01*
X90019Y-66439D02*
X89995Y-66451D01*
X89947Y-66451D01*
X89923Y-66439D01*
X89911Y-66415D01*
X89911Y-66320D01*
X89923Y-66296D01*
X89947Y-66284D01*
X89995Y-66284D01*
X90019Y-66296D01*
X90030Y-66320D01*
X90030Y-66344D01*
X89911Y-66367D01*
X90400Y-66546D02*
X90388Y-66534D01*
X90364Y-66498D01*
X90352Y-66475D01*
X90340Y-66439D01*
X90328Y-66379D01*
X90328Y-66332D01*
X90340Y-66272D01*
X90352Y-66236D01*
X90364Y-66213D01*
X90388Y-66177D01*
X90400Y-66165D01*
X90638Y-66427D02*
X90626Y-66439D01*
X90590Y-66451D01*
X90566Y-66451D01*
X90530Y-66439D01*
X90507Y-66415D01*
X90495Y-66391D01*
X90483Y-66344D01*
X90483Y-66308D01*
X90495Y-66260D01*
X90507Y-66236D01*
X90530Y-66213D01*
X90566Y-66201D01*
X90590Y-66201D01*
X90626Y-66213D01*
X90638Y-66225D01*
X90888Y-66427D02*
X90876Y-66439D01*
X90840Y-66451D01*
X90816Y-66451D01*
X90780Y-66439D01*
X90757Y-66415D01*
X90745Y-66391D01*
X90733Y-66344D01*
X90733Y-66308D01*
X90745Y-66260D01*
X90757Y-66236D01*
X90780Y-66213D01*
X90816Y-66201D01*
X90840Y-66201D01*
X90876Y-66213D01*
X90888Y-66225D01*
X91161Y-66201D02*
X91316Y-66201D01*
X91233Y-66296D01*
X91269Y-66296D01*
X91292Y-66308D01*
X91304Y-66320D01*
X91316Y-66344D01*
X91316Y-66403D01*
X91304Y-66427D01*
X91292Y-66439D01*
X91269Y-66451D01*
X91197Y-66451D01*
X91173Y-66439D01*
X91161Y-66427D01*
X91423Y-66427D02*
X91435Y-66439D01*
X91423Y-66451D01*
X91411Y-66439D01*
X91423Y-66427D01*
X91423Y-66451D01*
X91590Y-66201D02*
X91614Y-66201D01*
X91638Y-66213D01*
X91650Y-66225D01*
X91661Y-66248D01*
X91673Y-66296D01*
X91673Y-66355D01*
X91661Y-66403D01*
X91650Y-66427D01*
X91638Y-66439D01*
X91614Y-66451D01*
X91590Y-66451D01*
X91566Y-66439D01*
X91554Y-66427D01*
X91542Y-66403D01*
X91530Y-66355D01*
X91530Y-66296D01*
X91542Y-66248D01*
X91554Y-66225D01*
X91566Y-66213D01*
X91590Y-66201D01*
X92054Y-66320D02*
X92090Y-66332D01*
X92102Y-66344D01*
X92114Y-66367D01*
X92114Y-66403D01*
X92102Y-66427D01*
X92090Y-66439D01*
X92066Y-66451D01*
X91971Y-66451D01*
X91971Y-66201D01*
X92054Y-66201D01*
X92078Y-66213D01*
X92090Y-66225D01*
X92102Y-66248D01*
X92102Y-66272D01*
X92090Y-66296D01*
X92078Y-66308D01*
X92054Y-66320D01*
X91971Y-66320D01*
X92269Y-66332D02*
X92269Y-66451D01*
X92185Y-66201D02*
X92269Y-66332D01*
X92352Y-66201D01*
X92435Y-66355D02*
X92626Y-66355D01*
X92733Y-66439D02*
X92769Y-66451D01*
X92828Y-66451D01*
X92852Y-66439D01*
X92864Y-66427D01*
X92876Y-66403D01*
X92876Y-66379D01*
X92864Y-66355D01*
X92852Y-66344D01*
X92828Y-66332D01*
X92780Y-66320D01*
X92757Y-66308D01*
X92745Y-66296D01*
X92733Y-66272D01*
X92733Y-66248D01*
X92745Y-66225D01*
X92757Y-66213D01*
X92780Y-66201D01*
X92840Y-66201D01*
X92876Y-66213D01*
X92971Y-66379D02*
X93090Y-66379D01*
X92947Y-66451D02*
X93030Y-66201D01*
X93114Y-66451D01*
X93173Y-66546D02*
X93185Y-66534D01*
X93209Y-66498D01*
X93221Y-66475D01*
X93233Y-66439D01*
X93245Y-66379D01*
X93245Y-66332D01*
X93233Y-66272D01*
X93221Y-66236D01*
X93209Y-66213D01*
X93185Y-66177D01*
X93173Y-66165D01*
X80599Y-65651D02*
X80647Y-65651D01*
X80671Y-65663D01*
X80695Y-65686D01*
X80707Y-65734D01*
X80707Y-65817D01*
X80695Y-65865D01*
X80671Y-65889D01*
X80647Y-65901D01*
X80599Y-65901D01*
X80576Y-65889D01*
X80552Y-65865D01*
X80540Y-65817D01*
X80540Y-65734D01*
X80552Y-65686D01*
X80576Y-65663D01*
X80599Y-65651D01*
X80814Y-65901D02*
X80814Y-65651D01*
X80873Y-65651D01*
X80909Y-65663D01*
X80933Y-65686D01*
X80945Y-65710D01*
X80957Y-65758D01*
X80957Y-65794D01*
X80945Y-65841D01*
X80933Y-65865D01*
X80909Y-65889D01*
X80873Y-65901D01*
X80814Y-65901D01*
X81064Y-65901D02*
X81064Y-65651D01*
X81123Y-65651D01*
X81159Y-65663D01*
X81183Y-65686D01*
X81195Y-65710D01*
X81207Y-65758D01*
X81207Y-65794D01*
X81195Y-65841D01*
X81183Y-65865D01*
X81159Y-65889D01*
X81123Y-65901D01*
X81064Y-65901D01*
X81409Y-65889D02*
X81385Y-65901D01*
X81338Y-65901D01*
X81314Y-65889D01*
X81302Y-65865D01*
X81302Y-65770D01*
X81314Y-65746D01*
X81338Y-65734D01*
X81385Y-65734D01*
X81409Y-65746D01*
X81421Y-65770D01*
X81421Y-65794D01*
X81302Y-65817D01*
X81528Y-65734D02*
X81528Y-65984D01*
X81528Y-65746D02*
X81552Y-65734D01*
X81599Y-65734D01*
X81623Y-65746D01*
X81635Y-65758D01*
X81647Y-65782D01*
X81647Y-65853D01*
X81635Y-65877D01*
X81623Y-65889D01*
X81599Y-65901D01*
X81552Y-65901D01*
X81528Y-65889D01*
X81790Y-65901D02*
X81766Y-65889D01*
X81754Y-65877D01*
X81742Y-65853D01*
X81742Y-65782D01*
X81754Y-65758D01*
X81766Y-65746D01*
X81790Y-65734D01*
X81826Y-65734D01*
X81849Y-65746D01*
X81861Y-65758D01*
X81873Y-65782D01*
X81873Y-65853D01*
X81861Y-65877D01*
X81849Y-65889D01*
X81826Y-65901D01*
X81790Y-65901D01*
X81945Y-65734D02*
X82040Y-65734D01*
X81980Y-65651D02*
X81980Y-65865D01*
X81992Y-65889D01*
X82016Y-65901D01*
X82040Y-65901D01*
X82123Y-65877D02*
X82135Y-65889D01*
X82123Y-65901D01*
X82111Y-65889D01*
X82123Y-65877D01*
X82123Y-65901D01*
X82349Y-65889D02*
X82326Y-65901D01*
X82278Y-65901D01*
X82254Y-65889D01*
X82242Y-65877D01*
X82230Y-65853D01*
X82230Y-65782D01*
X82242Y-65758D01*
X82254Y-65746D01*
X82278Y-65734D01*
X82326Y-65734D01*
X82349Y-65746D01*
X82492Y-65901D02*
X82469Y-65889D01*
X82457Y-65877D01*
X82445Y-65853D01*
X82445Y-65782D01*
X82457Y-65758D01*
X82469Y-65746D01*
X82492Y-65734D01*
X82528Y-65734D01*
X82552Y-65746D01*
X82564Y-65758D01*
X82576Y-65782D01*
X82576Y-65853D01*
X82564Y-65877D01*
X82552Y-65889D01*
X82528Y-65901D01*
X82492Y-65901D01*
X82683Y-65901D02*
X82683Y-65734D01*
X82683Y-65758D02*
X82695Y-65746D01*
X82719Y-65734D01*
X82754Y-65734D01*
X82778Y-65746D01*
X82790Y-65770D01*
X82790Y-65901D01*
X82790Y-65770D02*
X82802Y-65746D01*
X82826Y-65734D01*
X82861Y-65734D01*
X82885Y-65746D01*
X82897Y-65770D01*
X82897Y-65901D01*
X83028Y-65889D02*
X83028Y-65901D01*
X83016Y-65925D01*
X83004Y-65936D01*
X83409Y-65770D02*
X83326Y-65770D01*
X83326Y-65901D02*
X83326Y-65651D01*
X83445Y-65651D01*
X83540Y-65901D02*
X83540Y-65734D01*
X83540Y-65651D02*
X83528Y-65663D01*
X83540Y-65675D01*
X83552Y-65663D01*
X83540Y-65651D01*
X83540Y-65675D01*
X83659Y-65734D02*
X83659Y-65901D01*
X83659Y-65758D02*
X83671Y-65746D01*
X83695Y-65734D01*
X83730Y-65734D01*
X83754Y-65746D01*
X83766Y-65770D01*
X83766Y-65901D01*
X83992Y-65734D02*
X83992Y-65901D01*
X83885Y-65734D02*
X83885Y-65865D01*
X83897Y-65889D01*
X83921Y-65901D01*
X83957Y-65901D01*
X83980Y-65889D01*
X83992Y-65877D01*
X84219Y-65889D02*
X84195Y-65901D01*
X84147Y-65901D01*
X84123Y-65889D01*
X84111Y-65877D01*
X84099Y-65853D01*
X84099Y-65782D01*
X84111Y-65758D01*
X84123Y-65746D01*
X84147Y-65734D01*
X84195Y-65734D01*
X84219Y-65746D01*
X84433Y-65901D02*
X84433Y-65770D01*
X84421Y-65746D01*
X84397Y-65734D01*
X84350Y-65734D01*
X84326Y-65746D01*
X84433Y-65889D02*
X84409Y-65901D01*
X84350Y-65901D01*
X84326Y-65889D01*
X84314Y-65865D01*
X84314Y-65841D01*
X84326Y-65817D01*
X84350Y-65805D01*
X84409Y-65805D01*
X84433Y-65794D01*
X84552Y-65734D02*
X84552Y-65901D01*
X84552Y-65758D02*
X84564Y-65746D01*
X84588Y-65734D01*
X84623Y-65734D01*
X84647Y-65746D01*
X84659Y-65770D01*
X84659Y-65901D01*
X84873Y-65889D02*
X84850Y-65901D01*
X84802Y-65901D01*
X84778Y-65889D01*
X84766Y-65865D01*
X84766Y-65770D01*
X84778Y-65746D01*
X84802Y-65734D01*
X84850Y-65734D01*
X84873Y-65746D01*
X84885Y-65770D01*
X84885Y-65794D01*
X84766Y-65817D01*
X85183Y-65901D02*
X85183Y-65651D01*
X85242Y-65651D01*
X85278Y-65663D01*
X85302Y-65686D01*
X85314Y-65710D01*
X85326Y-65758D01*
X85326Y-65794D01*
X85314Y-65841D01*
X85302Y-65865D01*
X85278Y-65889D01*
X85242Y-65901D01*
X85183Y-65901D01*
X85528Y-65889D02*
X85504Y-65901D01*
X85457Y-65901D01*
X85433Y-65889D01*
X85421Y-65865D01*
X85421Y-65770D01*
X85433Y-65746D01*
X85457Y-65734D01*
X85504Y-65734D01*
X85528Y-65746D01*
X85540Y-65770D01*
X85540Y-65794D01*
X85421Y-65817D01*
X85635Y-65889D02*
X85659Y-65901D01*
X85707Y-65901D01*
X85730Y-65889D01*
X85742Y-65865D01*
X85742Y-65853D01*
X85730Y-65829D01*
X85707Y-65817D01*
X85671Y-65817D01*
X85647Y-65805D01*
X85635Y-65782D01*
X85635Y-65770D01*
X85647Y-65746D01*
X85671Y-65734D01*
X85707Y-65734D01*
X85730Y-65746D01*
X85850Y-65901D02*
X85850Y-65734D01*
X85850Y-65651D02*
X85838Y-65663D01*
X85850Y-65675D01*
X85861Y-65663D01*
X85850Y-65651D01*
X85850Y-65675D01*
X86076Y-65734D02*
X86076Y-65936D01*
X86064Y-65960D01*
X86052Y-65972D01*
X86028Y-65984D01*
X85992Y-65984D01*
X85969Y-65972D01*
X86076Y-65889D02*
X86052Y-65901D01*
X86004Y-65901D01*
X85980Y-65889D01*
X85969Y-65877D01*
X85957Y-65853D01*
X85957Y-65782D01*
X85969Y-65758D01*
X85980Y-65746D01*
X86004Y-65734D01*
X86052Y-65734D01*
X86076Y-65746D01*
X86195Y-65734D02*
X86195Y-65901D01*
X86195Y-65758D02*
X86207Y-65746D01*
X86230Y-65734D01*
X86266Y-65734D01*
X86290Y-65746D01*
X86302Y-65770D01*
X86302Y-65901D01*
X86730Y-65901D02*
X86611Y-65901D01*
X86611Y-65651D01*
X86933Y-65901D02*
X86814Y-65901D01*
X86814Y-65651D01*
X87159Y-65877D02*
X87147Y-65889D01*
X87111Y-65901D01*
X87088Y-65901D01*
X87052Y-65889D01*
X87028Y-65865D01*
X87016Y-65841D01*
X87004Y-65794D01*
X87004Y-65758D01*
X87016Y-65710D01*
X87028Y-65686D01*
X87052Y-65663D01*
X87088Y-65651D01*
X87111Y-65651D01*
X87147Y-65663D01*
X87159Y-65675D01*
G54D11*
X80842Y-65202D02*
X80676Y-64964D01*
X80557Y-65202D02*
X80557Y-64702D01*
X80747Y-64702D01*
X80795Y-64726D01*
X80819Y-64750D01*
X80842Y-64797D01*
X80842Y-64869D01*
X80819Y-64916D01*
X80795Y-64940D01*
X80747Y-64964D01*
X80557Y-64964D01*
X81033Y-65059D02*
X81271Y-65059D01*
X80985Y-65202D02*
X81152Y-64702D01*
X81319Y-65202D01*
X81485Y-65202D02*
X81485Y-64702D01*
X81652Y-65059D01*
X81819Y-64702D01*
X81819Y-65202D01*
X82057Y-65202D02*
X82057Y-64702D01*
X82247Y-64702D01*
X82295Y-64726D01*
X82319Y-64750D01*
X82342Y-64797D01*
X82342Y-64869D01*
X82319Y-64916D01*
X82295Y-64940D01*
X82247Y-64964D01*
X82057Y-64964D01*
X82533Y-65178D02*
X82604Y-65202D01*
X82723Y-65202D01*
X82771Y-65178D01*
X82795Y-65154D01*
X82819Y-65107D01*
X82819Y-65059D01*
X82795Y-65011D01*
X82771Y-64988D01*
X82723Y-64964D01*
X82628Y-64940D01*
X82580Y-64916D01*
X82557Y-64892D01*
X82533Y-64845D01*
X82533Y-64797D01*
X82557Y-64750D01*
X82580Y-64726D01*
X82628Y-64702D01*
X82747Y-64702D01*
X82819Y-64726D01*
X83366Y-64702D02*
X83485Y-65202D01*
X83580Y-64845D01*
X83676Y-65202D01*
X83795Y-64702D01*
X83985Y-65202D02*
X83985Y-64869D01*
X83985Y-64702D02*
X83961Y-64726D01*
X83985Y-64750D01*
X84009Y-64726D01*
X83985Y-64702D01*
X83985Y-64750D01*
X84390Y-64940D02*
X84223Y-64940D01*
X84223Y-65202D02*
X84223Y-64702D01*
X84461Y-64702D01*
X84652Y-65202D02*
X84652Y-64869D01*
X84652Y-64702D02*
X84628Y-64726D01*
X84652Y-64750D01*
X84676Y-64726D01*
X84652Y-64702D01*
X84652Y-64750D01*
X85247Y-65059D02*
X85485Y-65059D01*
X85200Y-65202D02*
X85366Y-64702D01*
X85533Y-65202D01*
X85914Y-65202D02*
X85914Y-64702D01*
X85914Y-65178D02*
X85866Y-65202D01*
X85771Y-65202D01*
X85723Y-65178D01*
X85700Y-65154D01*
X85676Y-65107D01*
X85676Y-64964D01*
X85700Y-64916D01*
X85723Y-64892D01*
X85771Y-64869D01*
X85866Y-64869D01*
X85914Y-64892D01*
X86366Y-65202D02*
X86366Y-64940D01*
X86342Y-64892D01*
X86295Y-64869D01*
X86200Y-64869D01*
X86152Y-64892D01*
X86366Y-65178D02*
X86319Y-65202D01*
X86200Y-65202D01*
X86152Y-65178D01*
X86128Y-65130D01*
X86128Y-65083D01*
X86152Y-65035D01*
X86200Y-65011D01*
X86319Y-65011D01*
X86366Y-64988D01*
X86604Y-64869D02*
X86604Y-65369D01*
X86604Y-64892D02*
X86652Y-64869D01*
X86747Y-64869D01*
X86795Y-64892D01*
X86819Y-64916D01*
X86842Y-64964D01*
X86842Y-65107D01*
X86819Y-65154D01*
X86795Y-65178D01*
X86747Y-65202D01*
X86652Y-65202D01*
X86604Y-65178D01*
X86985Y-64869D02*
X87176Y-64869D01*
X87057Y-64702D02*
X87057Y-65130D01*
X87080Y-65178D01*
X87128Y-65202D01*
X87176Y-65202D01*
X87533Y-65178D02*
X87485Y-65202D01*
X87390Y-65202D01*
X87342Y-65178D01*
X87319Y-65130D01*
X87319Y-64940D01*
X87342Y-64892D01*
X87390Y-64869D01*
X87485Y-64869D01*
X87533Y-64892D01*
X87557Y-64940D01*
X87557Y-64988D01*
X87319Y-65035D01*
X87771Y-65202D02*
X87771Y-64869D01*
X87771Y-64964D02*
X87795Y-64916D01*
X87819Y-64892D01*
X87866Y-64869D01*
X87914Y-64869D01*
X83697Y-52547D02*
X84197Y-52547D01*
X84197Y-52738D01*
X84173Y-52785D01*
X84150Y-52809D01*
X84102Y-52833D01*
X84030Y-52833D01*
X83983Y-52809D01*
X83959Y-52785D01*
X83935Y-52738D01*
X83935Y-52547D01*
X83697Y-53047D02*
X84030Y-53047D01*
X83935Y-53047D02*
X83983Y-53071D01*
X84007Y-53095D01*
X84030Y-53142D01*
X84030Y-53190D01*
X83697Y-53428D02*
X83721Y-53380D01*
X83745Y-53357D01*
X83792Y-53333D01*
X83935Y-53333D01*
X83983Y-53357D01*
X84007Y-53380D01*
X84030Y-53428D01*
X84030Y-53500D01*
X84007Y-53547D01*
X83983Y-53571D01*
X83935Y-53595D01*
X83792Y-53595D01*
X83745Y-53571D01*
X83721Y-53547D01*
X83697Y-53500D01*
X83697Y-53428D01*
X84030Y-54023D02*
X83626Y-54023D01*
X83578Y-54000D01*
X83554Y-53976D01*
X83530Y-53928D01*
X83530Y-53857D01*
X83554Y-53809D01*
X83721Y-54023D02*
X83697Y-53976D01*
X83697Y-53880D01*
X83721Y-53833D01*
X83745Y-53809D01*
X83792Y-53785D01*
X83935Y-53785D01*
X83983Y-53809D01*
X84007Y-53833D01*
X84030Y-53880D01*
X84030Y-53976D01*
X84007Y-54023D01*
X83697Y-54261D02*
X84030Y-54261D01*
X83935Y-54261D02*
X83983Y-54285D01*
X84007Y-54309D01*
X84030Y-54357D01*
X84030Y-54404D01*
X83697Y-54785D02*
X83959Y-54785D01*
X84007Y-54761D01*
X84030Y-54714D01*
X84030Y-54619D01*
X84007Y-54571D01*
X83721Y-54785D02*
X83697Y-54738D01*
X83697Y-54619D01*
X83721Y-54571D01*
X83769Y-54547D01*
X83816Y-54547D01*
X83864Y-54571D01*
X83888Y-54619D01*
X83888Y-54738D01*
X83911Y-54785D01*
X83697Y-55023D02*
X84030Y-55023D01*
X83983Y-55023D02*
X84007Y-55047D01*
X84030Y-55095D01*
X84030Y-55166D01*
X84007Y-55214D01*
X83959Y-55238D01*
X83697Y-55238D01*
X83959Y-55238D02*
X84007Y-55261D01*
X84030Y-55309D01*
X84030Y-55380D01*
X84007Y-55428D01*
X83959Y-55452D01*
X83697Y-55452D01*
X82097Y-55135D02*
X82597Y-55135D01*
X82597Y-55254D01*
X82573Y-55326D01*
X82526Y-55373D01*
X82478Y-55397D01*
X82383Y-55421D01*
X82311Y-55421D01*
X82216Y-55397D01*
X82169Y-55373D01*
X82121Y-55326D01*
X82097Y-55254D01*
X82097Y-55135D01*
X82121Y-55826D02*
X82097Y-55778D01*
X82097Y-55683D01*
X82121Y-55635D01*
X82169Y-55611D01*
X82359Y-55611D01*
X82407Y-55635D01*
X82430Y-55683D01*
X82430Y-55778D01*
X82407Y-55826D01*
X82359Y-55850D01*
X82311Y-55850D01*
X82264Y-55611D01*
X82430Y-55992D02*
X82430Y-56183D01*
X82097Y-56064D02*
X82526Y-56064D01*
X82573Y-56088D01*
X82597Y-56135D01*
X82597Y-56183D01*
X82097Y-56564D02*
X82359Y-56564D01*
X82407Y-56540D01*
X82430Y-56492D01*
X82430Y-56397D01*
X82407Y-56350D01*
X82121Y-56564D02*
X82097Y-56516D01*
X82097Y-56397D01*
X82121Y-56350D01*
X82169Y-56326D01*
X82216Y-56326D01*
X82264Y-56350D01*
X82288Y-56397D01*
X82288Y-56516D01*
X82311Y-56564D01*
X82430Y-57016D02*
X82097Y-57016D01*
X82430Y-56802D02*
X82169Y-56802D01*
X82121Y-56826D01*
X82097Y-56873D01*
X82097Y-56945D01*
X82121Y-56992D01*
X82145Y-57016D01*
X82097Y-57326D02*
X82121Y-57278D01*
X82169Y-57254D01*
X82597Y-57254D01*
X82430Y-57445D02*
X82430Y-57635D01*
X82597Y-57516D02*
X82169Y-57516D01*
X82121Y-57540D01*
X82097Y-57588D01*
X82097Y-57635D01*
X81097Y-55430D02*
X81335Y-55264D01*
X81097Y-55145D02*
X81597Y-55145D01*
X81597Y-55335D01*
X81573Y-55383D01*
X81550Y-55407D01*
X81502Y-55430D01*
X81430Y-55430D01*
X81383Y-55407D01*
X81359Y-55383D01*
X81335Y-55335D01*
X81335Y-55145D01*
X81121Y-55835D02*
X81097Y-55788D01*
X81097Y-55692D01*
X81121Y-55645D01*
X81169Y-55621D01*
X81359Y-55621D01*
X81407Y-55645D01*
X81430Y-55692D01*
X81430Y-55788D01*
X81407Y-55835D01*
X81359Y-55859D01*
X81311Y-55859D01*
X81264Y-55621D01*
X81121Y-56050D02*
X81097Y-56097D01*
X81097Y-56192D01*
X81121Y-56240D01*
X81169Y-56264D01*
X81192Y-56264D01*
X81240Y-56240D01*
X81264Y-56192D01*
X81264Y-56121D01*
X81288Y-56073D01*
X81335Y-56050D01*
X81359Y-56050D01*
X81407Y-56073D01*
X81430Y-56121D01*
X81430Y-56192D01*
X81407Y-56240D01*
X81121Y-56669D02*
X81097Y-56621D01*
X81097Y-56526D01*
X81121Y-56478D01*
X81169Y-56454D01*
X81359Y-56454D01*
X81407Y-56478D01*
X81430Y-56526D01*
X81430Y-56621D01*
X81407Y-56669D01*
X81359Y-56692D01*
X81311Y-56692D01*
X81264Y-56454D01*
X81430Y-56835D02*
X81430Y-57026D01*
X81597Y-56907D02*
X81169Y-56907D01*
X81121Y-56930D01*
X81097Y-56978D01*
X81097Y-57026D01*
G54D13*
X95850Y-48350D02*
X95850Y-66950D01*
X74850Y-48350D02*
X74850Y-53650D01*
X95850Y-48350D02*
X74850Y-48350D01*
X78500Y-66950D02*
X95850Y-66950D01*
X78500Y-53650D02*
X78500Y-66950D01*
X74850Y-53650D02*
X78500Y-53650D01*
G54D11*
X80600Y-50100D02*
X82700Y-50100D01*
X82700Y-50100D02*
X82700Y-51550D01*
X82700Y-51550D02*
X80600Y-51550D01*
X80600Y-51550D02*
X80600Y-50100D01*
X80961Y-51306D02*
G75*
G03X80961Y-51306I-128J0D01*
G74*
G01*
G54D14*
X92400Y-51900D02*
X92400Y-53100D01*
X92400Y-53100D02*
X95200Y-53100D01*
X95200Y-53100D02*
X95200Y-51900D01*
X92400Y-50700D02*
X92400Y-50400D01*
X92400Y-50400D02*
X93000Y-49500D01*
X93000Y-49500D02*
X94600Y-49500D01*
X94600Y-49500D02*
X95200Y-50400D01*
X95200Y-50400D02*
X95200Y-50700D01*
G54D12*
X92900Y-53900D02*
X92800Y-53900D01*
X92800Y-53900D02*
X92800Y-54800D01*
X92800Y-54800D02*
X92900Y-54800D01*
X92900Y-53900D02*
X92900Y-54800D01*
X92900Y-54800D02*
X93550Y-54800D01*
X94250Y-53900D02*
X94900Y-53900D01*
X94900Y-53900D02*
X94900Y-54800D01*
X94900Y-54800D02*
X94250Y-54800D01*
X93550Y-53900D02*
X92900Y-53900D01*
G54D15*
X87100Y-54050D02*
G75*
G03X87100Y-54050I-50J0D01*
G74*
G01*
X86600Y-54050D02*
X87000Y-54050D01*
X87000Y-54050D02*
X87000Y-54650D01*
X87000Y-54650D02*
X86600Y-54650D01*
X86200Y-54650D02*
X85800Y-54650D01*
X85800Y-54650D02*
X85800Y-54050D01*
X85800Y-54050D02*
X86200Y-54050D01*
X87100Y-53050D02*
G75*
G03X87100Y-53050I-50J0D01*
G74*
G01*
X86600Y-53050D02*
X87000Y-53050D01*
X87000Y-53050D02*
X87000Y-53650D01*
X87000Y-53650D02*
X86600Y-53650D01*
X86200Y-53650D02*
X85800Y-53650D01*
X85800Y-53650D02*
X85800Y-53050D01*
X85800Y-53050D02*
X86200Y-53050D01*
X87100Y-52050D02*
G75*
G03X87100Y-52050I-50J0D01*
G74*
G01*
X86600Y-52050D02*
X87000Y-52050D01*
X87000Y-52050D02*
X87000Y-52650D01*
X87000Y-52650D02*
X86600Y-52650D01*
X86200Y-52650D02*
X85800Y-52650D01*
X85800Y-52650D02*
X85800Y-52050D01*
X85800Y-52050D02*
X86200Y-52050D01*
X89100Y-54050D02*
G75*
G03X89100Y-54050I-50J0D01*
G74*
G01*
X88600Y-54050D02*
X89000Y-54050D01*
X89000Y-54050D02*
X89000Y-54650D01*
X89000Y-54650D02*
X88600Y-54650D01*
X88200Y-54650D02*
X87800Y-54650D01*
X87800Y-54650D02*
X87800Y-54050D01*
X87800Y-54050D02*
X88200Y-54050D01*
X89100Y-53050D02*
G75*
G03X89100Y-53050I-50J0D01*
G74*
G01*
X88600Y-53050D02*
X89000Y-53050D01*
X89000Y-53050D02*
X89000Y-53650D01*
X89000Y-53650D02*
X88600Y-53650D01*
X88200Y-53650D02*
X87800Y-53650D01*
X87800Y-53650D02*
X87800Y-53050D01*
X87800Y-53050D02*
X88200Y-53050D01*
X89100Y-52050D02*
G75*
G03X89100Y-52050I-50J0D01*
G74*
G01*
X88600Y-52050D02*
X89000Y-52050D01*
X89000Y-52050D02*
X89000Y-52650D01*
X89000Y-52650D02*
X88600Y-52650D01*
X88200Y-52650D02*
X87800Y-52650D01*
X87800Y-52650D02*
X87800Y-52050D01*
X87800Y-52050D02*
X88200Y-52050D01*
G54D16*
X74850Y-53650D02*
X74850Y-53650D01*
X75850Y-53650D02*
X74850Y-53650D01*
X74850Y-53650D02*
X74850Y-53650D01*
X74850Y-53650D02*
X74850Y-49650D01*
X74850Y-49650D02*
X75850Y-49650D01*
X75850Y-49650D02*
X75850Y-53650D01*
X75850Y-52650D02*
X74850Y-52650D01*
X78600Y-66850D02*
X78600Y-48850D01*
X78600Y-48850D02*
X79600Y-48850D01*
X79600Y-48850D02*
X79600Y-66850D01*
X79600Y-66850D02*
X78600Y-66850D01*
X78600Y-65850D02*
X79600Y-65850D01*
X80800Y-53000D02*
X82800Y-53000D01*
X82800Y-53000D02*
X82800Y-55000D01*
X82800Y-55000D02*
X80800Y-55000D01*
X80800Y-55000D02*
X80800Y-53000D01*
G54D14*
X86225Y-50825D02*
X86700Y-50325D01*
X86225Y-50325D02*
X86225Y-51575D01*
X86225Y-51575D02*
X87475Y-51575D01*
X87475Y-51575D02*
X87475Y-50325D01*
X87475Y-50325D02*
X86225Y-50325D01*
G54D17*
X88450Y-61050D02*
G75*
G03X88450Y-61050I-700J0D01*
G74*
G01*
G54D18*
X81471Y-50316D02*
X81471Y-50640D01*
X81485Y-50678D01*
X81500Y-50697D01*
X81528Y-50716D01*
X81585Y-50716D01*
X81614Y-50697D01*
X81628Y-50678D01*
X81642Y-50640D01*
X81642Y-50316D01*
X81771Y-50355D02*
X81785Y-50335D01*
X81814Y-50316D01*
X81885Y-50316D01*
X81914Y-50335D01*
X81928Y-50355D01*
X81942Y-50393D01*
X81942Y-50431D01*
X81928Y-50488D01*
X81757Y-50716D01*
X81942Y-50716D01*
G54D14*
X93495Y-50761D02*
X93495Y-51085D01*
X93514Y-51123D01*
X93533Y-51142D01*
X93571Y-51161D01*
X93647Y-51161D01*
X93685Y-51142D01*
X93704Y-51123D01*
X93723Y-51085D01*
X93723Y-50761D01*
X94085Y-50895D02*
X94085Y-51161D01*
X93990Y-50742D02*
X93895Y-51028D01*
X94142Y-51028D01*
G54D12*
X93850Y-54442D02*
X93835Y-54457D01*
X93792Y-54471D01*
X93764Y-54471D01*
X93721Y-54457D01*
X93692Y-54428D01*
X93678Y-54400D01*
X93664Y-54342D01*
X93664Y-54300D01*
X93678Y-54242D01*
X93692Y-54214D01*
X93721Y-54185D01*
X93764Y-54171D01*
X93792Y-54171D01*
X93835Y-54185D01*
X93850Y-54200D01*
X94135Y-54471D02*
X93964Y-54471D01*
X94050Y-54471D02*
X94050Y-54171D01*
X94021Y-54214D01*
X93992Y-54242D01*
X93964Y-54257D01*
G54D19*
X86367Y-54554D02*
X86301Y-54460D01*
X86254Y-54554D02*
X86254Y-54357D01*
X86329Y-54357D01*
X86348Y-54367D01*
X86357Y-54376D01*
X86367Y-54395D01*
X86367Y-54423D01*
X86357Y-54442D01*
X86348Y-54451D01*
X86329Y-54460D01*
X86254Y-54460D01*
X86554Y-54554D02*
X86442Y-54554D01*
X86498Y-54554D02*
X86498Y-54357D01*
X86479Y-54385D01*
X86460Y-54404D01*
X86442Y-54414D01*
X86367Y-53554D02*
X86301Y-53460D01*
X86254Y-53554D02*
X86254Y-53357D01*
X86329Y-53357D01*
X86348Y-53367D01*
X86357Y-53376D01*
X86367Y-53395D01*
X86367Y-53423D01*
X86357Y-53442D01*
X86348Y-53451D01*
X86329Y-53460D01*
X86254Y-53460D01*
X86442Y-53376D02*
X86451Y-53367D01*
X86470Y-53357D01*
X86517Y-53357D01*
X86536Y-53367D01*
X86545Y-53376D01*
X86554Y-53395D01*
X86554Y-53414D01*
X86545Y-53442D01*
X86432Y-53554D01*
X86554Y-53554D01*
X86367Y-52554D02*
X86301Y-52460D01*
X86254Y-52554D02*
X86254Y-52357D01*
X86329Y-52357D01*
X86348Y-52367D01*
X86357Y-52376D01*
X86367Y-52395D01*
X86367Y-52423D01*
X86357Y-52442D01*
X86348Y-52451D01*
X86329Y-52460D01*
X86254Y-52460D01*
X86432Y-52357D02*
X86554Y-52357D01*
X86489Y-52432D01*
X86517Y-52432D01*
X86536Y-52442D01*
X86545Y-52451D01*
X86554Y-52470D01*
X86554Y-52517D01*
X86545Y-52535D01*
X86536Y-52545D01*
X86517Y-52554D01*
X86460Y-52554D01*
X86442Y-52545D01*
X86432Y-52535D01*
X88254Y-54554D02*
X88254Y-54357D01*
X88301Y-54357D01*
X88329Y-54367D01*
X88348Y-54385D01*
X88357Y-54404D01*
X88367Y-54442D01*
X88367Y-54470D01*
X88357Y-54507D01*
X88348Y-54526D01*
X88329Y-54545D01*
X88301Y-54554D01*
X88254Y-54554D01*
X88554Y-54554D02*
X88442Y-54554D01*
X88498Y-54554D02*
X88498Y-54357D01*
X88479Y-54385D01*
X88460Y-54404D01*
X88442Y-54414D01*
X88254Y-53554D02*
X88254Y-53357D01*
X88301Y-53357D01*
X88329Y-53367D01*
X88348Y-53385D01*
X88357Y-53404D01*
X88367Y-53442D01*
X88367Y-53470D01*
X88357Y-53507D01*
X88348Y-53526D01*
X88329Y-53545D01*
X88301Y-53554D01*
X88254Y-53554D01*
X88442Y-53376D02*
X88451Y-53367D01*
X88470Y-53357D01*
X88517Y-53357D01*
X88536Y-53367D01*
X88545Y-53376D01*
X88554Y-53395D01*
X88554Y-53414D01*
X88545Y-53442D01*
X88432Y-53554D01*
X88554Y-53554D01*
X88254Y-52554D02*
X88254Y-52357D01*
X88301Y-52357D01*
X88329Y-52367D01*
X88348Y-52385D01*
X88357Y-52404D01*
X88367Y-52442D01*
X88367Y-52470D01*
X88357Y-52507D01*
X88348Y-52526D01*
X88329Y-52545D01*
X88301Y-52554D01*
X88254Y-52554D01*
X88432Y-52357D02*
X88554Y-52357D01*
X88489Y-52432D01*
X88517Y-52432D01*
X88536Y-52442D01*
X88545Y-52451D01*
X88554Y-52470D01*
X88554Y-52517D01*
X88545Y-52535D01*
X88536Y-52545D01*
X88517Y-52554D01*
X88460Y-52554D01*
X88442Y-52545D01*
X88432Y-52535D01*
G54D10*
X86365Y-51250D02*
X86684Y-51250D01*
X86721Y-51231D01*
X86740Y-51212D01*
X86759Y-51175D01*
X86759Y-51100D01*
X86740Y-51062D01*
X86721Y-51043D01*
X86684Y-51025D01*
X86365Y-51025D01*
X86365Y-50874D02*
X86365Y-50631D01*
X86515Y-50762D01*
X86515Y-50706D01*
X86534Y-50668D01*
X86553Y-50649D01*
X86590Y-50631D01*
X86684Y-50631D01*
X86721Y-50649D01*
X86740Y-50668D01*
X86759Y-50706D01*
X86759Y-50818D01*
X86740Y-50856D01*
X86721Y-50874D01*
G54D11*
X87166Y-62409D02*
X87404Y-62409D01*
X87119Y-62552D02*
X87285Y-62052D01*
X87452Y-62552D01*
X87619Y-62290D02*
X87785Y-62290D01*
X87857Y-62552D02*
X87619Y-62552D01*
X87619Y-62052D01*
X87857Y-62052D01*
X88333Y-62552D02*
X88047Y-62552D01*
X88190Y-62552D02*
X88190Y-62052D01*
X88142Y-62123D01*
X88095Y-62171D01*
X88047Y-62195D01*
M02*
