G04 (created by PCBNEW (2012-nov-02)-testing) date Mon 13 May 2013 11:36:40 AM CDT*
%MOIN*%
G04 Gerber Fmt 3.4, Leading zero omitted, Abs format*
%FSLAX34Y34*%
G01*
G70*
G90*
G04 APERTURE LIST*
%ADD10C,0.006*%
%ADD11C,0.00590551*%
%ADD12R,0.015X0.05*%
%ADD13R,0.144X0.08*%
%ADD14R,0.04X0.08*%
%ADD15R,0.06X0.08*%
%ADD16R,0.035X0.055*%
%ADD17R,0.055X0.055*%
%ADD18C,0.055*%
%ADD19R,0.06X0.06*%
%ADD20C,0.06*%
%ADD21R,0.05X0.015*%
%ADD22C,0.1*%
%ADD23C,0.035*%
%ADD24C,0.01*%
G04 APERTURE END LIST*
G54D10*
G54D11*
X95850Y-48350D02*
X95850Y-66950D01*
X74850Y-48350D02*
X74850Y-53650D01*
X95850Y-48350D02*
X74850Y-48350D01*
X78500Y-66950D02*
X95850Y-66950D01*
X78500Y-53650D02*
X78500Y-66950D01*
X74850Y-53650D02*
X78500Y-53650D01*
G54D12*
X80804Y-51952D03*
X81060Y-51952D03*
X81316Y-51952D03*
X81572Y-51952D03*
X81828Y-51952D03*
X82084Y-51952D03*
X82340Y-51952D03*
X82596Y-51952D03*
X82596Y-49748D03*
X82340Y-49748D03*
X82084Y-49748D03*
X81828Y-49748D03*
X81572Y-49748D03*
X81316Y-49748D03*
X81060Y-49748D03*
X80804Y-49748D03*
G54D13*
X93800Y-50000D03*
G54D14*
X93800Y-52600D03*
X94700Y-52600D03*
X92900Y-52600D03*
G54D15*
X93250Y-54350D03*
X94550Y-54350D03*
G54D16*
X86775Y-54350D03*
X86025Y-54350D03*
X86775Y-53350D03*
X86025Y-53350D03*
X86775Y-52350D03*
X86025Y-52350D03*
X88775Y-54350D03*
X88025Y-54350D03*
X88775Y-53350D03*
X88025Y-53350D03*
X88775Y-52350D03*
X88025Y-52350D03*
G54D17*
X75350Y-53150D03*
G54D18*
X75350Y-52150D03*
X75350Y-51150D03*
X75350Y-50150D03*
G54D17*
X79100Y-66350D03*
G54D18*
X79100Y-65350D03*
X79100Y-64350D03*
X79100Y-63350D03*
X79100Y-62350D03*
X79100Y-61350D03*
X79100Y-60350D03*
X79100Y-59350D03*
X79100Y-58350D03*
X79100Y-57350D03*
X79100Y-56350D03*
X79100Y-55350D03*
X79100Y-54350D03*
X79100Y-53350D03*
X79100Y-52350D03*
X79100Y-51350D03*
X79100Y-50350D03*
X79100Y-49350D03*
G54D19*
X81300Y-54500D03*
G54D20*
X81300Y-53500D03*
X82300Y-54500D03*
X82300Y-53500D03*
G54D21*
X86000Y-50566D03*
X86000Y-50822D03*
X86000Y-51078D03*
X86000Y-51334D03*
X87700Y-51334D03*
X87700Y-51078D03*
X87700Y-50822D03*
X87700Y-50566D03*
G54D22*
X87750Y-61050D03*
G54D23*
X88900Y-50400D03*
X82700Y-52600D03*
X92250Y-54350D03*
X80200Y-49150D03*
X92150Y-49250D03*
X92600Y-53650D03*
X89050Y-51100D03*
X85350Y-50650D03*
X82550Y-50850D03*
X81300Y-51200D03*
X83550Y-49850D03*
X91950Y-49850D03*
X91950Y-56350D03*
X88750Y-58850D03*
X86750Y-58850D03*
X91950Y-59350D03*
X83550Y-59350D03*
X85350Y-53550D03*
X89800Y-53350D03*
X89800Y-52600D03*
X89800Y-54100D03*
G54D24*
X88900Y-50400D02*
X89700Y-51200D01*
X94700Y-51550D02*
X94700Y-52600D01*
X94350Y-51200D02*
X94700Y-51550D01*
X89700Y-51200D02*
X94350Y-51200D01*
X87700Y-50566D02*
X88734Y-50566D01*
X88734Y-50566D02*
X88900Y-50400D01*
X93250Y-54350D02*
X93250Y-53800D01*
X93250Y-53800D02*
X93450Y-53600D01*
X93450Y-53600D02*
X94500Y-53600D01*
X94500Y-53600D02*
X94700Y-53400D01*
X94700Y-53400D02*
X94700Y-52600D01*
X81060Y-52510D02*
X81060Y-51952D01*
X81150Y-52600D02*
X81060Y-52510D01*
X82700Y-52600D02*
X81150Y-52600D01*
X82596Y-51952D02*
X82596Y-52496D01*
X82596Y-52496D02*
X82700Y-52600D01*
X92250Y-54350D02*
X93250Y-54350D01*
X81060Y-49748D02*
X81060Y-49150D01*
X92050Y-49150D02*
X81060Y-49150D01*
X81060Y-49150D02*
X80200Y-49150D01*
X92050Y-49150D02*
X92150Y-49250D01*
X92150Y-49250D02*
X92050Y-49150D01*
X92900Y-53350D02*
X92900Y-52600D01*
X92600Y-53650D02*
X92900Y-53350D01*
X88772Y-50822D02*
X87700Y-50822D01*
X89050Y-51100D02*
X88772Y-50822D01*
X87700Y-50822D02*
X87700Y-51078D01*
X79100Y-52350D02*
X79150Y-52350D01*
X82300Y-55050D02*
X82300Y-54500D01*
X82100Y-55250D02*
X82300Y-55050D01*
X80250Y-55250D02*
X82100Y-55250D01*
X80050Y-55050D02*
X80250Y-55250D01*
X80050Y-53250D02*
X80050Y-55050D01*
X79150Y-52350D02*
X80050Y-53250D01*
X82300Y-53500D02*
X83500Y-53500D01*
X87016Y-51334D02*
X87700Y-51334D01*
X86600Y-51750D02*
X87016Y-51334D01*
X85250Y-51750D02*
X86600Y-51750D01*
X83500Y-53500D02*
X85250Y-51750D01*
X86000Y-50566D02*
X86000Y-50822D01*
X86000Y-50566D02*
X85434Y-50566D01*
X85434Y-50566D02*
X85350Y-50650D01*
X79100Y-51350D02*
X80350Y-52600D01*
X80750Y-54500D02*
X81300Y-54500D01*
X80350Y-54100D02*
X80750Y-54500D01*
X80350Y-52600D02*
X80350Y-54100D01*
X81300Y-53500D02*
X81450Y-53500D01*
X85172Y-51078D02*
X86000Y-51078D01*
X83300Y-52950D02*
X85172Y-51078D01*
X82000Y-52950D02*
X83300Y-52950D01*
X81450Y-53500D02*
X82000Y-52950D01*
X80804Y-51952D02*
X80804Y-51196D01*
X81150Y-50850D02*
X82550Y-50850D01*
X80804Y-51196D02*
X81150Y-50850D01*
X79100Y-49350D02*
X79600Y-49350D01*
X79998Y-49748D02*
X80804Y-49748D01*
X79600Y-49350D02*
X79998Y-49748D01*
X81316Y-51216D02*
X81316Y-51952D01*
X81300Y-51200D02*
X81316Y-51216D01*
X81316Y-49748D02*
X81300Y-49764D01*
X81150Y-50350D02*
X79100Y-50350D01*
X81300Y-50200D02*
X81150Y-50350D01*
X81300Y-49764D02*
X81300Y-50200D01*
X88775Y-53350D02*
X89800Y-53350D01*
X88775Y-52350D02*
X89550Y-52350D01*
X89550Y-52350D02*
X89800Y-52600D01*
X86775Y-54350D02*
X88025Y-54350D01*
X88775Y-54350D02*
X89550Y-54350D01*
X89550Y-54350D02*
X89800Y-54100D01*
X86775Y-52350D02*
X88025Y-52350D01*
X86775Y-53350D02*
X88025Y-53350D01*
G54D10*
G36*
X95670Y-66770D02*
X95100Y-66770D01*
X95100Y-54700D01*
X95100Y-53999D01*
X95099Y-53900D01*
X95061Y-53808D01*
X94991Y-53737D01*
X94899Y-53699D01*
X94682Y-53699D01*
X94841Y-53541D01*
X94841Y-53541D01*
X94870Y-53498D01*
X94884Y-53476D01*
X94884Y-53476D01*
X94899Y-53400D01*
X94900Y-53400D01*
X94900Y-53150D01*
X94929Y-53150D01*
X94984Y-53127D01*
X95027Y-53085D01*
X95049Y-53029D01*
X95050Y-52970D01*
X95050Y-52170D01*
X95027Y-52115D01*
X94985Y-52072D01*
X94929Y-52050D01*
X94900Y-52049D01*
X94900Y-51550D01*
X94899Y-51549D01*
X94884Y-51473D01*
X94884Y-51473D01*
X94870Y-51451D01*
X94841Y-51408D01*
X94841Y-51408D01*
X94770Y-51337D01*
X94770Y-50350D01*
X94770Y-49649D01*
X94769Y-49550D01*
X94731Y-49458D01*
X94661Y-49387D01*
X94569Y-49349D01*
X93912Y-49350D01*
X93850Y-49412D01*
X93850Y-49950D01*
X94707Y-49950D01*
X94770Y-49887D01*
X94770Y-49649D01*
X94770Y-50350D01*
X94770Y-50112D01*
X94707Y-50050D01*
X93850Y-50050D01*
X93850Y-50587D01*
X93912Y-50650D01*
X94569Y-50650D01*
X94661Y-50612D01*
X94731Y-50541D01*
X94769Y-50449D01*
X94770Y-50350D01*
X94770Y-51337D01*
X94491Y-51058D01*
X94426Y-51015D01*
X94350Y-51000D01*
X93750Y-51000D01*
X93750Y-50587D01*
X93750Y-50050D01*
X93750Y-49950D01*
X93750Y-49412D01*
X93687Y-49350D01*
X93030Y-49349D01*
X92938Y-49387D01*
X92868Y-49458D01*
X92830Y-49550D01*
X92829Y-49649D01*
X92830Y-49887D01*
X92892Y-49950D01*
X93750Y-49950D01*
X93750Y-50050D01*
X92892Y-50050D01*
X92830Y-50112D01*
X92829Y-50350D01*
X92830Y-50449D01*
X92868Y-50541D01*
X92938Y-50612D01*
X93030Y-50650D01*
X93687Y-50650D01*
X93750Y-50587D01*
X93750Y-51000D01*
X92475Y-51000D01*
X92475Y-49185D01*
X92425Y-49066D01*
X92334Y-48974D01*
X92214Y-48925D01*
X92085Y-48924D01*
X92024Y-48950D01*
X81060Y-48950D01*
X80459Y-48950D01*
X80384Y-48874D01*
X80264Y-48825D01*
X80135Y-48824D01*
X80016Y-48874D01*
X79924Y-48965D01*
X79875Y-49085D01*
X79874Y-49214D01*
X79924Y-49333D01*
X80015Y-49425D01*
X80135Y-49474D01*
X80264Y-49475D01*
X80383Y-49425D01*
X80459Y-49350D01*
X80694Y-49350D01*
X80644Y-49370D01*
X80601Y-49412D01*
X80579Y-49468D01*
X80578Y-49527D01*
X80578Y-49548D01*
X80080Y-49548D01*
X79741Y-49208D01*
X79676Y-49165D01*
X79600Y-49150D01*
X79477Y-49150D01*
X79460Y-49109D01*
X79341Y-48989D01*
X79184Y-48925D01*
X79015Y-48924D01*
X78859Y-48989D01*
X78739Y-49108D01*
X78675Y-49265D01*
X78674Y-49434D01*
X78739Y-49590D01*
X78858Y-49710D01*
X79015Y-49774D01*
X79184Y-49775D01*
X79340Y-49710D01*
X79460Y-49591D01*
X79477Y-49550D01*
X79517Y-49550D01*
X79856Y-49889D01*
X79856Y-49889D01*
X79899Y-49918D01*
X79921Y-49932D01*
X79921Y-49932D01*
X79997Y-49947D01*
X79998Y-49948D01*
X80578Y-49948D01*
X80578Y-50027D01*
X80601Y-50082D01*
X80643Y-50125D01*
X80699Y-50147D01*
X80758Y-50148D01*
X80908Y-50148D01*
X80931Y-50138D01*
X80955Y-50147D01*
X81014Y-50148D01*
X81069Y-50148D01*
X81067Y-50150D01*
X79477Y-50150D01*
X79460Y-50109D01*
X79341Y-49989D01*
X79184Y-49925D01*
X79015Y-49924D01*
X78859Y-49989D01*
X78739Y-50108D01*
X78675Y-50265D01*
X78674Y-50434D01*
X78739Y-50590D01*
X78858Y-50710D01*
X79015Y-50774D01*
X79184Y-50775D01*
X79340Y-50710D01*
X79460Y-50591D01*
X79477Y-50550D01*
X81150Y-50550D01*
X81226Y-50534D01*
X81291Y-50491D01*
X81441Y-50341D01*
X81441Y-50341D01*
X81484Y-50276D01*
X81484Y-50276D01*
X81487Y-50263D01*
X81499Y-50200D01*
X81500Y-50200D01*
X81500Y-50148D01*
X81526Y-50148D01*
X81676Y-50148D01*
X81699Y-50138D01*
X81723Y-50147D01*
X81782Y-50148D01*
X81932Y-50148D01*
X81955Y-50138D01*
X81979Y-50147D01*
X82038Y-50148D01*
X82188Y-50148D01*
X82211Y-50138D01*
X82235Y-50147D01*
X82294Y-50148D01*
X82317Y-50148D01*
X82379Y-50210D01*
X82471Y-50248D01*
X82496Y-50248D01*
X82558Y-50185D01*
X82558Y-50043D01*
X82564Y-50027D01*
X82565Y-49968D01*
X82565Y-49690D01*
X82633Y-49690D01*
X82633Y-49698D01*
X82858Y-49698D01*
X82921Y-49635D01*
X82921Y-49547D01*
X82920Y-49448D01*
X82882Y-49356D01*
X82876Y-49350D01*
X91839Y-49350D01*
X91874Y-49433D01*
X91965Y-49525D01*
X92085Y-49574D01*
X92214Y-49575D01*
X92333Y-49525D01*
X92425Y-49434D01*
X92474Y-49314D01*
X92475Y-49185D01*
X92475Y-51000D01*
X89782Y-51000D01*
X89224Y-50442D01*
X89225Y-50335D01*
X89175Y-50216D01*
X89084Y-50124D01*
X88964Y-50075D01*
X88835Y-50074D01*
X88716Y-50124D01*
X88624Y-50215D01*
X88575Y-50335D01*
X88575Y-50366D01*
X88037Y-50366D01*
X88035Y-50363D01*
X87979Y-50341D01*
X87920Y-50340D01*
X87420Y-50340D01*
X87365Y-50363D01*
X87322Y-50405D01*
X87300Y-50461D01*
X87299Y-50520D01*
X87299Y-50670D01*
X87309Y-50693D01*
X87300Y-50717D01*
X87299Y-50776D01*
X87299Y-50926D01*
X87309Y-50949D01*
X87300Y-50973D01*
X87299Y-51032D01*
X87299Y-51134D01*
X87016Y-51134D01*
X86939Y-51149D01*
X86917Y-51163D01*
X86874Y-51192D01*
X86517Y-51550D01*
X86462Y-51550D01*
X86500Y-51458D01*
X86500Y-51434D01*
X86437Y-51371D01*
X86050Y-51371D01*
X86050Y-51391D01*
X85950Y-51391D01*
X85950Y-51371D01*
X85562Y-51371D01*
X85500Y-51434D01*
X85499Y-51458D01*
X85537Y-51550D01*
X85250Y-51550D01*
X85186Y-51562D01*
X85173Y-51565D01*
X85108Y-51608D01*
X83417Y-53300D01*
X82704Y-53300D01*
X82681Y-53245D01*
X82586Y-53150D01*
X83300Y-53150D01*
X83376Y-53134D01*
X83441Y-53091D01*
X85254Y-51278D01*
X85544Y-51278D01*
X85562Y-51296D01*
X85704Y-51296D01*
X85720Y-51302D01*
X85779Y-51303D01*
X86279Y-51303D01*
X86295Y-51296D01*
X86437Y-51296D01*
X86500Y-51234D01*
X86500Y-51209D01*
X86462Y-51117D01*
X86400Y-51055D01*
X86400Y-50973D01*
X86390Y-50950D01*
X86399Y-50926D01*
X86400Y-50867D01*
X86400Y-50717D01*
X86390Y-50694D01*
X86399Y-50670D01*
X86400Y-50611D01*
X86400Y-50461D01*
X86377Y-50406D01*
X86335Y-50363D01*
X86279Y-50341D01*
X86220Y-50340D01*
X85720Y-50340D01*
X85665Y-50363D01*
X85662Y-50366D01*
X85513Y-50366D01*
X85414Y-50325D01*
X85285Y-50324D01*
X85166Y-50374D01*
X85074Y-50465D01*
X85025Y-50585D01*
X85024Y-50714D01*
X85074Y-50833D01*
X85127Y-50886D01*
X85095Y-50893D01*
X85073Y-50907D01*
X85030Y-50936D01*
X83217Y-52750D01*
X82989Y-52750D01*
X83024Y-52664D01*
X83025Y-52535D01*
X82975Y-52416D01*
X82921Y-52361D01*
X82921Y-49948D01*
X82921Y-49860D01*
X82858Y-49798D01*
X82633Y-49798D01*
X82633Y-50185D01*
X82696Y-50248D01*
X82720Y-50248D01*
X82812Y-50210D01*
X82882Y-50139D01*
X82920Y-50047D01*
X82921Y-49948D01*
X82921Y-52361D01*
X82884Y-52324D01*
X82796Y-52288D01*
X82798Y-52287D01*
X82820Y-52231D01*
X82821Y-52172D01*
X82821Y-51672D01*
X82798Y-51617D01*
X82756Y-51574D01*
X82700Y-51552D01*
X82641Y-51551D01*
X82491Y-51551D01*
X82468Y-51561D01*
X82444Y-51552D01*
X82385Y-51551D01*
X82235Y-51551D01*
X82212Y-51561D01*
X82188Y-51552D01*
X82129Y-51551D01*
X81979Y-51551D01*
X81956Y-51561D01*
X81932Y-51552D01*
X81873Y-51551D01*
X81723Y-51551D01*
X81700Y-51561D01*
X81676Y-51552D01*
X81617Y-51551D01*
X81516Y-51551D01*
X81516Y-51443D01*
X81575Y-51384D01*
X81624Y-51264D01*
X81625Y-51135D01*
X81589Y-51050D01*
X82290Y-51050D01*
X82365Y-51125D01*
X82485Y-51174D01*
X82614Y-51175D01*
X82733Y-51125D01*
X82825Y-51034D01*
X82874Y-50914D01*
X82875Y-50785D01*
X82825Y-50666D01*
X82734Y-50574D01*
X82614Y-50525D01*
X82485Y-50524D01*
X82366Y-50574D01*
X82290Y-50650D01*
X81150Y-50650D01*
X81073Y-50665D01*
X81051Y-50679D01*
X81008Y-50708D01*
X80662Y-51054D01*
X80619Y-51119D01*
X80604Y-51196D01*
X80604Y-51614D01*
X80601Y-51616D01*
X80579Y-51672D01*
X80578Y-51731D01*
X80578Y-52231D01*
X80601Y-52286D01*
X80643Y-52329D01*
X80699Y-52351D01*
X80758Y-52352D01*
X80860Y-52352D01*
X80860Y-52510D01*
X80875Y-52586D01*
X80918Y-52651D01*
X81008Y-52741D01*
X81073Y-52784D01*
X81073Y-52784D01*
X81086Y-52787D01*
X81150Y-52800D01*
X81871Y-52800D01*
X81858Y-52808D01*
X81550Y-53116D01*
X81389Y-53050D01*
X81210Y-53049D01*
X81045Y-53118D01*
X80918Y-53244D01*
X80850Y-53410D01*
X80849Y-53589D01*
X80918Y-53754D01*
X81044Y-53881D01*
X81210Y-53949D01*
X81389Y-53950D01*
X81554Y-53881D01*
X81681Y-53755D01*
X81749Y-53589D01*
X81750Y-53482D01*
X81869Y-53363D01*
X81850Y-53410D01*
X81849Y-53589D01*
X81918Y-53754D01*
X82044Y-53881D01*
X82210Y-53949D01*
X82389Y-53950D01*
X82554Y-53881D01*
X82681Y-53755D01*
X82704Y-53700D01*
X83500Y-53700D01*
X83576Y-53684D01*
X83641Y-53641D01*
X85332Y-51950D01*
X85631Y-51950D01*
X85600Y-52025D01*
X85599Y-52124D01*
X85600Y-52237D01*
X85662Y-52300D01*
X85975Y-52300D01*
X85975Y-52292D01*
X86075Y-52292D01*
X86075Y-52300D01*
X86082Y-52300D01*
X86082Y-52400D01*
X86075Y-52400D01*
X86075Y-52812D01*
X86112Y-52850D01*
X86075Y-52887D01*
X86075Y-53300D01*
X86082Y-53300D01*
X86082Y-53400D01*
X86075Y-53400D01*
X86075Y-53812D01*
X86112Y-53850D01*
X86075Y-53887D01*
X86075Y-54300D01*
X86082Y-54300D01*
X86082Y-54400D01*
X86075Y-54400D01*
X86075Y-54812D01*
X86137Y-54875D01*
X86249Y-54875D01*
X86341Y-54837D01*
X86411Y-54766D01*
X86449Y-54674D01*
X86449Y-54654D01*
X86449Y-54654D01*
X86472Y-54709D01*
X86514Y-54752D01*
X86570Y-54774D01*
X86629Y-54775D01*
X86979Y-54775D01*
X87034Y-54752D01*
X87077Y-54710D01*
X87099Y-54654D01*
X87100Y-54595D01*
X87100Y-54550D01*
X87699Y-54550D01*
X87699Y-54654D01*
X87722Y-54709D01*
X87764Y-54752D01*
X87820Y-54774D01*
X87879Y-54775D01*
X88229Y-54775D01*
X88284Y-54752D01*
X88327Y-54710D01*
X88349Y-54654D01*
X88350Y-54595D01*
X88350Y-54045D01*
X88327Y-53990D01*
X88285Y-53947D01*
X88229Y-53925D01*
X88170Y-53924D01*
X87820Y-53924D01*
X87765Y-53947D01*
X87722Y-53989D01*
X87700Y-54045D01*
X87699Y-54104D01*
X87699Y-54150D01*
X87100Y-54150D01*
X87100Y-54045D01*
X87077Y-53990D01*
X87035Y-53947D01*
X86979Y-53925D01*
X86920Y-53924D01*
X86570Y-53924D01*
X86515Y-53947D01*
X86472Y-53989D01*
X86450Y-54045D01*
X86449Y-54074D01*
X86449Y-54025D01*
X86411Y-53933D01*
X86341Y-53862D01*
X86310Y-53850D01*
X86341Y-53837D01*
X86411Y-53766D01*
X86449Y-53674D01*
X86449Y-53654D01*
X86449Y-53654D01*
X86472Y-53709D01*
X86514Y-53752D01*
X86570Y-53774D01*
X86629Y-53775D01*
X86979Y-53775D01*
X87034Y-53752D01*
X87077Y-53710D01*
X87099Y-53654D01*
X87100Y-53595D01*
X87100Y-53550D01*
X87699Y-53550D01*
X87699Y-53654D01*
X87722Y-53709D01*
X87764Y-53752D01*
X87820Y-53774D01*
X87879Y-53775D01*
X88229Y-53775D01*
X88284Y-53752D01*
X88327Y-53710D01*
X88349Y-53654D01*
X88350Y-53595D01*
X88350Y-53045D01*
X88327Y-52990D01*
X88285Y-52947D01*
X88229Y-52925D01*
X88170Y-52924D01*
X87820Y-52924D01*
X87765Y-52947D01*
X87722Y-52989D01*
X87700Y-53045D01*
X87699Y-53104D01*
X87699Y-53150D01*
X87100Y-53150D01*
X87100Y-53045D01*
X87077Y-52990D01*
X87035Y-52947D01*
X86979Y-52925D01*
X86920Y-52924D01*
X86570Y-52924D01*
X86515Y-52947D01*
X86472Y-52989D01*
X86450Y-53045D01*
X86449Y-53074D01*
X86449Y-53025D01*
X86411Y-52933D01*
X86341Y-52862D01*
X86310Y-52850D01*
X86341Y-52837D01*
X86411Y-52766D01*
X86449Y-52674D01*
X86449Y-52654D01*
X86449Y-52654D01*
X86472Y-52709D01*
X86514Y-52752D01*
X86570Y-52774D01*
X86629Y-52775D01*
X86979Y-52775D01*
X87034Y-52752D01*
X87077Y-52710D01*
X87099Y-52654D01*
X87100Y-52595D01*
X87100Y-52550D01*
X87699Y-52550D01*
X87699Y-52654D01*
X87722Y-52709D01*
X87764Y-52752D01*
X87820Y-52774D01*
X87879Y-52775D01*
X88229Y-52775D01*
X88284Y-52752D01*
X88327Y-52710D01*
X88349Y-52654D01*
X88350Y-52595D01*
X88350Y-52045D01*
X88327Y-51990D01*
X88285Y-51947D01*
X88229Y-51925D01*
X88170Y-51924D01*
X87820Y-51924D01*
X87765Y-51947D01*
X87722Y-51989D01*
X87700Y-52045D01*
X87699Y-52104D01*
X87699Y-52150D01*
X87100Y-52150D01*
X87100Y-52045D01*
X87077Y-51990D01*
X87035Y-51947D01*
X86979Y-51925D01*
X86920Y-51924D01*
X86691Y-51924D01*
X86741Y-51891D01*
X87098Y-51534D01*
X87362Y-51534D01*
X87364Y-51536D01*
X87420Y-51558D01*
X87479Y-51559D01*
X87979Y-51559D01*
X88034Y-51536D01*
X88077Y-51494D01*
X88099Y-51438D01*
X88100Y-51379D01*
X88100Y-51229D01*
X88090Y-51206D01*
X88099Y-51182D01*
X88100Y-51123D01*
X88100Y-51022D01*
X88689Y-51022D01*
X88725Y-51057D01*
X88724Y-51164D01*
X88774Y-51283D01*
X88865Y-51375D01*
X88985Y-51424D01*
X89114Y-51425D01*
X89233Y-51375D01*
X89325Y-51284D01*
X89374Y-51164D01*
X89374Y-51157D01*
X89558Y-51341D01*
X89558Y-51341D01*
X89601Y-51370D01*
X89623Y-51384D01*
X89623Y-51384D01*
X89699Y-51399D01*
X89700Y-51400D01*
X94267Y-51400D01*
X94500Y-51632D01*
X94500Y-52049D01*
X94470Y-52049D01*
X94415Y-52072D01*
X94372Y-52114D01*
X94350Y-52170D01*
X94349Y-52229D01*
X94349Y-53029D01*
X94372Y-53084D01*
X94414Y-53127D01*
X94470Y-53149D01*
X94500Y-53150D01*
X94500Y-53317D01*
X94417Y-53400D01*
X94250Y-53400D01*
X94250Y-52950D01*
X94250Y-52249D01*
X94249Y-52150D01*
X94211Y-52058D01*
X94141Y-51987D01*
X94049Y-51949D01*
X93912Y-51950D01*
X93850Y-52012D01*
X93850Y-52550D01*
X94187Y-52550D01*
X94250Y-52487D01*
X94250Y-52249D01*
X94250Y-52950D01*
X94250Y-52712D01*
X94187Y-52650D01*
X93850Y-52650D01*
X93850Y-53187D01*
X93912Y-53250D01*
X94049Y-53250D01*
X94141Y-53212D01*
X94211Y-53141D01*
X94249Y-53049D01*
X94250Y-52950D01*
X94250Y-53400D01*
X93750Y-53400D01*
X93750Y-53187D01*
X93750Y-52650D01*
X93750Y-52550D01*
X93750Y-52012D01*
X93687Y-51950D01*
X93550Y-51949D01*
X93458Y-51987D01*
X93388Y-52058D01*
X93350Y-52150D01*
X93349Y-52249D01*
X93350Y-52487D01*
X93412Y-52550D01*
X93750Y-52550D01*
X93750Y-52650D01*
X93412Y-52650D01*
X93350Y-52712D01*
X93349Y-52950D01*
X93350Y-53049D01*
X93388Y-53141D01*
X93458Y-53212D01*
X93550Y-53250D01*
X93687Y-53250D01*
X93750Y-53187D01*
X93750Y-53400D01*
X93450Y-53400D01*
X93373Y-53415D01*
X93351Y-53429D01*
X93308Y-53458D01*
X93108Y-53658D01*
X93065Y-53723D01*
X93050Y-53799D01*
X92920Y-53799D01*
X92883Y-53815D01*
X92924Y-53714D01*
X92925Y-53607D01*
X93041Y-53491D01*
X93041Y-53491D01*
X93070Y-53448D01*
X93084Y-53426D01*
X93084Y-53426D01*
X93099Y-53350D01*
X93100Y-53350D01*
X93100Y-53150D01*
X93129Y-53150D01*
X93184Y-53127D01*
X93227Y-53085D01*
X93249Y-53029D01*
X93250Y-52970D01*
X93250Y-52170D01*
X93227Y-52115D01*
X93185Y-52072D01*
X93129Y-52050D01*
X93070Y-52049D01*
X92670Y-52049D01*
X92615Y-52072D01*
X92572Y-52114D01*
X92550Y-52170D01*
X92549Y-52229D01*
X92549Y-53029D01*
X92572Y-53084D01*
X92614Y-53127D01*
X92670Y-53149D01*
X92700Y-53150D01*
X92700Y-53267D01*
X92642Y-53325D01*
X92535Y-53324D01*
X92416Y-53374D01*
X92324Y-53465D01*
X92275Y-53585D01*
X92274Y-53714D01*
X92324Y-53833D01*
X92415Y-53925D01*
X92535Y-53974D01*
X92664Y-53975D01*
X92783Y-53925D01*
X92807Y-53902D01*
X92800Y-53920D01*
X92799Y-53979D01*
X92799Y-54150D01*
X92509Y-54150D01*
X92434Y-54074D01*
X92314Y-54025D01*
X92185Y-54024D01*
X92066Y-54074D01*
X91974Y-54165D01*
X91925Y-54285D01*
X91924Y-54414D01*
X91974Y-54533D01*
X92065Y-54625D01*
X92185Y-54674D01*
X92314Y-54675D01*
X92433Y-54625D01*
X92509Y-54550D01*
X92799Y-54550D01*
X92799Y-54779D01*
X92822Y-54834D01*
X92864Y-54877D01*
X92920Y-54899D01*
X92979Y-54900D01*
X93579Y-54900D01*
X93634Y-54877D01*
X93677Y-54835D01*
X93699Y-54779D01*
X93700Y-54720D01*
X93700Y-53920D01*
X93677Y-53865D01*
X93635Y-53822D01*
X93579Y-53800D01*
X93550Y-53800D01*
X94046Y-53800D01*
X94038Y-53808D01*
X94000Y-53900D01*
X93999Y-53999D01*
X94000Y-54237D01*
X94062Y-54300D01*
X94500Y-54300D01*
X94500Y-54292D01*
X94600Y-54292D01*
X94600Y-54300D01*
X95037Y-54300D01*
X95100Y-54237D01*
X95100Y-53999D01*
X95100Y-54700D01*
X95100Y-54462D01*
X95037Y-54400D01*
X94600Y-54400D01*
X94600Y-54937D01*
X94662Y-55000D01*
X94899Y-55000D01*
X94991Y-54962D01*
X95061Y-54891D01*
X95099Y-54799D01*
X95100Y-54700D01*
X95100Y-66770D01*
X94500Y-66770D01*
X94500Y-54937D01*
X94500Y-54400D01*
X94062Y-54400D01*
X94000Y-54462D01*
X93999Y-54700D01*
X94000Y-54799D01*
X94038Y-54891D01*
X94108Y-54962D01*
X94200Y-55000D01*
X94437Y-55000D01*
X94500Y-54937D01*
X94500Y-66770D01*
X90125Y-66770D01*
X90125Y-54035D01*
X90125Y-53285D01*
X90125Y-52535D01*
X90075Y-52416D01*
X89984Y-52324D01*
X89864Y-52275D01*
X89757Y-52274D01*
X89691Y-52208D01*
X89626Y-52165D01*
X89550Y-52150D01*
X89100Y-52150D01*
X89100Y-52045D01*
X89077Y-51990D01*
X89035Y-51947D01*
X88979Y-51925D01*
X88920Y-51924D01*
X88570Y-51924D01*
X88515Y-51947D01*
X88472Y-51989D01*
X88450Y-52045D01*
X88449Y-52104D01*
X88449Y-52654D01*
X88472Y-52709D01*
X88514Y-52752D01*
X88570Y-52774D01*
X88629Y-52775D01*
X88979Y-52775D01*
X89034Y-52752D01*
X89077Y-52710D01*
X89099Y-52654D01*
X89100Y-52595D01*
X89100Y-52550D01*
X89467Y-52550D01*
X89475Y-52557D01*
X89474Y-52664D01*
X89524Y-52783D01*
X89615Y-52875D01*
X89735Y-52924D01*
X89864Y-52925D01*
X89983Y-52875D01*
X90075Y-52784D01*
X90124Y-52664D01*
X90125Y-52535D01*
X90125Y-53285D01*
X90075Y-53166D01*
X89984Y-53074D01*
X89864Y-53025D01*
X89735Y-53024D01*
X89616Y-53074D01*
X89540Y-53150D01*
X89100Y-53150D01*
X89100Y-53045D01*
X89077Y-52990D01*
X89035Y-52947D01*
X88979Y-52925D01*
X88920Y-52924D01*
X88570Y-52924D01*
X88515Y-52947D01*
X88472Y-52989D01*
X88450Y-53045D01*
X88449Y-53104D01*
X88449Y-53654D01*
X88472Y-53709D01*
X88514Y-53752D01*
X88570Y-53774D01*
X88629Y-53775D01*
X88979Y-53775D01*
X89034Y-53752D01*
X89077Y-53710D01*
X89099Y-53654D01*
X89100Y-53595D01*
X89100Y-53550D01*
X89540Y-53550D01*
X89615Y-53625D01*
X89735Y-53674D01*
X89864Y-53675D01*
X89983Y-53625D01*
X90075Y-53534D01*
X90124Y-53414D01*
X90125Y-53285D01*
X90125Y-54035D01*
X90075Y-53916D01*
X89984Y-53824D01*
X89864Y-53775D01*
X89735Y-53774D01*
X89616Y-53824D01*
X89524Y-53915D01*
X89475Y-54035D01*
X89474Y-54142D01*
X89467Y-54150D01*
X89100Y-54150D01*
X89100Y-54045D01*
X89077Y-53990D01*
X89035Y-53947D01*
X88979Y-53925D01*
X88920Y-53924D01*
X88570Y-53924D01*
X88515Y-53947D01*
X88472Y-53989D01*
X88450Y-54045D01*
X88449Y-54104D01*
X88449Y-54654D01*
X88472Y-54709D01*
X88514Y-54752D01*
X88570Y-54774D01*
X88629Y-54775D01*
X88979Y-54775D01*
X89034Y-54752D01*
X89077Y-54710D01*
X89099Y-54654D01*
X89100Y-54595D01*
X89100Y-54550D01*
X89550Y-54550D01*
X89626Y-54534D01*
X89691Y-54491D01*
X89757Y-54424D01*
X89864Y-54425D01*
X89983Y-54375D01*
X90075Y-54284D01*
X90124Y-54164D01*
X90125Y-54035D01*
X90125Y-66770D01*
X88400Y-66770D01*
X88400Y-60921D01*
X88301Y-60682D01*
X88118Y-60499D01*
X87879Y-60400D01*
X87621Y-60399D01*
X87382Y-60498D01*
X87199Y-60681D01*
X87100Y-60920D01*
X87099Y-61178D01*
X87198Y-61417D01*
X87381Y-61600D01*
X87620Y-61699D01*
X87878Y-61700D01*
X88117Y-61601D01*
X88300Y-61418D01*
X88399Y-61179D01*
X88400Y-60921D01*
X88400Y-66770D01*
X85975Y-66770D01*
X85975Y-54812D01*
X85975Y-54400D01*
X85975Y-54300D01*
X85975Y-53887D01*
X85937Y-53850D01*
X85975Y-53812D01*
X85975Y-53400D01*
X85975Y-53300D01*
X85975Y-52887D01*
X85937Y-52850D01*
X85975Y-52812D01*
X85975Y-52400D01*
X85662Y-52400D01*
X85600Y-52462D01*
X85599Y-52575D01*
X85600Y-52674D01*
X85638Y-52766D01*
X85708Y-52837D01*
X85739Y-52850D01*
X85708Y-52862D01*
X85638Y-52933D01*
X85600Y-53025D01*
X85599Y-53124D01*
X85600Y-53237D01*
X85662Y-53300D01*
X85975Y-53300D01*
X85975Y-53400D01*
X85662Y-53400D01*
X85600Y-53462D01*
X85599Y-53575D01*
X85600Y-53674D01*
X85638Y-53766D01*
X85708Y-53837D01*
X85739Y-53850D01*
X85708Y-53862D01*
X85638Y-53933D01*
X85600Y-54025D01*
X85599Y-54124D01*
X85600Y-54237D01*
X85662Y-54300D01*
X85975Y-54300D01*
X85975Y-54400D01*
X85662Y-54400D01*
X85600Y-54462D01*
X85599Y-54575D01*
X85600Y-54674D01*
X85638Y-54766D01*
X85708Y-54837D01*
X85800Y-54875D01*
X85912Y-54875D01*
X85975Y-54812D01*
X85975Y-66770D01*
X82750Y-66770D01*
X82750Y-54410D01*
X82681Y-54245D01*
X82555Y-54118D01*
X82389Y-54050D01*
X82210Y-54049D01*
X82045Y-54118D01*
X81918Y-54244D01*
X81850Y-54410D01*
X81849Y-54589D01*
X81918Y-54754D01*
X82044Y-54881D01*
X82100Y-54904D01*
X82100Y-54967D01*
X82017Y-55050D01*
X80332Y-55050D01*
X80250Y-54967D01*
X80250Y-54282D01*
X80608Y-54641D01*
X80608Y-54641D01*
X80651Y-54670D01*
X80673Y-54684D01*
X80673Y-54684D01*
X80749Y-54699D01*
X80750Y-54700D01*
X80849Y-54700D01*
X80849Y-54829D01*
X80872Y-54884D01*
X80914Y-54927D01*
X80970Y-54949D01*
X81029Y-54950D01*
X81629Y-54950D01*
X81684Y-54927D01*
X81727Y-54885D01*
X81749Y-54829D01*
X81750Y-54770D01*
X81750Y-54170D01*
X81727Y-54115D01*
X81685Y-54072D01*
X81629Y-54050D01*
X81570Y-54049D01*
X80970Y-54049D01*
X80915Y-54072D01*
X80872Y-54114D01*
X80850Y-54170D01*
X80849Y-54229D01*
X80849Y-54300D01*
X80832Y-54300D01*
X80550Y-54017D01*
X80550Y-52600D01*
X80534Y-52523D01*
X80491Y-52458D01*
X79508Y-51475D01*
X79524Y-51434D01*
X79525Y-51265D01*
X79460Y-51109D01*
X79341Y-50989D01*
X79184Y-50925D01*
X79015Y-50924D01*
X78859Y-50989D01*
X78739Y-51108D01*
X78675Y-51265D01*
X78674Y-51434D01*
X78739Y-51590D01*
X78858Y-51710D01*
X79015Y-51774D01*
X79184Y-51775D01*
X79225Y-51758D01*
X80150Y-52682D01*
X80150Y-53067D01*
X79522Y-52439D01*
X79524Y-52434D01*
X79525Y-52265D01*
X79460Y-52109D01*
X79341Y-51989D01*
X79184Y-51925D01*
X79015Y-51924D01*
X78859Y-51989D01*
X78739Y-52108D01*
X78675Y-52265D01*
X78674Y-52434D01*
X78739Y-52590D01*
X78858Y-52710D01*
X79015Y-52774D01*
X79184Y-52775D01*
X79260Y-52743D01*
X79850Y-53332D01*
X79850Y-55050D01*
X79865Y-55126D01*
X79908Y-55191D01*
X80108Y-55391D01*
X80108Y-55391D01*
X80151Y-55420D01*
X80173Y-55434D01*
X80173Y-55434D01*
X80250Y-55450D01*
X82100Y-55450D01*
X82176Y-55434D01*
X82241Y-55391D01*
X82441Y-55191D01*
X82441Y-55191D01*
X82470Y-55148D01*
X82484Y-55126D01*
X82484Y-55126D01*
X82499Y-55050D01*
X82500Y-55050D01*
X82500Y-54904D01*
X82554Y-54881D01*
X82681Y-54755D01*
X82749Y-54589D01*
X82750Y-54410D01*
X82750Y-66770D01*
X79629Y-66770D01*
X79629Y-65425D01*
X79618Y-65217D01*
X79560Y-65077D01*
X79467Y-65052D01*
X79397Y-65123D01*
X79397Y-64982D01*
X79372Y-64889D01*
X79175Y-64820D01*
X78967Y-64831D01*
X78827Y-64889D01*
X78802Y-64982D01*
X79100Y-65279D01*
X79397Y-64982D01*
X79397Y-65123D01*
X79170Y-65350D01*
X79467Y-65647D01*
X79560Y-65622D01*
X79629Y-65425D01*
X79629Y-66770D01*
X79415Y-66770D01*
X79459Y-66752D01*
X79502Y-66710D01*
X79524Y-66654D01*
X79525Y-66595D01*
X79525Y-66045D01*
X79502Y-65990D01*
X79460Y-65947D01*
X79404Y-65925D01*
X79397Y-65925D01*
X79397Y-65717D01*
X79100Y-65420D01*
X78802Y-65717D01*
X78827Y-65810D01*
X79024Y-65879D01*
X79232Y-65868D01*
X79372Y-65810D01*
X79397Y-65717D01*
X79397Y-65925D01*
X79345Y-65924D01*
X78795Y-65924D01*
X78740Y-65947D01*
X78697Y-65989D01*
X78679Y-66034D01*
X78679Y-65633D01*
X78732Y-65647D01*
X79029Y-65350D01*
X78732Y-65052D01*
X78679Y-65066D01*
X78679Y-64445D01*
X78739Y-64590D01*
X78858Y-64710D01*
X79015Y-64774D01*
X79184Y-64775D01*
X79340Y-64710D01*
X79460Y-64591D01*
X79524Y-64434D01*
X79525Y-64265D01*
X79460Y-64109D01*
X79341Y-63989D01*
X79184Y-63925D01*
X79015Y-63924D01*
X78859Y-63989D01*
X78739Y-64108D01*
X78679Y-64254D01*
X78679Y-63445D01*
X78739Y-63590D01*
X78858Y-63710D01*
X79015Y-63774D01*
X79184Y-63775D01*
X79340Y-63710D01*
X79460Y-63591D01*
X79524Y-63434D01*
X79525Y-63265D01*
X79460Y-63109D01*
X79341Y-62989D01*
X79184Y-62925D01*
X79015Y-62924D01*
X78859Y-62989D01*
X78739Y-63108D01*
X78679Y-63254D01*
X78679Y-62445D01*
X78739Y-62590D01*
X78858Y-62710D01*
X79015Y-62774D01*
X79184Y-62775D01*
X79340Y-62710D01*
X79460Y-62591D01*
X79524Y-62434D01*
X79525Y-62265D01*
X79460Y-62109D01*
X79341Y-61989D01*
X79184Y-61925D01*
X79015Y-61924D01*
X78859Y-61989D01*
X78739Y-62108D01*
X78679Y-62254D01*
X78679Y-61445D01*
X78739Y-61590D01*
X78858Y-61710D01*
X79015Y-61774D01*
X79184Y-61775D01*
X79340Y-61710D01*
X79460Y-61591D01*
X79524Y-61434D01*
X79525Y-61265D01*
X79460Y-61109D01*
X79341Y-60989D01*
X79184Y-60925D01*
X79015Y-60924D01*
X78859Y-60989D01*
X78739Y-61108D01*
X78679Y-61254D01*
X78679Y-60445D01*
X78739Y-60590D01*
X78858Y-60710D01*
X79015Y-60774D01*
X79184Y-60775D01*
X79340Y-60710D01*
X79460Y-60591D01*
X79524Y-60434D01*
X79525Y-60265D01*
X79460Y-60109D01*
X79341Y-59989D01*
X79184Y-59925D01*
X79015Y-59924D01*
X78859Y-59989D01*
X78739Y-60108D01*
X78679Y-60254D01*
X78679Y-59445D01*
X78739Y-59590D01*
X78858Y-59710D01*
X79015Y-59774D01*
X79184Y-59775D01*
X79340Y-59710D01*
X79460Y-59591D01*
X79524Y-59434D01*
X79525Y-59265D01*
X79460Y-59109D01*
X79341Y-58989D01*
X79184Y-58925D01*
X79015Y-58924D01*
X78859Y-58989D01*
X78739Y-59108D01*
X78679Y-59254D01*
X78679Y-58445D01*
X78739Y-58590D01*
X78858Y-58710D01*
X79015Y-58774D01*
X79184Y-58775D01*
X79340Y-58710D01*
X79460Y-58591D01*
X79524Y-58434D01*
X79525Y-58265D01*
X79460Y-58109D01*
X79341Y-57989D01*
X79184Y-57925D01*
X79015Y-57924D01*
X78859Y-57989D01*
X78739Y-58108D01*
X78679Y-58254D01*
X78679Y-57445D01*
X78739Y-57590D01*
X78858Y-57710D01*
X79015Y-57774D01*
X79184Y-57775D01*
X79340Y-57710D01*
X79460Y-57591D01*
X79524Y-57434D01*
X79525Y-57265D01*
X79460Y-57109D01*
X79341Y-56989D01*
X79184Y-56925D01*
X79015Y-56924D01*
X78859Y-56989D01*
X78739Y-57108D01*
X78679Y-57254D01*
X78679Y-56445D01*
X78739Y-56590D01*
X78858Y-56710D01*
X79015Y-56774D01*
X79184Y-56775D01*
X79340Y-56710D01*
X79460Y-56591D01*
X79524Y-56434D01*
X79525Y-56265D01*
X79460Y-56109D01*
X79341Y-55989D01*
X79184Y-55925D01*
X79015Y-55924D01*
X78859Y-55989D01*
X78739Y-56108D01*
X78679Y-56254D01*
X78679Y-55445D01*
X78739Y-55590D01*
X78858Y-55710D01*
X79015Y-55774D01*
X79184Y-55775D01*
X79340Y-55710D01*
X79460Y-55591D01*
X79524Y-55434D01*
X79525Y-55265D01*
X79460Y-55109D01*
X79341Y-54989D01*
X79184Y-54925D01*
X79015Y-54924D01*
X78859Y-54989D01*
X78739Y-55108D01*
X78679Y-55254D01*
X78679Y-54445D01*
X78739Y-54590D01*
X78858Y-54710D01*
X79015Y-54774D01*
X79184Y-54775D01*
X79340Y-54710D01*
X79460Y-54591D01*
X79524Y-54434D01*
X79525Y-54265D01*
X79525Y-53265D01*
X79460Y-53109D01*
X79341Y-52989D01*
X79184Y-52925D01*
X79015Y-52924D01*
X78859Y-52989D01*
X78739Y-53108D01*
X78675Y-53265D01*
X78674Y-53434D01*
X78739Y-53590D01*
X78858Y-53710D01*
X79015Y-53774D01*
X79184Y-53775D01*
X79340Y-53710D01*
X79460Y-53591D01*
X79524Y-53434D01*
X79525Y-53265D01*
X79525Y-54265D01*
X79460Y-54109D01*
X79341Y-53989D01*
X79184Y-53925D01*
X79015Y-53924D01*
X78859Y-53989D01*
X78739Y-54108D01*
X78679Y-54254D01*
X78679Y-53650D01*
X78665Y-53581D01*
X78626Y-53523D01*
X78568Y-53484D01*
X78500Y-53470D01*
X75879Y-53470D01*
X75879Y-52225D01*
X75868Y-52017D01*
X75810Y-51877D01*
X75717Y-51852D01*
X75647Y-51923D01*
X75420Y-52150D01*
X75717Y-52447D01*
X75810Y-52422D01*
X75879Y-52225D01*
X75879Y-53470D01*
X75768Y-53470D01*
X75774Y-53454D01*
X75775Y-53395D01*
X75775Y-52845D01*
X75752Y-52790D01*
X75710Y-52747D01*
X75654Y-52725D01*
X75647Y-52725D01*
X75595Y-52724D01*
X75045Y-52724D01*
X75029Y-52731D01*
X75029Y-52541D01*
X75052Y-52517D01*
X75077Y-52610D01*
X75274Y-52679D01*
X75482Y-52668D01*
X75622Y-52610D01*
X75647Y-52517D01*
X75350Y-52220D01*
X75344Y-52226D01*
X75273Y-52155D01*
X75279Y-52150D01*
X75273Y-52144D01*
X75344Y-52073D01*
X75350Y-52079D01*
X75647Y-51782D01*
X75622Y-51689D01*
X75425Y-51620D01*
X75217Y-51631D01*
X75077Y-51689D01*
X75052Y-51782D01*
X75029Y-51758D01*
X75029Y-51430D01*
X75108Y-51510D01*
X75265Y-51574D01*
X75434Y-51575D01*
X75590Y-51510D01*
X75710Y-51391D01*
X75774Y-51234D01*
X75775Y-51065D01*
X75710Y-50909D01*
X75591Y-50789D01*
X75434Y-50725D01*
X75265Y-50724D01*
X75109Y-50789D01*
X75029Y-50869D01*
X75029Y-50430D01*
X75108Y-50510D01*
X75265Y-50574D01*
X75434Y-50575D01*
X75590Y-50510D01*
X75710Y-50391D01*
X75774Y-50234D01*
X75775Y-50065D01*
X75710Y-49909D01*
X75591Y-49789D01*
X75434Y-49725D01*
X75265Y-49724D01*
X75109Y-49789D01*
X75029Y-49869D01*
X75029Y-48529D01*
X95670Y-48529D01*
X95670Y-66770D01*
X95670Y-66770D01*
G37*
G54D24*
X95670Y-66770D02*
X95100Y-66770D01*
X95100Y-54700D01*
X95100Y-53999D01*
X95099Y-53900D01*
X95061Y-53808D01*
X94991Y-53737D01*
X94899Y-53699D01*
X94682Y-53699D01*
X94841Y-53541D01*
X94841Y-53541D01*
X94870Y-53498D01*
X94884Y-53476D01*
X94884Y-53476D01*
X94899Y-53400D01*
X94900Y-53400D01*
X94900Y-53150D01*
X94929Y-53150D01*
X94984Y-53127D01*
X95027Y-53085D01*
X95049Y-53029D01*
X95050Y-52970D01*
X95050Y-52170D01*
X95027Y-52115D01*
X94985Y-52072D01*
X94929Y-52050D01*
X94900Y-52049D01*
X94900Y-51550D01*
X94899Y-51549D01*
X94884Y-51473D01*
X94884Y-51473D01*
X94870Y-51451D01*
X94841Y-51408D01*
X94841Y-51408D01*
X94770Y-51337D01*
X94770Y-50350D01*
X94770Y-49649D01*
X94769Y-49550D01*
X94731Y-49458D01*
X94661Y-49387D01*
X94569Y-49349D01*
X93912Y-49350D01*
X93850Y-49412D01*
X93850Y-49950D01*
X94707Y-49950D01*
X94770Y-49887D01*
X94770Y-49649D01*
X94770Y-50350D01*
X94770Y-50112D01*
X94707Y-50050D01*
X93850Y-50050D01*
X93850Y-50587D01*
X93912Y-50650D01*
X94569Y-50650D01*
X94661Y-50612D01*
X94731Y-50541D01*
X94769Y-50449D01*
X94770Y-50350D01*
X94770Y-51337D01*
X94491Y-51058D01*
X94426Y-51015D01*
X94350Y-51000D01*
X93750Y-51000D01*
X93750Y-50587D01*
X93750Y-50050D01*
X93750Y-49950D01*
X93750Y-49412D01*
X93687Y-49350D01*
X93030Y-49349D01*
X92938Y-49387D01*
X92868Y-49458D01*
X92830Y-49550D01*
X92829Y-49649D01*
X92830Y-49887D01*
X92892Y-49950D01*
X93750Y-49950D01*
X93750Y-50050D01*
X92892Y-50050D01*
X92830Y-50112D01*
X92829Y-50350D01*
X92830Y-50449D01*
X92868Y-50541D01*
X92938Y-50612D01*
X93030Y-50650D01*
X93687Y-50650D01*
X93750Y-50587D01*
X93750Y-51000D01*
X92475Y-51000D01*
X92475Y-49185D01*
X92425Y-49066D01*
X92334Y-48974D01*
X92214Y-48925D01*
X92085Y-48924D01*
X92024Y-48950D01*
X81060Y-48950D01*
X80459Y-48950D01*
X80384Y-48874D01*
X80264Y-48825D01*
X80135Y-48824D01*
X80016Y-48874D01*
X79924Y-48965D01*
X79875Y-49085D01*
X79874Y-49214D01*
X79924Y-49333D01*
X80015Y-49425D01*
X80135Y-49474D01*
X80264Y-49475D01*
X80383Y-49425D01*
X80459Y-49350D01*
X80694Y-49350D01*
X80644Y-49370D01*
X80601Y-49412D01*
X80579Y-49468D01*
X80578Y-49527D01*
X80578Y-49548D01*
X80080Y-49548D01*
X79741Y-49208D01*
X79676Y-49165D01*
X79600Y-49150D01*
X79477Y-49150D01*
X79460Y-49109D01*
X79341Y-48989D01*
X79184Y-48925D01*
X79015Y-48924D01*
X78859Y-48989D01*
X78739Y-49108D01*
X78675Y-49265D01*
X78674Y-49434D01*
X78739Y-49590D01*
X78858Y-49710D01*
X79015Y-49774D01*
X79184Y-49775D01*
X79340Y-49710D01*
X79460Y-49591D01*
X79477Y-49550D01*
X79517Y-49550D01*
X79856Y-49889D01*
X79856Y-49889D01*
X79899Y-49918D01*
X79921Y-49932D01*
X79921Y-49932D01*
X79997Y-49947D01*
X79998Y-49948D01*
X80578Y-49948D01*
X80578Y-50027D01*
X80601Y-50082D01*
X80643Y-50125D01*
X80699Y-50147D01*
X80758Y-50148D01*
X80908Y-50148D01*
X80931Y-50138D01*
X80955Y-50147D01*
X81014Y-50148D01*
X81069Y-50148D01*
X81067Y-50150D01*
X79477Y-50150D01*
X79460Y-50109D01*
X79341Y-49989D01*
X79184Y-49925D01*
X79015Y-49924D01*
X78859Y-49989D01*
X78739Y-50108D01*
X78675Y-50265D01*
X78674Y-50434D01*
X78739Y-50590D01*
X78858Y-50710D01*
X79015Y-50774D01*
X79184Y-50775D01*
X79340Y-50710D01*
X79460Y-50591D01*
X79477Y-50550D01*
X81150Y-50550D01*
X81226Y-50534D01*
X81291Y-50491D01*
X81441Y-50341D01*
X81441Y-50341D01*
X81484Y-50276D01*
X81484Y-50276D01*
X81487Y-50263D01*
X81499Y-50200D01*
X81500Y-50200D01*
X81500Y-50148D01*
X81526Y-50148D01*
X81676Y-50148D01*
X81699Y-50138D01*
X81723Y-50147D01*
X81782Y-50148D01*
X81932Y-50148D01*
X81955Y-50138D01*
X81979Y-50147D01*
X82038Y-50148D01*
X82188Y-50148D01*
X82211Y-50138D01*
X82235Y-50147D01*
X82294Y-50148D01*
X82317Y-50148D01*
X82379Y-50210D01*
X82471Y-50248D01*
X82496Y-50248D01*
X82558Y-50185D01*
X82558Y-50043D01*
X82564Y-50027D01*
X82565Y-49968D01*
X82565Y-49690D01*
X82633Y-49690D01*
X82633Y-49698D01*
X82858Y-49698D01*
X82921Y-49635D01*
X82921Y-49547D01*
X82920Y-49448D01*
X82882Y-49356D01*
X82876Y-49350D01*
X91839Y-49350D01*
X91874Y-49433D01*
X91965Y-49525D01*
X92085Y-49574D01*
X92214Y-49575D01*
X92333Y-49525D01*
X92425Y-49434D01*
X92474Y-49314D01*
X92475Y-49185D01*
X92475Y-51000D01*
X89782Y-51000D01*
X89224Y-50442D01*
X89225Y-50335D01*
X89175Y-50216D01*
X89084Y-50124D01*
X88964Y-50075D01*
X88835Y-50074D01*
X88716Y-50124D01*
X88624Y-50215D01*
X88575Y-50335D01*
X88575Y-50366D01*
X88037Y-50366D01*
X88035Y-50363D01*
X87979Y-50341D01*
X87920Y-50340D01*
X87420Y-50340D01*
X87365Y-50363D01*
X87322Y-50405D01*
X87300Y-50461D01*
X87299Y-50520D01*
X87299Y-50670D01*
X87309Y-50693D01*
X87300Y-50717D01*
X87299Y-50776D01*
X87299Y-50926D01*
X87309Y-50949D01*
X87300Y-50973D01*
X87299Y-51032D01*
X87299Y-51134D01*
X87016Y-51134D01*
X86939Y-51149D01*
X86917Y-51163D01*
X86874Y-51192D01*
X86517Y-51550D01*
X86462Y-51550D01*
X86500Y-51458D01*
X86500Y-51434D01*
X86437Y-51371D01*
X86050Y-51371D01*
X86050Y-51391D01*
X85950Y-51391D01*
X85950Y-51371D01*
X85562Y-51371D01*
X85500Y-51434D01*
X85499Y-51458D01*
X85537Y-51550D01*
X85250Y-51550D01*
X85186Y-51562D01*
X85173Y-51565D01*
X85108Y-51608D01*
X83417Y-53300D01*
X82704Y-53300D01*
X82681Y-53245D01*
X82586Y-53150D01*
X83300Y-53150D01*
X83376Y-53134D01*
X83441Y-53091D01*
X85254Y-51278D01*
X85544Y-51278D01*
X85562Y-51296D01*
X85704Y-51296D01*
X85720Y-51302D01*
X85779Y-51303D01*
X86279Y-51303D01*
X86295Y-51296D01*
X86437Y-51296D01*
X86500Y-51234D01*
X86500Y-51209D01*
X86462Y-51117D01*
X86400Y-51055D01*
X86400Y-50973D01*
X86390Y-50950D01*
X86399Y-50926D01*
X86400Y-50867D01*
X86400Y-50717D01*
X86390Y-50694D01*
X86399Y-50670D01*
X86400Y-50611D01*
X86400Y-50461D01*
X86377Y-50406D01*
X86335Y-50363D01*
X86279Y-50341D01*
X86220Y-50340D01*
X85720Y-50340D01*
X85665Y-50363D01*
X85662Y-50366D01*
X85513Y-50366D01*
X85414Y-50325D01*
X85285Y-50324D01*
X85166Y-50374D01*
X85074Y-50465D01*
X85025Y-50585D01*
X85024Y-50714D01*
X85074Y-50833D01*
X85127Y-50886D01*
X85095Y-50893D01*
X85073Y-50907D01*
X85030Y-50936D01*
X83217Y-52750D01*
X82989Y-52750D01*
X83024Y-52664D01*
X83025Y-52535D01*
X82975Y-52416D01*
X82921Y-52361D01*
X82921Y-49948D01*
X82921Y-49860D01*
X82858Y-49798D01*
X82633Y-49798D01*
X82633Y-50185D01*
X82696Y-50248D01*
X82720Y-50248D01*
X82812Y-50210D01*
X82882Y-50139D01*
X82920Y-50047D01*
X82921Y-49948D01*
X82921Y-52361D01*
X82884Y-52324D01*
X82796Y-52288D01*
X82798Y-52287D01*
X82820Y-52231D01*
X82821Y-52172D01*
X82821Y-51672D01*
X82798Y-51617D01*
X82756Y-51574D01*
X82700Y-51552D01*
X82641Y-51551D01*
X82491Y-51551D01*
X82468Y-51561D01*
X82444Y-51552D01*
X82385Y-51551D01*
X82235Y-51551D01*
X82212Y-51561D01*
X82188Y-51552D01*
X82129Y-51551D01*
X81979Y-51551D01*
X81956Y-51561D01*
X81932Y-51552D01*
X81873Y-51551D01*
X81723Y-51551D01*
X81700Y-51561D01*
X81676Y-51552D01*
X81617Y-51551D01*
X81516Y-51551D01*
X81516Y-51443D01*
X81575Y-51384D01*
X81624Y-51264D01*
X81625Y-51135D01*
X81589Y-51050D01*
X82290Y-51050D01*
X82365Y-51125D01*
X82485Y-51174D01*
X82614Y-51175D01*
X82733Y-51125D01*
X82825Y-51034D01*
X82874Y-50914D01*
X82875Y-50785D01*
X82825Y-50666D01*
X82734Y-50574D01*
X82614Y-50525D01*
X82485Y-50524D01*
X82366Y-50574D01*
X82290Y-50650D01*
X81150Y-50650D01*
X81073Y-50665D01*
X81051Y-50679D01*
X81008Y-50708D01*
X80662Y-51054D01*
X80619Y-51119D01*
X80604Y-51196D01*
X80604Y-51614D01*
X80601Y-51616D01*
X80579Y-51672D01*
X80578Y-51731D01*
X80578Y-52231D01*
X80601Y-52286D01*
X80643Y-52329D01*
X80699Y-52351D01*
X80758Y-52352D01*
X80860Y-52352D01*
X80860Y-52510D01*
X80875Y-52586D01*
X80918Y-52651D01*
X81008Y-52741D01*
X81073Y-52784D01*
X81073Y-52784D01*
X81086Y-52787D01*
X81150Y-52800D01*
X81871Y-52800D01*
X81858Y-52808D01*
X81550Y-53116D01*
X81389Y-53050D01*
X81210Y-53049D01*
X81045Y-53118D01*
X80918Y-53244D01*
X80850Y-53410D01*
X80849Y-53589D01*
X80918Y-53754D01*
X81044Y-53881D01*
X81210Y-53949D01*
X81389Y-53950D01*
X81554Y-53881D01*
X81681Y-53755D01*
X81749Y-53589D01*
X81750Y-53482D01*
X81869Y-53363D01*
X81850Y-53410D01*
X81849Y-53589D01*
X81918Y-53754D01*
X82044Y-53881D01*
X82210Y-53949D01*
X82389Y-53950D01*
X82554Y-53881D01*
X82681Y-53755D01*
X82704Y-53700D01*
X83500Y-53700D01*
X83576Y-53684D01*
X83641Y-53641D01*
X85332Y-51950D01*
X85631Y-51950D01*
X85600Y-52025D01*
X85599Y-52124D01*
X85600Y-52237D01*
X85662Y-52300D01*
X85975Y-52300D01*
X85975Y-52292D01*
X86075Y-52292D01*
X86075Y-52300D01*
X86082Y-52300D01*
X86082Y-52400D01*
X86075Y-52400D01*
X86075Y-52812D01*
X86112Y-52850D01*
X86075Y-52887D01*
X86075Y-53300D01*
X86082Y-53300D01*
X86082Y-53400D01*
X86075Y-53400D01*
X86075Y-53812D01*
X86112Y-53850D01*
X86075Y-53887D01*
X86075Y-54300D01*
X86082Y-54300D01*
X86082Y-54400D01*
X86075Y-54400D01*
X86075Y-54812D01*
X86137Y-54875D01*
X86249Y-54875D01*
X86341Y-54837D01*
X86411Y-54766D01*
X86449Y-54674D01*
X86449Y-54654D01*
X86449Y-54654D01*
X86472Y-54709D01*
X86514Y-54752D01*
X86570Y-54774D01*
X86629Y-54775D01*
X86979Y-54775D01*
X87034Y-54752D01*
X87077Y-54710D01*
X87099Y-54654D01*
X87100Y-54595D01*
X87100Y-54550D01*
X87699Y-54550D01*
X87699Y-54654D01*
X87722Y-54709D01*
X87764Y-54752D01*
X87820Y-54774D01*
X87879Y-54775D01*
X88229Y-54775D01*
X88284Y-54752D01*
X88327Y-54710D01*
X88349Y-54654D01*
X88350Y-54595D01*
X88350Y-54045D01*
X88327Y-53990D01*
X88285Y-53947D01*
X88229Y-53925D01*
X88170Y-53924D01*
X87820Y-53924D01*
X87765Y-53947D01*
X87722Y-53989D01*
X87700Y-54045D01*
X87699Y-54104D01*
X87699Y-54150D01*
X87100Y-54150D01*
X87100Y-54045D01*
X87077Y-53990D01*
X87035Y-53947D01*
X86979Y-53925D01*
X86920Y-53924D01*
X86570Y-53924D01*
X86515Y-53947D01*
X86472Y-53989D01*
X86450Y-54045D01*
X86449Y-54074D01*
X86449Y-54025D01*
X86411Y-53933D01*
X86341Y-53862D01*
X86310Y-53850D01*
X86341Y-53837D01*
X86411Y-53766D01*
X86449Y-53674D01*
X86449Y-53654D01*
X86449Y-53654D01*
X86472Y-53709D01*
X86514Y-53752D01*
X86570Y-53774D01*
X86629Y-53775D01*
X86979Y-53775D01*
X87034Y-53752D01*
X87077Y-53710D01*
X87099Y-53654D01*
X87100Y-53595D01*
X87100Y-53550D01*
X87699Y-53550D01*
X87699Y-53654D01*
X87722Y-53709D01*
X87764Y-53752D01*
X87820Y-53774D01*
X87879Y-53775D01*
X88229Y-53775D01*
X88284Y-53752D01*
X88327Y-53710D01*
X88349Y-53654D01*
X88350Y-53595D01*
X88350Y-53045D01*
X88327Y-52990D01*
X88285Y-52947D01*
X88229Y-52925D01*
X88170Y-52924D01*
X87820Y-52924D01*
X87765Y-52947D01*
X87722Y-52989D01*
X87700Y-53045D01*
X87699Y-53104D01*
X87699Y-53150D01*
X87100Y-53150D01*
X87100Y-53045D01*
X87077Y-52990D01*
X87035Y-52947D01*
X86979Y-52925D01*
X86920Y-52924D01*
X86570Y-52924D01*
X86515Y-52947D01*
X86472Y-52989D01*
X86450Y-53045D01*
X86449Y-53074D01*
X86449Y-53025D01*
X86411Y-52933D01*
X86341Y-52862D01*
X86310Y-52850D01*
X86341Y-52837D01*
X86411Y-52766D01*
X86449Y-52674D01*
X86449Y-52654D01*
X86449Y-52654D01*
X86472Y-52709D01*
X86514Y-52752D01*
X86570Y-52774D01*
X86629Y-52775D01*
X86979Y-52775D01*
X87034Y-52752D01*
X87077Y-52710D01*
X87099Y-52654D01*
X87100Y-52595D01*
X87100Y-52550D01*
X87699Y-52550D01*
X87699Y-52654D01*
X87722Y-52709D01*
X87764Y-52752D01*
X87820Y-52774D01*
X87879Y-52775D01*
X88229Y-52775D01*
X88284Y-52752D01*
X88327Y-52710D01*
X88349Y-52654D01*
X88350Y-52595D01*
X88350Y-52045D01*
X88327Y-51990D01*
X88285Y-51947D01*
X88229Y-51925D01*
X88170Y-51924D01*
X87820Y-51924D01*
X87765Y-51947D01*
X87722Y-51989D01*
X87700Y-52045D01*
X87699Y-52104D01*
X87699Y-52150D01*
X87100Y-52150D01*
X87100Y-52045D01*
X87077Y-51990D01*
X87035Y-51947D01*
X86979Y-51925D01*
X86920Y-51924D01*
X86691Y-51924D01*
X86741Y-51891D01*
X87098Y-51534D01*
X87362Y-51534D01*
X87364Y-51536D01*
X87420Y-51558D01*
X87479Y-51559D01*
X87979Y-51559D01*
X88034Y-51536D01*
X88077Y-51494D01*
X88099Y-51438D01*
X88100Y-51379D01*
X88100Y-51229D01*
X88090Y-51206D01*
X88099Y-51182D01*
X88100Y-51123D01*
X88100Y-51022D01*
X88689Y-51022D01*
X88725Y-51057D01*
X88724Y-51164D01*
X88774Y-51283D01*
X88865Y-51375D01*
X88985Y-51424D01*
X89114Y-51425D01*
X89233Y-51375D01*
X89325Y-51284D01*
X89374Y-51164D01*
X89374Y-51157D01*
X89558Y-51341D01*
X89558Y-51341D01*
X89601Y-51370D01*
X89623Y-51384D01*
X89623Y-51384D01*
X89699Y-51399D01*
X89700Y-51400D01*
X94267Y-51400D01*
X94500Y-51632D01*
X94500Y-52049D01*
X94470Y-52049D01*
X94415Y-52072D01*
X94372Y-52114D01*
X94350Y-52170D01*
X94349Y-52229D01*
X94349Y-53029D01*
X94372Y-53084D01*
X94414Y-53127D01*
X94470Y-53149D01*
X94500Y-53150D01*
X94500Y-53317D01*
X94417Y-53400D01*
X94250Y-53400D01*
X94250Y-52950D01*
X94250Y-52249D01*
X94249Y-52150D01*
X94211Y-52058D01*
X94141Y-51987D01*
X94049Y-51949D01*
X93912Y-51950D01*
X93850Y-52012D01*
X93850Y-52550D01*
X94187Y-52550D01*
X94250Y-52487D01*
X94250Y-52249D01*
X94250Y-52950D01*
X94250Y-52712D01*
X94187Y-52650D01*
X93850Y-52650D01*
X93850Y-53187D01*
X93912Y-53250D01*
X94049Y-53250D01*
X94141Y-53212D01*
X94211Y-53141D01*
X94249Y-53049D01*
X94250Y-52950D01*
X94250Y-53400D01*
X93750Y-53400D01*
X93750Y-53187D01*
X93750Y-52650D01*
X93750Y-52550D01*
X93750Y-52012D01*
X93687Y-51950D01*
X93550Y-51949D01*
X93458Y-51987D01*
X93388Y-52058D01*
X93350Y-52150D01*
X93349Y-52249D01*
X93350Y-52487D01*
X93412Y-52550D01*
X93750Y-52550D01*
X93750Y-52650D01*
X93412Y-52650D01*
X93350Y-52712D01*
X93349Y-52950D01*
X93350Y-53049D01*
X93388Y-53141D01*
X93458Y-53212D01*
X93550Y-53250D01*
X93687Y-53250D01*
X93750Y-53187D01*
X93750Y-53400D01*
X93450Y-53400D01*
X93373Y-53415D01*
X93351Y-53429D01*
X93308Y-53458D01*
X93108Y-53658D01*
X93065Y-53723D01*
X93050Y-53799D01*
X92920Y-53799D01*
X92883Y-53815D01*
X92924Y-53714D01*
X92925Y-53607D01*
X93041Y-53491D01*
X93041Y-53491D01*
X93070Y-53448D01*
X93084Y-53426D01*
X93084Y-53426D01*
X93099Y-53350D01*
X93100Y-53350D01*
X93100Y-53150D01*
X93129Y-53150D01*
X93184Y-53127D01*
X93227Y-53085D01*
X93249Y-53029D01*
X93250Y-52970D01*
X93250Y-52170D01*
X93227Y-52115D01*
X93185Y-52072D01*
X93129Y-52050D01*
X93070Y-52049D01*
X92670Y-52049D01*
X92615Y-52072D01*
X92572Y-52114D01*
X92550Y-52170D01*
X92549Y-52229D01*
X92549Y-53029D01*
X92572Y-53084D01*
X92614Y-53127D01*
X92670Y-53149D01*
X92700Y-53150D01*
X92700Y-53267D01*
X92642Y-53325D01*
X92535Y-53324D01*
X92416Y-53374D01*
X92324Y-53465D01*
X92275Y-53585D01*
X92274Y-53714D01*
X92324Y-53833D01*
X92415Y-53925D01*
X92535Y-53974D01*
X92664Y-53975D01*
X92783Y-53925D01*
X92807Y-53902D01*
X92800Y-53920D01*
X92799Y-53979D01*
X92799Y-54150D01*
X92509Y-54150D01*
X92434Y-54074D01*
X92314Y-54025D01*
X92185Y-54024D01*
X92066Y-54074D01*
X91974Y-54165D01*
X91925Y-54285D01*
X91924Y-54414D01*
X91974Y-54533D01*
X92065Y-54625D01*
X92185Y-54674D01*
X92314Y-54675D01*
X92433Y-54625D01*
X92509Y-54550D01*
X92799Y-54550D01*
X92799Y-54779D01*
X92822Y-54834D01*
X92864Y-54877D01*
X92920Y-54899D01*
X92979Y-54900D01*
X93579Y-54900D01*
X93634Y-54877D01*
X93677Y-54835D01*
X93699Y-54779D01*
X93700Y-54720D01*
X93700Y-53920D01*
X93677Y-53865D01*
X93635Y-53822D01*
X93579Y-53800D01*
X93550Y-53800D01*
X94046Y-53800D01*
X94038Y-53808D01*
X94000Y-53900D01*
X93999Y-53999D01*
X94000Y-54237D01*
X94062Y-54300D01*
X94500Y-54300D01*
X94500Y-54292D01*
X94600Y-54292D01*
X94600Y-54300D01*
X95037Y-54300D01*
X95100Y-54237D01*
X95100Y-53999D01*
X95100Y-54700D01*
X95100Y-54462D01*
X95037Y-54400D01*
X94600Y-54400D01*
X94600Y-54937D01*
X94662Y-55000D01*
X94899Y-55000D01*
X94991Y-54962D01*
X95061Y-54891D01*
X95099Y-54799D01*
X95100Y-54700D01*
X95100Y-66770D01*
X94500Y-66770D01*
X94500Y-54937D01*
X94500Y-54400D01*
X94062Y-54400D01*
X94000Y-54462D01*
X93999Y-54700D01*
X94000Y-54799D01*
X94038Y-54891D01*
X94108Y-54962D01*
X94200Y-55000D01*
X94437Y-55000D01*
X94500Y-54937D01*
X94500Y-66770D01*
X90125Y-66770D01*
X90125Y-54035D01*
X90125Y-53285D01*
X90125Y-52535D01*
X90075Y-52416D01*
X89984Y-52324D01*
X89864Y-52275D01*
X89757Y-52274D01*
X89691Y-52208D01*
X89626Y-52165D01*
X89550Y-52150D01*
X89100Y-52150D01*
X89100Y-52045D01*
X89077Y-51990D01*
X89035Y-51947D01*
X88979Y-51925D01*
X88920Y-51924D01*
X88570Y-51924D01*
X88515Y-51947D01*
X88472Y-51989D01*
X88450Y-52045D01*
X88449Y-52104D01*
X88449Y-52654D01*
X88472Y-52709D01*
X88514Y-52752D01*
X88570Y-52774D01*
X88629Y-52775D01*
X88979Y-52775D01*
X89034Y-52752D01*
X89077Y-52710D01*
X89099Y-52654D01*
X89100Y-52595D01*
X89100Y-52550D01*
X89467Y-52550D01*
X89475Y-52557D01*
X89474Y-52664D01*
X89524Y-52783D01*
X89615Y-52875D01*
X89735Y-52924D01*
X89864Y-52925D01*
X89983Y-52875D01*
X90075Y-52784D01*
X90124Y-52664D01*
X90125Y-52535D01*
X90125Y-53285D01*
X90075Y-53166D01*
X89984Y-53074D01*
X89864Y-53025D01*
X89735Y-53024D01*
X89616Y-53074D01*
X89540Y-53150D01*
X89100Y-53150D01*
X89100Y-53045D01*
X89077Y-52990D01*
X89035Y-52947D01*
X88979Y-52925D01*
X88920Y-52924D01*
X88570Y-52924D01*
X88515Y-52947D01*
X88472Y-52989D01*
X88450Y-53045D01*
X88449Y-53104D01*
X88449Y-53654D01*
X88472Y-53709D01*
X88514Y-53752D01*
X88570Y-53774D01*
X88629Y-53775D01*
X88979Y-53775D01*
X89034Y-53752D01*
X89077Y-53710D01*
X89099Y-53654D01*
X89100Y-53595D01*
X89100Y-53550D01*
X89540Y-53550D01*
X89615Y-53625D01*
X89735Y-53674D01*
X89864Y-53675D01*
X89983Y-53625D01*
X90075Y-53534D01*
X90124Y-53414D01*
X90125Y-53285D01*
X90125Y-54035D01*
X90075Y-53916D01*
X89984Y-53824D01*
X89864Y-53775D01*
X89735Y-53774D01*
X89616Y-53824D01*
X89524Y-53915D01*
X89475Y-54035D01*
X89474Y-54142D01*
X89467Y-54150D01*
X89100Y-54150D01*
X89100Y-54045D01*
X89077Y-53990D01*
X89035Y-53947D01*
X88979Y-53925D01*
X88920Y-53924D01*
X88570Y-53924D01*
X88515Y-53947D01*
X88472Y-53989D01*
X88450Y-54045D01*
X88449Y-54104D01*
X88449Y-54654D01*
X88472Y-54709D01*
X88514Y-54752D01*
X88570Y-54774D01*
X88629Y-54775D01*
X88979Y-54775D01*
X89034Y-54752D01*
X89077Y-54710D01*
X89099Y-54654D01*
X89100Y-54595D01*
X89100Y-54550D01*
X89550Y-54550D01*
X89626Y-54534D01*
X89691Y-54491D01*
X89757Y-54424D01*
X89864Y-54425D01*
X89983Y-54375D01*
X90075Y-54284D01*
X90124Y-54164D01*
X90125Y-54035D01*
X90125Y-66770D01*
X88400Y-66770D01*
X88400Y-60921D01*
X88301Y-60682D01*
X88118Y-60499D01*
X87879Y-60400D01*
X87621Y-60399D01*
X87382Y-60498D01*
X87199Y-60681D01*
X87100Y-60920D01*
X87099Y-61178D01*
X87198Y-61417D01*
X87381Y-61600D01*
X87620Y-61699D01*
X87878Y-61700D01*
X88117Y-61601D01*
X88300Y-61418D01*
X88399Y-61179D01*
X88400Y-60921D01*
X88400Y-66770D01*
X85975Y-66770D01*
X85975Y-54812D01*
X85975Y-54400D01*
X85975Y-54300D01*
X85975Y-53887D01*
X85937Y-53850D01*
X85975Y-53812D01*
X85975Y-53400D01*
X85975Y-53300D01*
X85975Y-52887D01*
X85937Y-52850D01*
X85975Y-52812D01*
X85975Y-52400D01*
X85662Y-52400D01*
X85600Y-52462D01*
X85599Y-52575D01*
X85600Y-52674D01*
X85638Y-52766D01*
X85708Y-52837D01*
X85739Y-52850D01*
X85708Y-52862D01*
X85638Y-52933D01*
X85600Y-53025D01*
X85599Y-53124D01*
X85600Y-53237D01*
X85662Y-53300D01*
X85975Y-53300D01*
X85975Y-53400D01*
X85662Y-53400D01*
X85600Y-53462D01*
X85599Y-53575D01*
X85600Y-53674D01*
X85638Y-53766D01*
X85708Y-53837D01*
X85739Y-53850D01*
X85708Y-53862D01*
X85638Y-53933D01*
X85600Y-54025D01*
X85599Y-54124D01*
X85600Y-54237D01*
X85662Y-54300D01*
X85975Y-54300D01*
X85975Y-54400D01*
X85662Y-54400D01*
X85600Y-54462D01*
X85599Y-54575D01*
X85600Y-54674D01*
X85638Y-54766D01*
X85708Y-54837D01*
X85800Y-54875D01*
X85912Y-54875D01*
X85975Y-54812D01*
X85975Y-66770D01*
X82750Y-66770D01*
X82750Y-54410D01*
X82681Y-54245D01*
X82555Y-54118D01*
X82389Y-54050D01*
X82210Y-54049D01*
X82045Y-54118D01*
X81918Y-54244D01*
X81850Y-54410D01*
X81849Y-54589D01*
X81918Y-54754D01*
X82044Y-54881D01*
X82100Y-54904D01*
X82100Y-54967D01*
X82017Y-55050D01*
X80332Y-55050D01*
X80250Y-54967D01*
X80250Y-54282D01*
X80608Y-54641D01*
X80608Y-54641D01*
X80651Y-54670D01*
X80673Y-54684D01*
X80673Y-54684D01*
X80749Y-54699D01*
X80750Y-54700D01*
X80849Y-54700D01*
X80849Y-54829D01*
X80872Y-54884D01*
X80914Y-54927D01*
X80970Y-54949D01*
X81029Y-54950D01*
X81629Y-54950D01*
X81684Y-54927D01*
X81727Y-54885D01*
X81749Y-54829D01*
X81750Y-54770D01*
X81750Y-54170D01*
X81727Y-54115D01*
X81685Y-54072D01*
X81629Y-54050D01*
X81570Y-54049D01*
X80970Y-54049D01*
X80915Y-54072D01*
X80872Y-54114D01*
X80850Y-54170D01*
X80849Y-54229D01*
X80849Y-54300D01*
X80832Y-54300D01*
X80550Y-54017D01*
X80550Y-52600D01*
X80534Y-52523D01*
X80491Y-52458D01*
X79508Y-51475D01*
X79524Y-51434D01*
X79525Y-51265D01*
X79460Y-51109D01*
X79341Y-50989D01*
X79184Y-50925D01*
X79015Y-50924D01*
X78859Y-50989D01*
X78739Y-51108D01*
X78675Y-51265D01*
X78674Y-51434D01*
X78739Y-51590D01*
X78858Y-51710D01*
X79015Y-51774D01*
X79184Y-51775D01*
X79225Y-51758D01*
X80150Y-52682D01*
X80150Y-53067D01*
X79522Y-52439D01*
X79524Y-52434D01*
X79525Y-52265D01*
X79460Y-52109D01*
X79341Y-51989D01*
X79184Y-51925D01*
X79015Y-51924D01*
X78859Y-51989D01*
X78739Y-52108D01*
X78675Y-52265D01*
X78674Y-52434D01*
X78739Y-52590D01*
X78858Y-52710D01*
X79015Y-52774D01*
X79184Y-52775D01*
X79260Y-52743D01*
X79850Y-53332D01*
X79850Y-55050D01*
X79865Y-55126D01*
X79908Y-55191D01*
X80108Y-55391D01*
X80108Y-55391D01*
X80151Y-55420D01*
X80173Y-55434D01*
X80173Y-55434D01*
X80250Y-55450D01*
X82100Y-55450D01*
X82176Y-55434D01*
X82241Y-55391D01*
X82441Y-55191D01*
X82441Y-55191D01*
X82470Y-55148D01*
X82484Y-55126D01*
X82484Y-55126D01*
X82499Y-55050D01*
X82500Y-55050D01*
X82500Y-54904D01*
X82554Y-54881D01*
X82681Y-54755D01*
X82749Y-54589D01*
X82750Y-54410D01*
X82750Y-66770D01*
X79629Y-66770D01*
X79629Y-65425D01*
X79618Y-65217D01*
X79560Y-65077D01*
X79467Y-65052D01*
X79397Y-65123D01*
X79397Y-64982D01*
X79372Y-64889D01*
X79175Y-64820D01*
X78967Y-64831D01*
X78827Y-64889D01*
X78802Y-64982D01*
X79100Y-65279D01*
X79397Y-64982D01*
X79397Y-65123D01*
X79170Y-65350D01*
X79467Y-65647D01*
X79560Y-65622D01*
X79629Y-65425D01*
X79629Y-66770D01*
X79415Y-66770D01*
X79459Y-66752D01*
X79502Y-66710D01*
X79524Y-66654D01*
X79525Y-66595D01*
X79525Y-66045D01*
X79502Y-65990D01*
X79460Y-65947D01*
X79404Y-65925D01*
X79397Y-65925D01*
X79397Y-65717D01*
X79100Y-65420D01*
X78802Y-65717D01*
X78827Y-65810D01*
X79024Y-65879D01*
X79232Y-65868D01*
X79372Y-65810D01*
X79397Y-65717D01*
X79397Y-65925D01*
X79345Y-65924D01*
X78795Y-65924D01*
X78740Y-65947D01*
X78697Y-65989D01*
X78679Y-66034D01*
X78679Y-65633D01*
X78732Y-65647D01*
X79029Y-65350D01*
X78732Y-65052D01*
X78679Y-65066D01*
X78679Y-64445D01*
X78739Y-64590D01*
X78858Y-64710D01*
X79015Y-64774D01*
X79184Y-64775D01*
X79340Y-64710D01*
X79460Y-64591D01*
X79524Y-64434D01*
X79525Y-64265D01*
X79460Y-64109D01*
X79341Y-63989D01*
X79184Y-63925D01*
X79015Y-63924D01*
X78859Y-63989D01*
X78739Y-64108D01*
X78679Y-64254D01*
X78679Y-63445D01*
X78739Y-63590D01*
X78858Y-63710D01*
X79015Y-63774D01*
X79184Y-63775D01*
X79340Y-63710D01*
X79460Y-63591D01*
X79524Y-63434D01*
X79525Y-63265D01*
X79460Y-63109D01*
X79341Y-62989D01*
X79184Y-62925D01*
X79015Y-62924D01*
X78859Y-62989D01*
X78739Y-63108D01*
X78679Y-63254D01*
X78679Y-62445D01*
X78739Y-62590D01*
X78858Y-62710D01*
X79015Y-62774D01*
X79184Y-62775D01*
X79340Y-62710D01*
X79460Y-62591D01*
X79524Y-62434D01*
X79525Y-62265D01*
X79460Y-62109D01*
X79341Y-61989D01*
X79184Y-61925D01*
X79015Y-61924D01*
X78859Y-61989D01*
X78739Y-62108D01*
X78679Y-62254D01*
X78679Y-61445D01*
X78739Y-61590D01*
X78858Y-61710D01*
X79015Y-61774D01*
X79184Y-61775D01*
X79340Y-61710D01*
X79460Y-61591D01*
X79524Y-61434D01*
X79525Y-61265D01*
X79460Y-61109D01*
X79341Y-60989D01*
X79184Y-60925D01*
X79015Y-60924D01*
X78859Y-60989D01*
X78739Y-61108D01*
X78679Y-61254D01*
X78679Y-60445D01*
X78739Y-60590D01*
X78858Y-60710D01*
X79015Y-60774D01*
X79184Y-60775D01*
X79340Y-60710D01*
X79460Y-60591D01*
X79524Y-60434D01*
X79525Y-60265D01*
X79460Y-60109D01*
X79341Y-59989D01*
X79184Y-59925D01*
X79015Y-59924D01*
X78859Y-59989D01*
X78739Y-60108D01*
X78679Y-60254D01*
X78679Y-59445D01*
X78739Y-59590D01*
X78858Y-59710D01*
X79015Y-59774D01*
X79184Y-59775D01*
X79340Y-59710D01*
X79460Y-59591D01*
X79524Y-59434D01*
X79525Y-59265D01*
X79460Y-59109D01*
X79341Y-58989D01*
X79184Y-58925D01*
X79015Y-58924D01*
X78859Y-58989D01*
X78739Y-59108D01*
X78679Y-59254D01*
X78679Y-58445D01*
X78739Y-58590D01*
X78858Y-58710D01*
X79015Y-58774D01*
X79184Y-58775D01*
X79340Y-58710D01*
X79460Y-58591D01*
X79524Y-58434D01*
X79525Y-58265D01*
X79460Y-58109D01*
X79341Y-57989D01*
X79184Y-57925D01*
X79015Y-57924D01*
X78859Y-57989D01*
X78739Y-58108D01*
X78679Y-58254D01*
X78679Y-57445D01*
X78739Y-57590D01*
X78858Y-57710D01*
X79015Y-57774D01*
X79184Y-57775D01*
X79340Y-57710D01*
X79460Y-57591D01*
X79524Y-57434D01*
X79525Y-57265D01*
X79460Y-57109D01*
X79341Y-56989D01*
X79184Y-56925D01*
X79015Y-56924D01*
X78859Y-56989D01*
X78739Y-57108D01*
X78679Y-57254D01*
X78679Y-56445D01*
X78739Y-56590D01*
X78858Y-56710D01*
X79015Y-56774D01*
X79184Y-56775D01*
X79340Y-56710D01*
X79460Y-56591D01*
X79524Y-56434D01*
X79525Y-56265D01*
X79460Y-56109D01*
X79341Y-55989D01*
X79184Y-55925D01*
X79015Y-55924D01*
X78859Y-55989D01*
X78739Y-56108D01*
X78679Y-56254D01*
X78679Y-55445D01*
X78739Y-55590D01*
X78858Y-55710D01*
X79015Y-55774D01*
X79184Y-55775D01*
X79340Y-55710D01*
X79460Y-55591D01*
X79524Y-55434D01*
X79525Y-55265D01*
X79460Y-55109D01*
X79341Y-54989D01*
X79184Y-54925D01*
X79015Y-54924D01*
X78859Y-54989D01*
X78739Y-55108D01*
X78679Y-55254D01*
X78679Y-54445D01*
X78739Y-54590D01*
X78858Y-54710D01*
X79015Y-54774D01*
X79184Y-54775D01*
X79340Y-54710D01*
X79460Y-54591D01*
X79524Y-54434D01*
X79525Y-54265D01*
X79525Y-53265D01*
X79460Y-53109D01*
X79341Y-52989D01*
X79184Y-52925D01*
X79015Y-52924D01*
X78859Y-52989D01*
X78739Y-53108D01*
X78675Y-53265D01*
X78674Y-53434D01*
X78739Y-53590D01*
X78858Y-53710D01*
X79015Y-53774D01*
X79184Y-53775D01*
X79340Y-53710D01*
X79460Y-53591D01*
X79524Y-53434D01*
X79525Y-53265D01*
X79525Y-54265D01*
X79460Y-54109D01*
X79341Y-53989D01*
X79184Y-53925D01*
X79015Y-53924D01*
X78859Y-53989D01*
X78739Y-54108D01*
X78679Y-54254D01*
X78679Y-53650D01*
X78665Y-53581D01*
X78626Y-53523D01*
X78568Y-53484D01*
X78500Y-53470D01*
X75879Y-53470D01*
X75879Y-52225D01*
X75868Y-52017D01*
X75810Y-51877D01*
X75717Y-51852D01*
X75647Y-51923D01*
X75420Y-52150D01*
X75717Y-52447D01*
X75810Y-52422D01*
X75879Y-52225D01*
X75879Y-53470D01*
X75768Y-53470D01*
X75774Y-53454D01*
X75775Y-53395D01*
X75775Y-52845D01*
X75752Y-52790D01*
X75710Y-52747D01*
X75654Y-52725D01*
X75647Y-52725D01*
X75595Y-52724D01*
X75045Y-52724D01*
X75029Y-52731D01*
X75029Y-52541D01*
X75052Y-52517D01*
X75077Y-52610D01*
X75274Y-52679D01*
X75482Y-52668D01*
X75622Y-52610D01*
X75647Y-52517D01*
X75350Y-52220D01*
X75344Y-52226D01*
X75273Y-52155D01*
X75279Y-52150D01*
X75273Y-52144D01*
X75344Y-52073D01*
X75350Y-52079D01*
X75647Y-51782D01*
X75622Y-51689D01*
X75425Y-51620D01*
X75217Y-51631D01*
X75077Y-51689D01*
X75052Y-51782D01*
X75029Y-51758D01*
X75029Y-51430D01*
X75108Y-51510D01*
X75265Y-51574D01*
X75434Y-51575D01*
X75590Y-51510D01*
X75710Y-51391D01*
X75774Y-51234D01*
X75775Y-51065D01*
X75710Y-50909D01*
X75591Y-50789D01*
X75434Y-50725D01*
X75265Y-50724D01*
X75109Y-50789D01*
X75029Y-50869D01*
X75029Y-50430D01*
X75108Y-50510D01*
X75265Y-50574D01*
X75434Y-50575D01*
X75590Y-50510D01*
X75710Y-50391D01*
X75774Y-50234D01*
X75775Y-50065D01*
X75710Y-49909D01*
X75591Y-49789D01*
X75434Y-49725D01*
X75265Y-49724D01*
X75109Y-49789D01*
X75029Y-49869D01*
X75029Y-48529D01*
X95670Y-48529D01*
X95670Y-66770D01*
M02*
