G04 (created by PCBNEW (2012-nov-02)-testing) date Mon 13 May 2013 11:36:40 AM CDT*
%MOIN*%
G04 Gerber Fmt 3.4, Leading zero omitted, Abs format*
%FSLAX34Y34*%
G01*
G70*
G90*
G04 APERTURE LIST*
%ADD10C,0.006*%
%ADD11C,0.00590551*%
%ADD12R,0.015X0.05*%
%ADD13R,0.144X0.08*%
%ADD14R,0.04X0.08*%
%ADD15R,0.06X0.08*%
%ADD16R,0.035X0.055*%
%ADD17R,0.055X0.055*%
%ADD18C,0.055*%
%ADD19R,0.06X0.06*%
%ADD20C,0.06*%
%ADD21R,0.05X0.015*%
%ADD22C,0.1*%
G04 APERTURE END LIST*
G54D10*
G54D11*
X95850Y-48350D02*
X95850Y-66950D01*
X74850Y-48350D02*
X74850Y-53650D01*
X95850Y-48350D02*
X74850Y-48350D01*
X78500Y-66950D02*
X95850Y-66950D01*
X78500Y-53650D02*
X78500Y-66950D01*
X74850Y-53650D02*
X78500Y-53650D01*
G54D12*
X80804Y-51952D03*
X81060Y-51952D03*
X81316Y-51952D03*
X81572Y-51952D03*
X81828Y-51952D03*
X82084Y-51952D03*
X82340Y-51952D03*
X82596Y-51952D03*
X82596Y-49748D03*
X82340Y-49748D03*
X82084Y-49748D03*
X81828Y-49748D03*
X81572Y-49748D03*
X81316Y-49748D03*
X81060Y-49748D03*
X80804Y-49748D03*
G54D13*
X93800Y-50000D03*
G54D14*
X93800Y-52600D03*
X94700Y-52600D03*
X92900Y-52600D03*
G54D15*
X93250Y-54350D03*
X94550Y-54350D03*
G54D16*
X86775Y-54350D03*
X86025Y-54350D03*
X86775Y-53350D03*
X86025Y-53350D03*
X86775Y-52350D03*
X86025Y-52350D03*
X88775Y-54350D03*
X88025Y-54350D03*
X88775Y-53350D03*
X88025Y-53350D03*
X88775Y-52350D03*
X88025Y-52350D03*
G54D17*
X75350Y-53150D03*
G54D18*
X75350Y-52150D03*
X75350Y-51150D03*
X75350Y-50150D03*
G54D17*
X79100Y-66350D03*
G54D18*
X79100Y-65350D03*
X79100Y-64350D03*
X79100Y-63350D03*
X79100Y-62350D03*
X79100Y-61350D03*
X79100Y-60350D03*
X79100Y-59350D03*
X79100Y-58350D03*
X79100Y-57350D03*
X79100Y-56350D03*
X79100Y-55350D03*
X79100Y-54350D03*
X79100Y-53350D03*
X79100Y-52350D03*
X79100Y-51350D03*
X79100Y-50350D03*
X79100Y-49350D03*
G54D19*
X81300Y-54500D03*
G54D20*
X81300Y-53500D03*
X82300Y-54500D03*
X82300Y-53500D03*
G54D21*
X86000Y-50566D03*
X86000Y-50822D03*
X86000Y-51078D03*
X86000Y-51334D03*
X87700Y-51334D03*
X87700Y-51078D03*
X87700Y-50822D03*
X87700Y-50566D03*
G54D22*
X87750Y-61050D03*
M02*
