G04 (created by PCBNEW (2012-nov-02)-testing) date Thu 06 Jun 2013 09:25:13 AM CDT*
%MOIN*%
G04 Gerber Fmt 3.4, Leading zero omitted, Abs format*
%FSLAX34Y34*%
G01*
G70*
G90*
G04 APERTURE LIST*
%ADD10C,0.006*%
%ADD11R,0.015X0.05*%
%ADD12R,0.144X0.08*%
%ADD13R,0.04X0.08*%
%ADD14R,0.06X0.08*%
%ADD15R,0.035X0.055*%
%ADD16R,0.05X0.015*%
G04 APERTURE END LIST*
G54D10*
G54D11*
X80804Y-51952D03*
X81060Y-51952D03*
X81316Y-51952D03*
X81572Y-51952D03*
X81828Y-51952D03*
X82084Y-51952D03*
X82340Y-51952D03*
X82596Y-51952D03*
X82596Y-49748D03*
X82340Y-49748D03*
X82084Y-49748D03*
X81828Y-49748D03*
X81572Y-49748D03*
X81316Y-49748D03*
X81060Y-49748D03*
X80804Y-49748D03*
G54D12*
X93800Y-50000D03*
G54D13*
X93800Y-52600D03*
X94700Y-52600D03*
X92900Y-52600D03*
G54D14*
X93250Y-54350D03*
X94550Y-54350D03*
G54D15*
X86775Y-54350D03*
X86025Y-54350D03*
X86775Y-53350D03*
X86025Y-53350D03*
X86775Y-52350D03*
X86025Y-52350D03*
X88775Y-54350D03*
X88025Y-54350D03*
X88775Y-53350D03*
X88025Y-53350D03*
X88775Y-52350D03*
X88025Y-52350D03*
G54D16*
X86000Y-50566D03*
X86000Y-50822D03*
X86000Y-51078D03*
X86000Y-51334D03*
X87700Y-51334D03*
X87700Y-51078D03*
X87700Y-50822D03*
X87700Y-50566D03*
M02*
