M48
;DRILL file {Pcbnew (2012-nov-02)-testing} date Mon 13 May 2013 11:36:43 AM CDT
;FORMAT={-:-/ absolute / inch / decimal}
FMAT,2
INCH,TZ
T1C0.025
T2C0.032
T3C0.040
T4C0.045
%
G90
G05
M72
T1
X8.02Y-4.915
X8.13Y-5.12
X8.255Y-5.085
X8.27Y-5.26
X8.355Y-4.985
X8.355Y-5.935
X8.535Y-5.065
X8.535Y-5.355
X8.675Y-5.885
X8.875Y-5.885
X8.89Y-5.04
X8.905Y-5.11
X8.98Y-5.26
X8.98Y-5.335
X8.98Y-5.41
X9.195Y-4.985
X9.195Y-5.635
X9.195Y-5.935
X9.215Y-4.925
X9.225Y-5.435
X9.26Y-5.365
T2
X7.535Y-5.015
X7.535Y-5.115
X7.535Y-5.215
X7.535Y-5.315
X7.91Y-4.935
X7.91Y-5.035
X7.91Y-5.135
X7.91Y-5.235
X7.91Y-5.335
X7.91Y-5.435
X7.91Y-5.535
X7.91Y-5.635
X7.91Y-5.735
X7.91Y-5.835
X7.91Y-5.935
X7.91Y-6.035
X7.91Y-6.135
X7.91Y-6.235
X7.91Y-6.335
X7.91Y-6.435
X7.91Y-6.535
X7.91Y-6.635
T3
X8.13Y-5.35
X8.13Y-5.45
X8.23Y-5.35
X8.23Y-5.45
T4
X8.775Y-6.105
T0
M30
