G04 (created by PCBNEW (2012-nov-02)-testing) date Wed 19 Jun 2013 11:23:59 AM CDT*
%MOIN*%
G04 Gerber Fmt 3.4, Leading zero omitted, Abs format*
%FSLAX34Y34*%
G01*
G70*
G90*
G04 APERTURE LIST*
%ADD10C,0.006*%
%ADD11C,0.00590551*%
%ADD12R,0.05X0.015*%
%ADD13R,0.144X0.08*%
%ADD14R,0.04X0.08*%
%ADD15R,0.06X0.08*%
%ADD16R,0.035X0.055*%
%ADD17R,0.055X0.055*%
%ADD18C,0.055*%
%ADD19R,0.06X0.06*%
%ADD20C,0.06*%
%ADD21C,0.1*%
%ADD22C,0.035*%
%ADD23C,0.01*%
%ADD24C,0.014*%
G04 APERTURE END LIST*
G54D10*
G54D11*
X95850Y-48350D02*
X95850Y-66950D01*
X74850Y-48350D02*
X74850Y-53650D01*
X95850Y-48350D02*
X74850Y-48350D01*
X78500Y-66950D02*
X95850Y-66950D01*
X78500Y-53650D02*
X78500Y-66950D01*
X74850Y-53650D02*
X78500Y-53650D01*
G54D12*
X82752Y-50846D03*
X82752Y-50590D03*
X82752Y-50334D03*
X82752Y-50078D03*
X82752Y-49822D03*
X82752Y-49566D03*
X82752Y-49310D03*
X82752Y-49054D03*
X80548Y-49054D03*
X80548Y-49310D03*
X80548Y-49566D03*
X80548Y-49822D03*
X80548Y-50078D03*
X80548Y-50334D03*
X80548Y-50590D03*
X80548Y-50846D03*
G54D13*
X93800Y-50000D03*
G54D14*
X93800Y-52600D03*
X94700Y-52600D03*
X92900Y-52600D03*
G54D15*
X94300Y-54220D03*
X93000Y-54220D03*
G54D16*
X86985Y-54450D03*
X86235Y-54450D03*
X86985Y-53350D03*
X86235Y-53350D03*
X86985Y-52250D03*
X86235Y-52250D03*
X89235Y-54450D03*
X88485Y-54450D03*
X89235Y-53350D03*
X88485Y-53350D03*
X89235Y-52250D03*
X88485Y-52250D03*
G54D17*
X75350Y-53150D03*
G54D18*
X75350Y-52150D03*
X75350Y-51150D03*
X75350Y-50150D03*
G54D17*
X79100Y-66350D03*
G54D18*
X79100Y-65350D03*
X79100Y-64350D03*
X79100Y-63350D03*
X79100Y-62350D03*
X79100Y-61350D03*
X79100Y-60350D03*
X79100Y-59350D03*
X79100Y-58350D03*
X79100Y-57350D03*
X79100Y-56350D03*
X79100Y-55350D03*
X79100Y-54350D03*
X79100Y-53350D03*
X79100Y-52350D03*
X79100Y-51350D03*
X79100Y-50350D03*
X79100Y-49350D03*
G54D19*
X82140Y-53570D03*
G54D20*
X82140Y-54570D03*
X81140Y-53570D03*
X81140Y-54570D03*
G54D21*
X87750Y-61050D03*
G54D16*
X76975Y-50550D03*
X77725Y-50550D03*
X76975Y-49450D03*
X77725Y-49450D03*
X77725Y-51650D03*
X76975Y-51650D03*
X77725Y-52750D03*
X76975Y-52750D03*
X86985Y-51150D03*
X86235Y-51150D03*
X89235Y-51150D03*
X88485Y-51150D03*
G54D22*
X92320Y-54880D03*
X88250Y-50380D03*
X93460Y-53390D03*
X81210Y-50590D03*
X89990Y-51260D03*
X80080Y-52460D03*
X81830Y-51660D03*
X83160Y-53160D03*
X83420Y-50850D03*
X79900Y-50690D03*
X83420Y-50340D03*
X81960Y-52430D03*
X83570Y-49850D03*
X91930Y-49850D03*
X91930Y-56350D03*
X83570Y-53850D03*
X83570Y-59350D03*
X91930Y-59350D03*
X86750Y-58870D03*
X88750Y-58870D03*
X89990Y-54050D03*
X89990Y-53350D03*
X89990Y-52650D03*
G54D23*
X82752Y-49054D02*
X82266Y-49054D01*
X82240Y-50590D02*
X82752Y-50590D01*
X82040Y-50390D02*
X82240Y-50590D01*
X82040Y-49280D02*
X82040Y-50390D01*
X82266Y-49054D02*
X82040Y-49280D01*
X87440Y-50380D02*
X86114Y-49054D01*
X86114Y-49054D02*
X82752Y-49054D01*
X94300Y-54220D02*
X94300Y-55000D01*
X92700Y-55260D02*
X92320Y-54880D01*
X94040Y-55260D02*
X92700Y-55260D01*
X94300Y-55000D02*
X94040Y-55260D01*
X94300Y-54220D02*
X94300Y-53780D01*
X94700Y-53380D02*
X94700Y-52600D01*
X94300Y-53780D02*
X94700Y-53380D01*
X88250Y-50380D02*
X92560Y-50380D01*
X94700Y-51730D02*
X94700Y-52600D01*
X94190Y-51220D02*
X94700Y-51730D01*
X93400Y-51220D02*
X94190Y-51220D01*
X92560Y-50380D02*
X93400Y-51220D01*
X86985Y-51150D02*
X86985Y-50835D01*
X86985Y-50835D02*
X87440Y-50380D01*
X87440Y-50380D02*
X88250Y-50380D01*
X92900Y-52600D02*
X92900Y-53100D01*
X93190Y-53390D02*
X93460Y-53390D01*
X92900Y-53100D02*
X93190Y-53390D01*
X81210Y-50590D02*
X80548Y-50590D01*
X81140Y-54570D02*
X81140Y-54560D01*
X89235Y-51575D02*
X89235Y-51150D01*
X89110Y-51700D02*
X89235Y-51575D01*
X85160Y-51700D02*
X89110Y-51700D01*
X82820Y-54040D02*
X85160Y-51700D01*
X81660Y-54040D02*
X82820Y-54040D01*
X81140Y-54560D02*
X81660Y-54040D01*
X89235Y-51150D02*
X89880Y-51150D01*
X89880Y-51150D02*
X89990Y-51260D01*
X77725Y-52750D02*
X78620Y-52750D01*
X79710Y-52830D02*
X80080Y-52460D01*
X78700Y-52830D02*
X79710Y-52830D01*
X78620Y-52750D02*
X78700Y-52830D01*
X76975Y-51650D02*
X76980Y-51655D01*
X77725Y-52305D02*
X77725Y-52750D01*
X77590Y-52170D02*
X77725Y-52305D01*
X77110Y-52170D02*
X77590Y-52170D01*
X76980Y-52040D02*
X77110Y-52170D01*
X76980Y-51655D02*
X76980Y-52040D01*
X77725Y-51650D02*
X78070Y-51650D01*
X78770Y-52350D02*
X79100Y-52350D01*
X78070Y-51650D02*
X78770Y-52350D01*
X79100Y-51350D02*
X78470Y-51350D01*
X76975Y-50925D02*
X76975Y-50550D01*
X77140Y-51090D02*
X76975Y-50925D01*
X78210Y-51090D02*
X77140Y-51090D01*
X78470Y-51350D02*
X78210Y-51090D01*
X77725Y-50550D02*
X78320Y-50550D01*
X80310Y-51660D02*
X81830Y-51660D01*
X79510Y-50860D02*
X80310Y-51660D01*
X78630Y-50860D02*
X79510Y-50860D01*
X78320Y-50550D02*
X78630Y-50860D01*
X76975Y-49450D02*
X76975Y-49795D01*
X77725Y-50145D02*
X77725Y-50550D01*
X77580Y-50000D02*
X77725Y-50145D01*
X77180Y-50000D02*
X77580Y-50000D01*
X76975Y-49795D02*
X77180Y-50000D01*
X85170Y-51150D02*
X86235Y-51150D01*
X83160Y-53160D02*
X85170Y-51150D01*
X82752Y-50846D02*
X83416Y-50846D01*
X83416Y-50846D02*
X83420Y-50850D01*
X79900Y-50690D02*
X80056Y-50846D01*
X80056Y-50846D02*
X80548Y-50846D01*
X82752Y-50334D02*
X83414Y-50334D01*
X83414Y-50334D02*
X83420Y-50340D01*
X79100Y-50350D02*
X80532Y-50350D01*
X80532Y-50350D02*
X80548Y-50334D01*
X89235Y-54450D02*
X89590Y-54450D01*
X89590Y-54450D02*
X89990Y-54050D01*
G54D24*
X89235Y-53350D02*
X89990Y-53350D01*
G54D23*
X86985Y-52250D02*
X88485Y-52250D01*
X86985Y-53350D02*
X88485Y-53350D01*
X86985Y-54450D02*
X88485Y-54450D01*
X89235Y-52250D02*
X89590Y-52250D01*
X89590Y-52250D02*
X89990Y-52650D01*
G54D10*
G36*
X95670Y-66770D02*
X95050Y-66770D01*
X95050Y-52970D01*
X95050Y-52170D01*
X95027Y-52115D01*
X94985Y-52072D01*
X94929Y-52050D01*
X94900Y-52049D01*
X94900Y-51730D01*
X94887Y-51666D01*
X94884Y-51653D01*
X94884Y-51653D01*
X94841Y-51588D01*
X94770Y-51517D01*
X94770Y-50350D01*
X94770Y-49649D01*
X94769Y-49550D01*
X94731Y-49458D01*
X94661Y-49387D01*
X94569Y-49349D01*
X93912Y-49350D01*
X93850Y-49412D01*
X93850Y-49950D01*
X94707Y-49950D01*
X94770Y-49887D01*
X94770Y-49649D01*
X94770Y-50350D01*
X94770Y-50112D01*
X94707Y-50050D01*
X93850Y-50050D01*
X93850Y-50587D01*
X93912Y-50650D01*
X94569Y-50650D01*
X94661Y-50612D01*
X94731Y-50541D01*
X94769Y-50449D01*
X94770Y-50350D01*
X94770Y-51517D01*
X94331Y-51078D01*
X94266Y-51035D01*
X94190Y-51020D01*
X93482Y-51020D01*
X93112Y-50650D01*
X93687Y-50650D01*
X93750Y-50587D01*
X93750Y-50050D01*
X93750Y-49950D01*
X93750Y-49412D01*
X93687Y-49350D01*
X93030Y-49349D01*
X92938Y-49387D01*
X92868Y-49458D01*
X92830Y-49550D01*
X92829Y-49649D01*
X92830Y-49887D01*
X92892Y-49950D01*
X93750Y-49950D01*
X93750Y-50050D01*
X92892Y-50050D01*
X92830Y-50112D01*
X92829Y-50350D01*
X92829Y-50367D01*
X92701Y-50238D01*
X92636Y-50195D01*
X92560Y-50180D01*
X88509Y-50180D01*
X88434Y-50104D01*
X88314Y-50055D01*
X88185Y-50054D01*
X88066Y-50104D01*
X87990Y-50180D01*
X87522Y-50180D01*
X86255Y-48912D01*
X86190Y-48869D01*
X86114Y-48854D01*
X83089Y-48854D01*
X83087Y-48851D01*
X83031Y-48829D01*
X82972Y-48828D01*
X82472Y-48828D01*
X82417Y-48851D01*
X82414Y-48854D01*
X82266Y-48854D01*
X82189Y-48869D01*
X82124Y-48912D01*
X81898Y-49138D01*
X81855Y-49203D01*
X81840Y-49280D01*
X81840Y-50390D01*
X81855Y-50466D01*
X81898Y-50531D01*
X82098Y-50731D01*
X82098Y-50731D01*
X82141Y-50760D01*
X82163Y-50774D01*
X82163Y-50774D01*
X82240Y-50790D01*
X82351Y-50790D01*
X82351Y-50800D01*
X82351Y-50950D01*
X82374Y-51005D01*
X82416Y-51048D01*
X82472Y-51070D01*
X82531Y-51071D01*
X83031Y-51071D01*
X83086Y-51048D01*
X83089Y-51046D01*
X83156Y-51046D01*
X83235Y-51125D01*
X83355Y-51174D01*
X83484Y-51175D01*
X83603Y-51125D01*
X83695Y-51034D01*
X83744Y-50914D01*
X83745Y-50785D01*
X83695Y-50666D01*
X83624Y-50594D01*
X83695Y-50524D01*
X83744Y-50404D01*
X83745Y-50275D01*
X83695Y-50156D01*
X83604Y-50064D01*
X83484Y-50015D01*
X83355Y-50014D01*
X83236Y-50064D01*
X83166Y-50134D01*
X83152Y-50134D01*
X83152Y-50123D01*
X83152Y-49973D01*
X83142Y-49950D01*
X83151Y-49926D01*
X83152Y-49867D01*
X83152Y-49717D01*
X83142Y-49694D01*
X83151Y-49670D01*
X83152Y-49611D01*
X83152Y-49461D01*
X83142Y-49438D01*
X83151Y-49414D01*
X83152Y-49355D01*
X83152Y-49254D01*
X86031Y-49254D01*
X87157Y-50380D01*
X86843Y-50693D01*
X86822Y-50724D01*
X86780Y-50724D01*
X86725Y-50747D01*
X86682Y-50789D01*
X86660Y-50845D01*
X86659Y-50904D01*
X86659Y-51454D01*
X86678Y-51500D01*
X86541Y-51500D01*
X86559Y-51454D01*
X86560Y-51395D01*
X86560Y-50845D01*
X86537Y-50790D01*
X86495Y-50747D01*
X86439Y-50725D01*
X86380Y-50724D01*
X86030Y-50724D01*
X85975Y-50747D01*
X85932Y-50789D01*
X85910Y-50845D01*
X85909Y-50904D01*
X85909Y-50950D01*
X85170Y-50950D01*
X85093Y-50965D01*
X85071Y-50979D01*
X85028Y-51008D01*
X83202Y-52835D01*
X83095Y-52834D01*
X82976Y-52884D01*
X82884Y-52975D01*
X82835Y-53095D01*
X82834Y-53224D01*
X82884Y-53343D01*
X82975Y-53435D01*
X83093Y-53484D01*
X82737Y-53840D01*
X82590Y-53840D01*
X82590Y-53240D01*
X82567Y-53185D01*
X82525Y-53142D01*
X82469Y-53120D01*
X82410Y-53119D01*
X82155Y-53119D01*
X82155Y-51595D01*
X82105Y-51476D01*
X82014Y-51384D01*
X81894Y-51335D01*
X81765Y-51334D01*
X81646Y-51384D01*
X81570Y-51460D01*
X80392Y-51460D01*
X79947Y-51015D01*
X79955Y-51015D01*
X79957Y-51016D01*
X79979Y-51030D01*
X79979Y-51030D01*
X80055Y-51045D01*
X80056Y-51046D01*
X80210Y-51046D01*
X80212Y-51048D01*
X80268Y-51070D01*
X80327Y-51071D01*
X80827Y-51071D01*
X80882Y-51048D01*
X80925Y-51006D01*
X80947Y-50950D01*
X80948Y-50891D01*
X80948Y-50790D01*
X80950Y-50790D01*
X81025Y-50865D01*
X81145Y-50914D01*
X81274Y-50915D01*
X81393Y-50865D01*
X81485Y-50774D01*
X81534Y-50654D01*
X81535Y-50525D01*
X81485Y-50406D01*
X81394Y-50314D01*
X81274Y-50265D01*
X81145Y-50264D01*
X81026Y-50314D01*
X80950Y-50390D01*
X80948Y-50390D01*
X80948Y-50379D01*
X80948Y-50229D01*
X80938Y-50206D01*
X80947Y-50182D01*
X80948Y-50123D01*
X80948Y-49973D01*
X80938Y-49950D01*
X80947Y-49926D01*
X80948Y-49867D01*
X80948Y-49717D01*
X80938Y-49694D01*
X80947Y-49670D01*
X80948Y-49611D01*
X80948Y-49461D01*
X80938Y-49438D01*
X80947Y-49414D01*
X80948Y-49355D01*
X80948Y-49332D01*
X81010Y-49270D01*
X81048Y-49178D01*
X81048Y-48929D01*
X81010Y-48837D01*
X80939Y-48767D01*
X80847Y-48729D01*
X80748Y-48728D01*
X80660Y-48729D01*
X80598Y-48791D01*
X80598Y-49016D01*
X80985Y-49016D01*
X81048Y-48954D01*
X81048Y-48929D01*
X81048Y-49178D01*
X81048Y-49154D01*
X80985Y-49091D01*
X80843Y-49091D01*
X80827Y-49085D01*
X80768Y-49084D01*
X80498Y-49084D01*
X80498Y-49016D01*
X80498Y-48791D01*
X80435Y-48729D01*
X80347Y-48728D01*
X80248Y-48729D01*
X80156Y-48767D01*
X80085Y-48837D01*
X80047Y-48929D01*
X80048Y-48954D01*
X80110Y-49016D01*
X80498Y-49016D01*
X80498Y-49084D01*
X80268Y-49084D01*
X80252Y-49091D01*
X80110Y-49091D01*
X80048Y-49154D01*
X80047Y-49178D01*
X80085Y-49270D01*
X80147Y-49332D01*
X80147Y-49414D01*
X80157Y-49437D01*
X80148Y-49461D01*
X80147Y-49520D01*
X80147Y-49670D01*
X80157Y-49693D01*
X80148Y-49717D01*
X80147Y-49776D01*
X80147Y-49926D01*
X80157Y-49949D01*
X80148Y-49973D01*
X80147Y-50032D01*
X80147Y-50150D01*
X79525Y-50150D01*
X79525Y-49265D01*
X79460Y-49109D01*
X79341Y-48989D01*
X79184Y-48925D01*
X79015Y-48924D01*
X78859Y-48989D01*
X78739Y-49108D01*
X78675Y-49265D01*
X78674Y-49434D01*
X78739Y-49590D01*
X78858Y-49710D01*
X79015Y-49774D01*
X79184Y-49775D01*
X79340Y-49710D01*
X79460Y-49591D01*
X79524Y-49434D01*
X79525Y-49265D01*
X79525Y-50150D01*
X79477Y-50150D01*
X79460Y-50109D01*
X79341Y-49989D01*
X79184Y-49925D01*
X79015Y-49924D01*
X78859Y-49989D01*
X78739Y-50108D01*
X78675Y-50265D01*
X78674Y-50434D01*
X78739Y-50590D01*
X78808Y-50660D01*
X78712Y-50660D01*
X78461Y-50408D01*
X78396Y-50365D01*
X78320Y-50350D01*
X78050Y-50350D01*
X78050Y-50245D01*
X78027Y-50190D01*
X77985Y-50147D01*
X77929Y-50125D01*
X77921Y-50125D01*
X77909Y-50068D01*
X77909Y-50068D01*
X77895Y-50046D01*
X77866Y-50003D01*
X77866Y-50003D01*
X77837Y-49975D01*
X77949Y-49975D01*
X78041Y-49937D01*
X78111Y-49866D01*
X78149Y-49774D01*
X78150Y-49675D01*
X78150Y-49224D01*
X78149Y-49125D01*
X78111Y-49033D01*
X78041Y-48962D01*
X77949Y-48924D01*
X77837Y-48925D01*
X77775Y-48987D01*
X77775Y-49400D01*
X78087Y-49400D01*
X78150Y-49337D01*
X78150Y-49224D01*
X78150Y-49675D01*
X78150Y-49562D01*
X78087Y-49500D01*
X77775Y-49500D01*
X77775Y-49507D01*
X77675Y-49507D01*
X77675Y-49500D01*
X77667Y-49500D01*
X77667Y-49400D01*
X77675Y-49400D01*
X77675Y-48987D01*
X77612Y-48925D01*
X77500Y-48924D01*
X77408Y-48962D01*
X77338Y-49033D01*
X77300Y-49125D01*
X77300Y-49145D01*
X77277Y-49090D01*
X77235Y-49047D01*
X77179Y-49025D01*
X77120Y-49024D01*
X76770Y-49024D01*
X76715Y-49047D01*
X76672Y-49089D01*
X76650Y-49145D01*
X76649Y-49204D01*
X76649Y-49754D01*
X76672Y-49809D01*
X76714Y-49852D01*
X76770Y-49874D01*
X76792Y-49874D01*
X76833Y-49936D01*
X77022Y-50124D01*
X76770Y-50124D01*
X76715Y-50147D01*
X76672Y-50189D01*
X76650Y-50245D01*
X76649Y-50304D01*
X76649Y-50854D01*
X76672Y-50909D01*
X76714Y-50952D01*
X76770Y-50974D01*
X76784Y-50974D01*
X76790Y-51001D01*
X76833Y-51066D01*
X76992Y-51224D01*
X76770Y-51224D01*
X76715Y-51247D01*
X76672Y-51289D01*
X76650Y-51345D01*
X76649Y-51404D01*
X76649Y-51954D01*
X76672Y-52009D01*
X76714Y-52052D01*
X76770Y-52074D01*
X76786Y-52074D01*
X76795Y-52116D01*
X76838Y-52181D01*
X76924Y-52267D01*
X76924Y-52287D01*
X76862Y-52225D01*
X76750Y-52224D01*
X76658Y-52262D01*
X76588Y-52333D01*
X76550Y-52425D01*
X76549Y-52524D01*
X76550Y-52637D01*
X76612Y-52700D01*
X76925Y-52700D01*
X76925Y-52692D01*
X77025Y-52692D01*
X77025Y-52700D01*
X77032Y-52700D01*
X77032Y-52800D01*
X77025Y-52800D01*
X77025Y-53212D01*
X77087Y-53275D01*
X77199Y-53275D01*
X77291Y-53237D01*
X77361Y-53166D01*
X77399Y-53074D01*
X77399Y-53054D01*
X77399Y-53054D01*
X77422Y-53109D01*
X77464Y-53152D01*
X77520Y-53174D01*
X77579Y-53175D01*
X77929Y-53175D01*
X77984Y-53152D01*
X78027Y-53110D01*
X78049Y-53054D01*
X78050Y-52995D01*
X78050Y-52950D01*
X78537Y-52950D01*
X78558Y-52971D01*
X78623Y-53014D01*
X78623Y-53014D01*
X78700Y-53030D01*
X78818Y-53030D01*
X78739Y-53108D01*
X78675Y-53265D01*
X78674Y-53434D01*
X78739Y-53590D01*
X78858Y-53710D01*
X79015Y-53774D01*
X79184Y-53775D01*
X79340Y-53710D01*
X79460Y-53591D01*
X79524Y-53434D01*
X79525Y-53265D01*
X79460Y-53109D01*
X79381Y-53030D01*
X79710Y-53030D01*
X79786Y-53014D01*
X79851Y-52971D01*
X80037Y-52784D01*
X80144Y-52785D01*
X80263Y-52735D01*
X80355Y-52644D01*
X80404Y-52524D01*
X80405Y-52395D01*
X80355Y-52276D01*
X80264Y-52184D01*
X80144Y-52135D01*
X80015Y-52134D01*
X79896Y-52184D01*
X79804Y-52275D01*
X79755Y-52395D01*
X79754Y-52502D01*
X79627Y-52630D01*
X79421Y-52630D01*
X79460Y-52591D01*
X79524Y-52434D01*
X79525Y-52265D01*
X79460Y-52109D01*
X79341Y-51989D01*
X79184Y-51925D01*
X79015Y-51924D01*
X78859Y-51989D01*
X78775Y-52073D01*
X78211Y-51508D01*
X78146Y-51465D01*
X78070Y-51450D01*
X78050Y-51450D01*
X78050Y-51345D01*
X78027Y-51290D01*
X78027Y-51290D01*
X78127Y-51290D01*
X78328Y-51491D01*
X78328Y-51491D01*
X78371Y-51520D01*
X78393Y-51534D01*
X78393Y-51534D01*
X78470Y-51550D01*
X78722Y-51550D01*
X78739Y-51590D01*
X78858Y-51710D01*
X79015Y-51774D01*
X79184Y-51775D01*
X79340Y-51710D01*
X79460Y-51591D01*
X79524Y-51434D01*
X79525Y-51265D01*
X79460Y-51109D01*
X79411Y-51060D01*
X79427Y-51060D01*
X80168Y-51801D01*
X80168Y-51801D01*
X80211Y-51830D01*
X80233Y-51844D01*
X80233Y-51844D01*
X80309Y-51859D01*
X80310Y-51860D01*
X81570Y-51860D01*
X81645Y-51935D01*
X81765Y-51984D01*
X81894Y-51985D01*
X82013Y-51935D01*
X82105Y-51844D01*
X82154Y-51724D01*
X82155Y-51595D01*
X82155Y-53119D01*
X81810Y-53119D01*
X81755Y-53142D01*
X81712Y-53184D01*
X81690Y-53240D01*
X81689Y-53299D01*
X81689Y-53840D01*
X81660Y-53840D01*
X81596Y-53852D01*
X81590Y-53853D01*
X81590Y-53480D01*
X81521Y-53315D01*
X81395Y-53188D01*
X81229Y-53120D01*
X81050Y-53119D01*
X80885Y-53188D01*
X80758Y-53314D01*
X80690Y-53480D01*
X80689Y-53659D01*
X80758Y-53824D01*
X80884Y-53951D01*
X81050Y-54019D01*
X81229Y-54020D01*
X81394Y-53951D01*
X81521Y-53825D01*
X81589Y-53659D01*
X81590Y-53480D01*
X81590Y-53853D01*
X81583Y-53855D01*
X81518Y-53898D01*
X81277Y-54139D01*
X81229Y-54120D01*
X81050Y-54119D01*
X80885Y-54188D01*
X80758Y-54314D01*
X80690Y-54480D01*
X80689Y-54659D01*
X80758Y-54824D01*
X80884Y-54951D01*
X81050Y-55019D01*
X81229Y-55020D01*
X81394Y-54951D01*
X81521Y-54825D01*
X81589Y-54659D01*
X81590Y-54480D01*
X81564Y-54418D01*
X81742Y-54240D01*
X81833Y-54240D01*
X81758Y-54314D01*
X81690Y-54480D01*
X81689Y-54659D01*
X81758Y-54824D01*
X81884Y-54951D01*
X82050Y-55019D01*
X82229Y-55020D01*
X82394Y-54951D01*
X82521Y-54825D01*
X82589Y-54659D01*
X82590Y-54480D01*
X82521Y-54315D01*
X82446Y-54240D01*
X82820Y-54240D01*
X82896Y-54224D01*
X82961Y-54181D01*
X85242Y-51900D01*
X85820Y-51900D01*
X85810Y-51925D01*
X85809Y-52024D01*
X85810Y-52137D01*
X85872Y-52200D01*
X86185Y-52200D01*
X86185Y-52192D01*
X86285Y-52192D01*
X86285Y-52200D01*
X86292Y-52200D01*
X86292Y-52300D01*
X86285Y-52300D01*
X86285Y-52712D01*
X86347Y-52775D01*
X86459Y-52775D01*
X86551Y-52737D01*
X86621Y-52666D01*
X86659Y-52574D01*
X86659Y-52554D01*
X86659Y-52554D01*
X86682Y-52609D01*
X86724Y-52652D01*
X86780Y-52674D01*
X86839Y-52675D01*
X87189Y-52675D01*
X87244Y-52652D01*
X87287Y-52610D01*
X87309Y-52554D01*
X87310Y-52495D01*
X87310Y-52450D01*
X88159Y-52450D01*
X88159Y-52554D01*
X88182Y-52609D01*
X88224Y-52652D01*
X88280Y-52674D01*
X88339Y-52675D01*
X88689Y-52675D01*
X88744Y-52652D01*
X88787Y-52610D01*
X88809Y-52554D01*
X88810Y-52495D01*
X88810Y-51945D01*
X88791Y-51900D01*
X88928Y-51900D01*
X88910Y-51945D01*
X88909Y-52004D01*
X88909Y-52554D01*
X88932Y-52609D01*
X88974Y-52652D01*
X89030Y-52674D01*
X89089Y-52675D01*
X89439Y-52675D01*
X89494Y-52652D01*
X89537Y-52610D01*
X89559Y-52554D01*
X89560Y-52502D01*
X89665Y-52607D01*
X89664Y-52714D01*
X89714Y-52833D01*
X89805Y-52925D01*
X89925Y-52974D01*
X90054Y-52975D01*
X90173Y-52925D01*
X90265Y-52834D01*
X90314Y-52714D01*
X90315Y-52585D01*
X90265Y-52466D01*
X90174Y-52374D01*
X90054Y-52325D01*
X89947Y-52324D01*
X89731Y-52108D01*
X89666Y-52065D01*
X89590Y-52050D01*
X89560Y-52050D01*
X89560Y-51945D01*
X89537Y-51890D01*
X89495Y-51847D01*
X89439Y-51825D01*
X89380Y-51824D01*
X89267Y-51824D01*
X89376Y-51716D01*
X89376Y-51716D01*
X89405Y-51673D01*
X89419Y-51651D01*
X89419Y-51651D01*
X89434Y-51575D01*
X89439Y-51575D01*
X89494Y-51552D01*
X89537Y-51510D01*
X89559Y-51454D01*
X89560Y-51395D01*
X89560Y-51350D01*
X89675Y-51350D01*
X89714Y-51443D01*
X89805Y-51535D01*
X89925Y-51584D01*
X90054Y-51585D01*
X90173Y-51535D01*
X90265Y-51444D01*
X90314Y-51324D01*
X90315Y-51195D01*
X90265Y-51076D01*
X90174Y-50984D01*
X90054Y-50935D01*
X89925Y-50934D01*
X89886Y-50951D01*
X89880Y-50950D01*
X89560Y-50950D01*
X89560Y-50845D01*
X89537Y-50790D01*
X89495Y-50747D01*
X89439Y-50725D01*
X89380Y-50724D01*
X89030Y-50724D01*
X88975Y-50747D01*
X88932Y-50789D01*
X88910Y-50845D01*
X88909Y-50874D01*
X88909Y-50825D01*
X88871Y-50733D01*
X88801Y-50662D01*
X88709Y-50624D01*
X88597Y-50625D01*
X88535Y-50687D01*
X88535Y-51100D01*
X88542Y-51100D01*
X88542Y-51200D01*
X88535Y-51200D01*
X88535Y-51207D01*
X88435Y-51207D01*
X88435Y-51200D01*
X88122Y-51200D01*
X88060Y-51262D01*
X88059Y-51375D01*
X88060Y-51474D01*
X88070Y-51500D01*
X87291Y-51500D01*
X87309Y-51454D01*
X87310Y-51395D01*
X87310Y-50845D01*
X87294Y-50808D01*
X87522Y-50580D01*
X87990Y-50580D01*
X88065Y-50655D01*
X88143Y-50687D01*
X88098Y-50733D01*
X88060Y-50825D01*
X88059Y-50924D01*
X88060Y-51037D01*
X88122Y-51100D01*
X88435Y-51100D01*
X88435Y-50687D01*
X88412Y-50664D01*
X88433Y-50655D01*
X88509Y-50580D01*
X92477Y-50580D01*
X93258Y-51361D01*
X93323Y-51404D01*
X93400Y-51420D01*
X94107Y-51420D01*
X94500Y-51812D01*
X94500Y-52049D01*
X94470Y-52049D01*
X94415Y-52072D01*
X94372Y-52114D01*
X94350Y-52170D01*
X94349Y-52229D01*
X94349Y-53029D01*
X94372Y-53084D01*
X94414Y-53127D01*
X94470Y-53149D01*
X94500Y-53150D01*
X94500Y-53297D01*
X94250Y-53547D01*
X94250Y-52950D01*
X94250Y-52249D01*
X94249Y-52150D01*
X94211Y-52058D01*
X94141Y-51987D01*
X94049Y-51949D01*
X93912Y-51950D01*
X93850Y-52012D01*
X93850Y-52550D01*
X94187Y-52550D01*
X94250Y-52487D01*
X94250Y-52249D01*
X94250Y-52950D01*
X94250Y-52712D01*
X94187Y-52650D01*
X93850Y-52650D01*
X93850Y-53187D01*
X93912Y-53250D01*
X94049Y-53250D01*
X94141Y-53212D01*
X94211Y-53141D01*
X94249Y-53049D01*
X94250Y-52950D01*
X94250Y-53547D01*
X94158Y-53638D01*
X94137Y-53669D01*
X93970Y-53669D01*
X93915Y-53692D01*
X93872Y-53734D01*
X93850Y-53790D01*
X93849Y-53849D01*
X93849Y-54649D01*
X93872Y-54704D01*
X93914Y-54747D01*
X93970Y-54769D01*
X94029Y-54770D01*
X94100Y-54770D01*
X94100Y-54917D01*
X93957Y-55060D01*
X93785Y-55060D01*
X93785Y-53325D01*
X93735Y-53206D01*
X93733Y-53203D01*
X93750Y-53187D01*
X93750Y-52650D01*
X93750Y-52550D01*
X93750Y-52012D01*
X93687Y-51950D01*
X93550Y-51949D01*
X93458Y-51987D01*
X93388Y-52058D01*
X93350Y-52150D01*
X93349Y-52249D01*
X93350Y-52487D01*
X93412Y-52550D01*
X93750Y-52550D01*
X93750Y-52650D01*
X93412Y-52650D01*
X93350Y-52712D01*
X93349Y-52950D01*
X93350Y-53049D01*
X93362Y-53078D01*
X93276Y-53114D01*
X93236Y-53153D01*
X93197Y-53114D01*
X93227Y-53085D01*
X93249Y-53029D01*
X93250Y-52970D01*
X93250Y-52170D01*
X93227Y-52115D01*
X93185Y-52072D01*
X93129Y-52050D01*
X93070Y-52049D01*
X92670Y-52049D01*
X92615Y-52072D01*
X92572Y-52114D01*
X92550Y-52170D01*
X92549Y-52229D01*
X92549Y-53029D01*
X92572Y-53084D01*
X92614Y-53127D01*
X92670Y-53149D01*
X92709Y-53150D01*
X92715Y-53176D01*
X92758Y-53241D01*
X93048Y-53531D01*
X93048Y-53531D01*
X93091Y-53560D01*
X93110Y-53572D01*
X93050Y-53632D01*
X93050Y-54170D01*
X93487Y-54170D01*
X93550Y-54107D01*
X93550Y-53869D01*
X93549Y-53770D01*
X93526Y-53714D01*
X93643Y-53665D01*
X93735Y-53574D01*
X93784Y-53454D01*
X93785Y-53325D01*
X93785Y-55060D01*
X93550Y-55060D01*
X93550Y-54570D01*
X93550Y-54332D01*
X93487Y-54270D01*
X93050Y-54270D01*
X93050Y-54807D01*
X93112Y-54870D01*
X93349Y-54870D01*
X93441Y-54832D01*
X93511Y-54761D01*
X93549Y-54669D01*
X93550Y-54570D01*
X93550Y-55060D01*
X92782Y-55060D01*
X92644Y-54922D01*
X92645Y-54867D01*
X92650Y-54870D01*
X92887Y-54870D01*
X92950Y-54807D01*
X92950Y-54270D01*
X92950Y-54170D01*
X92950Y-53632D01*
X92887Y-53570D01*
X92650Y-53569D01*
X92558Y-53607D01*
X92488Y-53678D01*
X92450Y-53770D01*
X92449Y-53869D01*
X92450Y-54107D01*
X92512Y-54170D01*
X92950Y-54170D01*
X92950Y-54270D01*
X92512Y-54270D01*
X92450Y-54332D01*
X92449Y-54570D01*
X92449Y-54582D01*
X92384Y-54555D01*
X92255Y-54554D01*
X92136Y-54604D01*
X92044Y-54695D01*
X91995Y-54815D01*
X91994Y-54944D01*
X92044Y-55063D01*
X92135Y-55155D01*
X92255Y-55204D01*
X92362Y-55205D01*
X92558Y-55401D01*
X92558Y-55401D01*
X92601Y-55430D01*
X92623Y-55444D01*
X92623Y-55444D01*
X92699Y-55459D01*
X92700Y-55460D01*
X94040Y-55460D01*
X94116Y-55444D01*
X94181Y-55401D01*
X94441Y-55141D01*
X94441Y-55141D01*
X94470Y-55098D01*
X94484Y-55076D01*
X94484Y-55076D01*
X94499Y-55000D01*
X94500Y-55000D01*
X94500Y-54770D01*
X94629Y-54770D01*
X94684Y-54747D01*
X94727Y-54705D01*
X94749Y-54649D01*
X94750Y-54590D01*
X94750Y-53790D01*
X94727Y-53735D01*
X94685Y-53692D01*
X94674Y-53688D01*
X94841Y-53521D01*
X94841Y-53521D01*
X94870Y-53478D01*
X94884Y-53456D01*
X94884Y-53456D01*
X94899Y-53380D01*
X94900Y-53380D01*
X94900Y-53150D01*
X94929Y-53150D01*
X94984Y-53127D01*
X95027Y-53085D01*
X95049Y-53029D01*
X95050Y-52970D01*
X95050Y-66770D01*
X90315Y-66770D01*
X90315Y-53985D01*
X90315Y-53285D01*
X90265Y-53166D01*
X90174Y-53074D01*
X90054Y-53025D01*
X89925Y-53024D01*
X89806Y-53074D01*
X89750Y-53130D01*
X89560Y-53130D01*
X89560Y-53045D01*
X89537Y-52990D01*
X89495Y-52947D01*
X89439Y-52925D01*
X89380Y-52924D01*
X89030Y-52924D01*
X88975Y-52947D01*
X88932Y-52989D01*
X88910Y-53045D01*
X88909Y-53104D01*
X88909Y-53654D01*
X88932Y-53709D01*
X88974Y-53752D01*
X89030Y-53774D01*
X89089Y-53775D01*
X89439Y-53775D01*
X89494Y-53752D01*
X89537Y-53710D01*
X89559Y-53654D01*
X89560Y-53595D01*
X89560Y-53570D01*
X89750Y-53570D01*
X89805Y-53625D01*
X89925Y-53674D01*
X90054Y-53675D01*
X90173Y-53625D01*
X90265Y-53534D01*
X90314Y-53414D01*
X90315Y-53285D01*
X90315Y-53985D01*
X90265Y-53866D01*
X90174Y-53774D01*
X90054Y-53725D01*
X89925Y-53724D01*
X89806Y-53774D01*
X89714Y-53865D01*
X89665Y-53985D01*
X89664Y-54092D01*
X89560Y-54197D01*
X89560Y-54145D01*
X89537Y-54090D01*
X89495Y-54047D01*
X89439Y-54025D01*
X89380Y-54024D01*
X89030Y-54024D01*
X88975Y-54047D01*
X88932Y-54089D01*
X88910Y-54145D01*
X88909Y-54204D01*
X88909Y-54754D01*
X88932Y-54809D01*
X88974Y-54852D01*
X89030Y-54874D01*
X89089Y-54875D01*
X89439Y-54875D01*
X89494Y-54852D01*
X89537Y-54810D01*
X89559Y-54754D01*
X89560Y-54695D01*
X89560Y-54650D01*
X89590Y-54650D01*
X89666Y-54634D01*
X89731Y-54591D01*
X89947Y-54374D01*
X90054Y-54375D01*
X90173Y-54325D01*
X90265Y-54234D01*
X90314Y-54114D01*
X90315Y-53985D01*
X90315Y-66770D01*
X88810Y-66770D01*
X88810Y-54695D01*
X88810Y-54145D01*
X88810Y-53595D01*
X88810Y-53045D01*
X88787Y-52990D01*
X88745Y-52947D01*
X88689Y-52925D01*
X88630Y-52924D01*
X88280Y-52924D01*
X88225Y-52947D01*
X88182Y-52989D01*
X88160Y-53045D01*
X88159Y-53104D01*
X88159Y-53150D01*
X87310Y-53150D01*
X87310Y-53045D01*
X87287Y-52990D01*
X87245Y-52947D01*
X87189Y-52925D01*
X87130Y-52924D01*
X86780Y-52924D01*
X86725Y-52947D01*
X86682Y-52989D01*
X86660Y-53045D01*
X86659Y-53074D01*
X86659Y-53025D01*
X86621Y-52933D01*
X86551Y-52862D01*
X86459Y-52824D01*
X86347Y-52825D01*
X86285Y-52887D01*
X86285Y-53300D01*
X86292Y-53300D01*
X86292Y-53400D01*
X86285Y-53400D01*
X86285Y-53812D01*
X86347Y-53875D01*
X86459Y-53875D01*
X86551Y-53837D01*
X86621Y-53766D01*
X86659Y-53674D01*
X86659Y-53654D01*
X86659Y-53654D01*
X86682Y-53709D01*
X86724Y-53752D01*
X86780Y-53774D01*
X86839Y-53775D01*
X87189Y-53775D01*
X87244Y-53752D01*
X87287Y-53710D01*
X87309Y-53654D01*
X87310Y-53595D01*
X87310Y-53550D01*
X88159Y-53550D01*
X88159Y-53654D01*
X88182Y-53709D01*
X88224Y-53752D01*
X88280Y-53774D01*
X88339Y-53775D01*
X88689Y-53775D01*
X88744Y-53752D01*
X88787Y-53710D01*
X88809Y-53654D01*
X88810Y-53595D01*
X88810Y-54145D01*
X88787Y-54090D01*
X88745Y-54047D01*
X88689Y-54025D01*
X88630Y-54024D01*
X88280Y-54024D01*
X88225Y-54047D01*
X88182Y-54089D01*
X88160Y-54145D01*
X88159Y-54204D01*
X88159Y-54250D01*
X87310Y-54250D01*
X87310Y-54145D01*
X87287Y-54090D01*
X87245Y-54047D01*
X87189Y-54025D01*
X87130Y-54024D01*
X86780Y-54024D01*
X86725Y-54047D01*
X86682Y-54089D01*
X86660Y-54145D01*
X86659Y-54174D01*
X86659Y-54125D01*
X86621Y-54033D01*
X86551Y-53962D01*
X86459Y-53924D01*
X86347Y-53925D01*
X86285Y-53987D01*
X86285Y-54400D01*
X86292Y-54400D01*
X86292Y-54500D01*
X86285Y-54500D01*
X86285Y-54912D01*
X86347Y-54975D01*
X86459Y-54975D01*
X86551Y-54937D01*
X86621Y-54866D01*
X86659Y-54774D01*
X86659Y-54754D01*
X86659Y-54754D01*
X86682Y-54809D01*
X86724Y-54852D01*
X86780Y-54874D01*
X86839Y-54875D01*
X87189Y-54875D01*
X87244Y-54852D01*
X87287Y-54810D01*
X87309Y-54754D01*
X87310Y-54695D01*
X87310Y-54650D01*
X88159Y-54650D01*
X88159Y-54754D01*
X88182Y-54809D01*
X88224Y-54852D01*
X88280Y-54874D01*
X88339Y-54875D01*
X88689Y-54875D01*
X88744Y-54852D01*
X88787Y-54810D01*
X88809Y-54754D01*
X88810Y-54695D01*
X88810Y-66770D01*
X88400Y-66770D01*
X88400Y-60921D01*
X88301Y-60682D01*
X88118Y-60499D01*
X87879Y-60400D01*
X87621Y-60399D01*
X87382Y-60498D01*
X87199Y-60681D01*
X87100Y-60920D01*
X87099Y-61178D01*
X87198Y-61417D01*
X87381Y-61600D01*
X87620Y-61699D01*
X87878Y-61700D01*
X88117Y-61601D01*
X88300Y-61418D01*
X88399Y-61179D01*
X88400Y-60921D01*
X88400Y-66770D01*
X86185Y-66770D01*
X86185Y-54912D01*
X86185Y-54500D01*
X86185Y-54400D01*
X86185Y-53987D01*
X86185Y-53812D01*
X86185Y-53400D01*
X86185Y-53300D01*
X86185Y-52887D01*
X86185Y-52712D01*
X86185Y-52300D01*
X85872Y-52300D01*
X85810Y-52362D01*
X85809Y-52475D01*
X85810Y-52574D01*
X85848Y-52666D01*
X85918Y-52737D01*
X86010Y-52775D01*
X86122Y-52775D01*
X86185Y-52712D01*
X86185Y-52887D01*
X86122Y-52825D01*
X86010Y-52824D01*
X85918Y-52862D01*
X85848Y-52933D01*
X85810Y-53025D01*
X85809Y-53124D01*
X85810Y-53237D01*
X85872Y-53300D01*
X86185Y-53300D01*
X86185Y-53400D01*
X85872Y-53400D01*
X85810Y-53462D01*
X85809Y-53575D01*
X85810Y-53674D01*
X85848Y-53766D01*
X85918Y-53837D01*
X86010Y-53875D01*
X86122Y-53875D01*
X86185Y-53812D01*
X86185Y-53987D01*
X86122Y-53925D01*
X86010Y-53924D01*
X85918Y-53962D01*
X85848Y-54033D01*
X85810Y-54125D01*
X85809Y-54224D01*
X85810Y-54337D01*
X85872Y-54400D01*
X86185Y-54400D01*
X86185Y-54500D01*
X85872Y-54500D01*
X85810Y-54562D01*
X85809Y-54675D01*
X85810Y-54774D01*
X85848Y-54866D01*
X85918Y-54937D01*
X86010Y-54975D01*
X86122Y-54975D01*
X86185Y-54912D01*
X86185Y-66770D01*
X79629Y-66770D01*
X79629Y-65425D01*
X79618Y-65217D01*
X79560Y-65077D01*
X79467Y-65052D01*
X79397Y-65123D01*
X79397Y-64982D01*
X79372Y-64889D01*
X79175Y-64820D01*
X78967Y-64831D01*
X78827Y-64889D01*
X78802Y-64982D01*
X79100Y-65279D01*
X79397Y-64982D01*
X79397Y-65123D01*
X79170Y-65350D01*
X79467Y-65647D01*
X79560Y-65622D01*
X79629Y-65425D01*
X79629Y-66770D01*
X79415Y-66770D01*
X79459Y-66752D01*
X79502Y-66710D01*
X79524Y-66654D01*
X79525Y-66595D01*
X79525Y-66045D01*
X79502Y-65990D01*
X79460Y-65947D01*
X79404Y-65925D01*
X79397Y-65925D01*
X79397Y-65717D01*
X79100Y-65420D01*
X78802Y-65717D01*
X78827Y-65810D01*
X79024Y-65879D01*
X79232Y-65868D01*
X79372Y-65810D01*
X79397Y-65717D01*
X79397Y-65925D01*
X79345Y-65924D01*
X78795Y-65924D01*
X78740Y-65947D01*
X78697Y-65989D01*
X78679Y-66034D01*
X78679Y-65633D01*
X78732Y-65647D01*
X79029Y-65350D01*
X78732Y-65052D01*
X78679Y-65066D01*
X78679Y-64445D01*
X78739Y-64590D01*
X78858Y-64710D01*
X79015Y-64774D01*
X79184Y-64775D01*
X79340Y-64710D01*
X79460Y-64591D01*
X79524Y-64434D01*
X79525Y-64265D01*
X79460Y-64109D01*
X79341Y-63989D01*
X79184Y-63925D01*
X79015Y-63924D01*
X78859Y-63989D01*
X78739Y-64108D01*
X78679Y-64254D01*
X78679Y-63445D01*
X78739Y-63590D01*
X78858Y-63710D01*
X79015Y-63774D01*
X79184Y-63775D01*
X79340Y-63710D01*
X79460Y-63591D01*
X79524Y-63434D01*
X79525Y-63265D01*
X79460Y-63109D01*
X79341Y-62989D01*
X79184Y-62925D01*
X79015Y-62924D01*
X78859Y-62989D01*
X78739Y-63108D01*
X78679Y-63254D01*
X78679Y-62445D01*
X78739Y-62590D01*
X78858Y-62710D01*
X79015Y-62774D01*
X79184Y-62775D01*
X79340Y-62710D01*
X79460Y-62591D01*
X79524Y-62434D01*
X79525Y-62265D01*
X79460Y-62109D01*
X79341Y-61989D01*
X79184Y-61925D01*
X79015Y-61924D01*
X78859Y-61989D01*
X78739Y-62108D01*
X78679Y-62254D01*
X78679Y-61445D01*
X78739Y-61590D01*
X78858Y-61710D01*
X79015Y-61774D01*
X79184Y-61775D01*
X79340Y-61710D01*
X79460Y-61591D01*
X79524Y-61434D01*
X79525Y-61265D01*
X79460Y-61109D01*
X79341Y-60989D01*
X79184Y-60925D01*
X79015Y-60924D01*
X78859Y-60989D01*
X78739Y-61108D01*
X78679Y-61254D01*
X78679Y-60445D01*
X78739Y-60590D01*
X78858Y-60710D01*
X79015Y-60774D01*
X79184Y-60775D01*
X79340Y-60710D01*
X79460Y-60591D01*
X79524Y-60434D01*
X79525Y-60265D01*
X79460Y-60109D01*
X79341Y-59989D01*
X79184Y-59925D01*
X79015Y-59924D01*
X78859Y-59989D01*
X78739Y-60108D01*
X78679Y-60254D01*
X78679Y-59445D01*
X78739Y-59590D01*
X78858Y-59710D01*
X79015Y-59774D01*
X79184Y-59775D01*
X79340Y-59710D01*
X79460Y-59591D01*
X79524Y-59434D01*
X79525Y-59265D01*
X79460Y-59109D01*
X79341Y-58989D01*
X79184Y-58925D01*
X79015Y-58924D01*
X78859Y-58989D01*
X78739Y-59108D01*
X78679Y-59254D01*
X78679Y-58445D01*
X78739Y-58590D01*
X78858Y-58710D01*
X79015Y-58774D01*
X79184Y-58775D01*
X79340Y-58710D01*
X79460Y-58591D01*
X79524Y-58434D01*
X79525Y-58265D01*
X79460Y-58109D01*
X79341Y-57989D01*
X79184Y-57925D01*
X79015Y-57924D01*
X78859Y-57989D01*
X78739Y-58108D01*
X78679Y-58254D01*
X78679Y-57445D01*
X78739Y-57590D01*
X78858Y-57710D01*
X79015Y-57774D01*
X79184Y-57775D01*
X79340Y-57710D01*
X79460Y-57591D01*
X79524Y-57434D01*
X79525Y-57265D01*
X79460Y-57109D01*
X79341Y-56989D01*
X79184Y-56925D01*
X79015Y-56924D01*
X78859Y-56989D01*
X78739Y-57108D01*
X78679Y-57254D01*
X78679Y-56445D01*
X78739Y-56590D01*
X78858Y-56710D01*
X79015Y-56774D01*
X79184Y-56775D01*
X79340Y-56710D01*
X79460Y-56591D01*
X79524Y-56434D01*
X79525Y-56265D01*
X79460Y-56109D01*
X79341Y-55989D01*
X79184Y-55925D01*
X79015Y-55924D01*
X78859Y-55989D01*
X78739Y-56108D01*
X78679Y-56254D01*
X78679Y-55445D01*
X78739Y-55590D01*
X78858Y-55710D01*
X79015Y-55774D01*
X79184Y-55775D01*
X79340Y-55710D01*
X79460Y-55591D01*
X79524Y-55434D01*
X79525Y-55265D01*
X79460Y-55109D01*
X79341Y-54989D01*
X79184Y-54925D01*
X79015Y-54924D01*
X78859Y-54989D01*
X78739Y-55108D01*
X78679Y-55254D01*
X78679Y-54445D01*
X78739Y-54590D01*
X78858Y-54710D01*
X79015Y-54774D01*
X79184Y-54775D01*
X79340Y-54710D01*
X79460Y-54591D01*
X79524Y-54434D01*
X79525Y-54265D01*
X79460Y-54109D01*
X79341Y-53989D01*
X79184Y-53925D01*
X79015Y-53924D01*
X78859Y-53989D01*
X78739Y-54108D01*
X78679Y-54254D01*
X78679Y-53650D01*
X78665Y-53581D01*
X78626Y-53523D01*
X78568Y-53484D01*
X78500Y-53470D01*
X76925Y-53470D01*
X76925Y-53212D01*
X76925Y-52800D01*
X76612Y-52800D01*
X76550Y-52862D01*
X76549Y-52975D01*
X76550Y-53074D01*
X76588Y-53166D01*
X76658Y-53237D01*
X76750Y-53275D01*
X76862Y-53275D01*
X76925Y-53212D01*
X76925Y-53470D01*
X75879Y-53470D01*
X75879Y-52225D01*
X75868Y-52017D01*
X75810Y-51877D01*
X75717Y-51852D01*
X75647Y-51923D01*
X75420Y-52150D01*
X75717Y-52447D01*
X75810Y-52422D01*
X75879Y-52225D01*
X75879Y-53470D01*
X75768Y-53470D01*
X75774Y-53454D01*
X75775Y-53395D01*
X75775Y-52845D01*
X75752Y-52790D01*
X75710Y-52747D01*
X75654Y-52725D01*
X75647Y-52725D01*
X75595Y-52724D01*
X75045Y-52724D01*
X75029Y-52731D01*
X75029Y-52541D01*
X75052Y-52517D01*
X75077Y-52610D01*
X75274Y-52679D01*
X75482Y-52668D01*
X75622Y-52610D01*
X75647Y-52517D01*
X75350Y-52220D01*
X75344Y-52226D01*
X75273Y-52155D01*
X75279Y-52150D01*
X75273Y-52144D01*
X75344Y-52073D01*
X75350Y-52079D01*
X75647Y-51782D01*
X75622Y-51689D01*
X75425Y-51620D01*
X75217Y-51631D01*
X75077Y-51689D01*
X75052Y-51782D01*
X75029Y-51758D01*
X75029Y-51430D01*
X75108Y-51510D01*
X75265Y-51574D01*
X75434Y-51575D01*
X75590Y-51510D01*
X75710Y-51391D01*
X75774Y-51234D01*
X75775Y-51065D01*
X75710Y-50909D01*
X75591Y-50789D01*
X75434Y-50725D01*
X75265Y-50724D01*
X75109Y-50789D01*
X75029Y-50869D01*
X75029Y-50430D01*
X75108Y-50510D01*
X75265Y-50574D01*
X75434Y-50575D01*
X75590Y-50510D01*
X75710Y-50391D01*
X75774Y-50234D01*
X75775Y-50065D01*
X75710Y-49909D01*
X75591Y-49789D01*
X75434Y-49725D01*
X75265Y-49724D01*
X75109Y-49789D01*
X75029Y-49869D01*
X75029Y-48529D01*
X95670Y-48529D01*
X95670Y-66770D01*
X95670Y-66770D01*
G37*
G54D23*
X95670Y-66770D02*
X95050Y-66770D01*
X95050Y-52970D01*
X95050Y-52170D01*
X95027Y-52115D01*
X94985Y-52072D01*
X94929Y-52050D01*
X94900Y-52049D01*
X94900Y-51730D01*
X94887Y-51666D01*
X94884Y-51653D01*
X94884Y-51653D01*
X94841Y-51588D01*
X94770Y-51517D01*
X94770Y-50350D01*
X94770Y-49649D01*
X94769Y-49550D01*
X94731Y-49458D01*
X94661Y-49387D01*
X94569Y-49349D01*
X93912Y-49350D01*
X93850Y-49412D01*
X93850Y-49950D01*
X94707Y-49950D01*
X94770Y-49887D01*
X94770Y-49649D01*
X94770Y-50350D01*
X94770Y-50112D01*
X94707Y-50050D01*
X93850Y-50050D01*
X93850Y-50587D01*
X93912Y-50650D01*
X94569Y-50650D01*
X94661Y-50612D01*
X94731Y-50541D01*
X94769Y-50449D01*
X94770Y-50350D01*
X94770Y-51517D01*
X94331Y-51078D01*
X94266Y-51035D01*
X94190Y-51020D01*
X93482Y-51020D01*
X93112Y-50650D01*
X93687Y-50650D01*
X93750Y-50587D01*
X93750Y-50050D01*
X93750Y-49950D01*
X93750Y-49412D01*
X93687Y-49350D01*
X93030Y-49349D01*
X92938Y-49387D01*
X92868Y-49458D01*
X92830Y-49550D01*
X92829Y-49649D01*
X92830Y-49887D01*
X92892Y-49950D01*
X93750Y-49950D01*
X93750Y-50050D01*
X92892Y-50050D01*
X92830Y-50112D01*
X92829Y-50350D01*
X92829Y-50367D01*
X92701Y-50238D01*
X92636Y-50195D01*
X92560Y-50180D01*
X88509Y-50180D01*
X88434Y-50104D01*
X88314Y-50055D01*
X88185Y-50054D01*
X88066Y-50104D01*
X87990Y-50180D01*
X87522Y-50180D01*
X86255Y-48912D01*
X86190Y-48869D01*
X86114Y-48854D01*
X83089Y-48854D01*
X83087Y-48851D01*
X83031Y-48829D01*
X82972Y-48828D01*
X82472Y-48828D01*
X82417Y-48851D01*
X82414Y-48854D01*
X82266Y-48854D01*
X82189Y-48869D01*
X82124Y-48912D01*
X81898Y-49138D01*
X81855Y-49203D01*
X81840Y-49280D01*
X81840Y-50390D01*
X81855Y-50466D01*
X81898Y-50531D01*
X82098Y-50731D01*
X82098Y-50731D01*
X82141Y-50760D01*
X82163Y-50774D01*
X82163Y-50774D01*
X82240Y-50790D01*
X82351Y-50790D01*
X82351Y-50800D01*
X82351Y-50950D01*
X82374Y-51005D01*
X82416Y-51048D01*
X82472Y-51070D01*
X82531Y-51071D01*
X83031Y-51071D01*
X83086Y-51048D01*
X83089Y-51046D01*
X83156Y-51046D01*
X83235Y-51125D01*
X83355Y-51174D01*
X83484Y-51175D01*
X83603Y-51125D01*
X83695Y-51034D01*
X83744Y-50914D01*
X83745Y-50785D01*
X83695Y-50666D01*
X83624Y-50594D01*
X83695Y-50524D01*
X83744Y-50404D01*
X83745Y-50275D01*
X83695Y-50156D01*
X83604Y-50064D01*
X83484Y-50015D01*
X83355Y-50014D01*
X83236Y-50064D01*
X83166Y-50134D01*
X83152Y-50134D01*
X83152Y-50123D01*
X83152Y-49973D01*
X83142Y-49950D01*
X83151Y-49926D01*
X83152Y-49867D01*
X83152Y-49717D01*
X83142Y-49694D01*
X83151Y-49670D01*
X83152Y-49611D01*
X83152Y-49461D01*
X83142Y-49438D01*
X83151Y-49414D01*
X83152Y-49355D01*
X83152Y-49254D01*
X86031Y-49254D01*
X87157Y-50380D01*
X86843Y-50693D01*
X86822Y-50724D01*
X86780Y-50724D01*
X86725Y-50747D01*
X86682Y-50789D01*
X86660Y-50845D01*
X86659Y-50904D01*
X86659Y-51454D01*
X86678Y-51500D01*
X86541Y-51500D01*
X86559Y-51454D01*
X86560Y-51395D01*
X86560Y-50845D01*
X86537Y-50790D01*
X86495Y-50747D01*
X86439Y-50725D01*
X86380Y-50724D01*
X86030Y-50724D01*
X85975Y-50747D01*
X85932Y-50789D01*
X85910Y-50845D01*
X85909Y-50904D01*
X85909Y-50950D01*
X85170Y-50950D01*
X85093Y-50965D01*
X85071Y-50979D01*
X85028Y-51008D01*
X83202Y-52835D01*
X83095Y-52834D01*
X82976Y-52884D01*
X82884Y-52975D01*
X82835Y-53095D01*
X82834Y-53224D01*
X82884Y-53343D01*
X82975Y-53435D01*
X83093Y-53484D01*
X82737Y-53840D01*
X82590Y-53840D01*
X82590Y-53240D01*
X82567Y-53185D01*
X82525Y-53142D01*
X82469Y-53120D01*
X82410Y-53119D01*
X82155Y-53119D01*
X82155Y-51595D01*
X82105Y-51476D01*
X82014Y-51384D01*
X81894Y-51335D01*
X81765Y-51334D01*
X81646Y-51384D01*
X81570Y-51460D01*
X80392Y-51460D01*
X79947Y-51015D01*
X79955Y-51015D01*
X79957Y-51016D01*
X79979Y-51030D01*
X79979Y-51030D01*
X80055Y-51045D01*
X80056Y-51046D01*
X80210Y-51046D01*
X80212Y-51048D01*
X80268Y-51070D01*
X80327Y-51071D01*
X80827Y-51071D01*
X80882Y-51048D01*
X80925Y-51006D01*
X80947Y-50950D01*
X80948Y-50891D01*
X80948Y-50790D01*
X80950Y-50790D01*
X81025Y-50865D01*
X81145Y-50914D01*
X81274Y-50915D01*
X81393Y-50865D01*
X81485Y-50774D01*
X81534Y-50654D01*
X81535Y-50525D01*
X81485Y-50406D01*
X81394Y-50314D01*
X81274Y-50265D01*
X81145Y-50264D01*
X81026Y-50314D01*
X80950Y-50390D01*
X80948Y-50390D01*
X80948Y-50379D01*
X80948Y-50229D01*
X80938Y-50206D01*
X80947Y-50182D01*
X80948Y-50123D01*
X80948Y-49973D01*
X80938Y-49950D01*
X80947Y-49926D01*
X80948Y-49867D01*
X80948Y-49717D01*
X80938Y-49694D01*
X80947Y-49670D01*
X80948Y-49611D01*
X80948Y-49461D01*
X80938Y-49438D01*
X80947Y-49414D01*
X80948Y-49355D01*
X80948Y-49332D01*
X81010Y-49270D01*
X81048Y-49178D01*
X81048Y-48929D01*
X81010Y-48837D01*
X80939Y-48767D01*
X80847Y-48729D01*
X80748Y-48728D01*
X80660Y-48729D01*
X80598Y-48791D01*
X80598Y-49016D01*
X80985Y-49016D01*
X81048Y-48954D01*
X81048Y-48929D01*
X81048Y-49178D01*
X81048Y-49154D01*
X80985Y-49091D01*
X80843Y-49091D01*
X80827Y-49085D01*
X80768Y-49084D01*
X80498Y-49084D01*
X80498Y-49016D01*
X80498Y-48791D01*
X80435Y-48729D01*
X80347Y-48728D01*
X80248Y-48729D01*
X80156Y-48767D01*
X80085Y-48837D01*
X80047Y-48929D01*
X80048Y-48954D01*
X80110Y-49016D01*
X80498Y-49016D01*
X80498Y-49084D01*
X80268Y-49084D01*
X80252Y-49091D01*
X80110Y-49091D01*
X80048Y-49154D01*
X80047Y-49178D01*
X80085Y-49270D01*
X80147Y-49332D01*
X80147Y-49414D01*
X80157Y-49437D01*
X80148Y-49461D01*
X80147Y-49520D01*
X80147Y-49670D01*
X80157Y-49693D01*
X80148Y-49717D01*
X80147Y-49776D01*
X80147Y-49926D01*
X80157Y-49949D01*
X80148Y-49973D01*
X80147Y-50032D01*
X80147Y-50150D01*
X79525Y-50150D01*
X79525Y-49265D01*
X79460Y-49109D01*
X79341Y-48989D01*
X79184Y-48925D01*
X79015Y-48924D01*
X78859Y-48989D01*
X78739Y-49108D01*
X78675Y-49265D01*
X78674Y-49434D01*
X78739Y-49590D01*
X78858Y-49710D01*
X79015Y-49774D01*
X79184Y-49775D01*
X79340Y-49710D01*
X79460Y-49591D01*
X79524Y-49434D01*
X79525Y-49265D01*
X79525Y-50150D01*
X79477Y-50150D01*
X79460Y-50109D01*
X79341Y-49989D01*
X79184Y-49925D01*
X79015Y-49924D01*
X78859Y-49989D01*
X78739Y-50108D01*
X78675Y-50265D01*
X78674Y-50434D01*
X78739Y-50590D01*
X78808Y-50660D01*
X78712Y-50660D01*
X78461Y-50408D01*
X78396Y-50365D01*
X78320Y-50350D01*
X78050Y-50350D01*
X78050Y-50245D01*
X78027Y-50190D01*
X77985Y-50147D01*
X77929Y-50125D01*
X77921Y-50125D01*
X77909Y-50068D01*
X77909Y-50068D01*
X77895Y-50046D01*
X77866Y-50003D01*
X77866Y-50003D01*
X77837Y-49975D01*
X77949Y-49975D01*
X78041Y-49937D01*
X78111Y-49866D01*
X78149Y-49774D01*
X78150Y-49675D01*
X78150Y-49224D01*
X78149Y-49125D01*
X78111Y-49033D01*
X78041Y-48962D01*
X77949Y-48924D01*
X77837Y-48925D01*
X77775Y-48987D01*
X77775Y-49400D01*
X78087Y-49400D01*
X78150Y-49337D01*
X78150Y-49224D01*
X78150Y-49675D01*
X78150Y-49562D01*
X78087Y-49500D01*
X77775Y-49500D01*
X77775Y-49507D01*
X77675Y-49507D01*
X77675Y-49500D01*
X77667Y-49500D01*
X77667Y-49400D01*
X77675Y-49400D01*
X77675Y-48987D01*
X77612Y-48925D01*
X77500Y-48924D01*
X77408Y-48962D01*
X77338Y-49033D01*
X77300Y-49125D01*
X77300Y-49145D01*
X77277Y-49090D01*
X77235Y-49047D01*
X77179Y-49025D01*
X77120Y-49024D01*
X76770Y-49024D01*
X76715Y-49047D01*
X76672Y-49089D01*
X76650Y-49145D01*
X76649Y-49204D01*
X76649Y-49754D01*
X76672Y-49809D01*
X76714Y-49852D01*
X76770Y-49874D01*
X76792Y-49874D01*
X76833Y-49936D01*
X77022Y-50124D01*
X76770Y-50124D01*
X76715Y-50147D01*
X76672Y-50189D01*
X76650Y-50245D01*
X76649Y-50304D01*
X76649Y-50854D01*
X76672Y-50909D01*
X76714Y-50952D01*
X76770Y-50974D01*
X76784Y-50974D01*
X76790Y-51001D01*
X76833Y-51066D01*
X76992Y-51224D01*
X76770Y-51224D01*
X76715Y-51247D01*
X76672Y-51289D01*
X76650Y-51345D01*
X76649Y-51404D01*
X76649Y-51954D01*
X76672Y-52009D01*
X76714Y-52052D01*
X76770Y-52074D01*
X76786Y-52074D01*
X76795Y-52116D01*
X76838Y-52181D01*
X76924Y-52267D01*
X76924Y-52287D01*
X76862Y-52225D01*
X76750Y-52224D01*
X76658Y-52262D01*
X76588Y-52333D01*
X76550Y-52425D01*
X76549Y-52524D01*
X76550Y-52637D01*
X76612Y-52700D01*
X76925Y-52700D01*
X76925Y-52692D01*
X77025Y-52692D01*
X77025Y-52700D01*
X77032Y-52700D01*
X77032Y-52800D01*
X77025Y-52800D01*
X77025Y-53212D01*
X77087Y-53275D01*
X77199Y-53275D01*
X77291Y-53237D01*
X77361Y-53166D01*
X77399Y-53074D01*
X77399Y-53054D01*
X77399Y-53054D01*
X77422Y-53109D01*
X77464Y-53152D01*
X77520Y-53174D01*
X77579Y-53175D01*
X77929Y-53175D01*
X77984Y-53152D01*
X78027Y-53110D01*
X78049Y-53054D01*
X78050Y-52995D01*
X78050Y-52950D01*
X78537Y-52950D01*
X78558Y-52971D01*
X78623Y-53014D01*
X78623Y-53014D01*
X78700Y-53030D01*
X78818Y-53030D01*
X78739Y-53108D01*
X78675Y-53265D01*
X78674Y-53434D01*
X78739Y-53590D01*
X78858Y-53710D01*
X79015Y-53774D01*
X79184Y-53775D01*
X79340Y-53710D01*
X79460Y-53591D01*
X79524Y-53434D01*
X79525Y-53265D01*
X79460Y-53109D01*
X79381Y-53030D01*
X79710Y-53030D01*
X79786Y-53014D01*
X79851Y-52971D01*
X80037Y-52784D01*
X80144Y-52785D01*
X80263Y-52735D01*
X80355Y-52644D01*
X80404Y-52524D01*
X80405Y-52395D01*
X80355Y-52276D01*
X80264Y-52184D01*
X80144Y-52135D01*
X80015Y-52134D01*
X79896Y-52184D01*
X79804Y-52275D01*
X79755Y-52395D01*
X79754Y-52502D01*
X79627Y-52630D01*
X79421Y-52630D01*
X79460Y-52591D01*
X79524Y-52434D01*
X79525Y-52265D01*
X79460Y-52109D01*
X79341Y-51989D01*
X79184Y-51925D01*
X79015Y-51924D01*
X78859Y-51989D01*
X78775Y-52073D01*
X78211Y-51508D01*
X78146Y-51465D01*
X78070Y-51450D01*
X78050Y-51450D01*
X78050Y-51345D01*
X78027Y-51290D01*
X78027Y-51290D01*
X78127Y-51290D01*
X78328Y-51491D01*
X78328Y-51491D01*
X78371Y-51520D01*
X78393Y-51534D01*
X78393Y-51534D01*
X78470Y-51550D01*
X78722Y-51550D01*
X78739Y-51590D01*
X78858Y-51710D01*
X79015Y-51774D01*
X79184Y-51775D01*
X79340Y-51710D01*
X79460Y-51591D01*
X79524Y-51434D01*
X79525Y-51265D01*
X79460Y-51109D01*
X79411Y-51060D01*
X79427Y-51060D01*
X80168Y-51801D01*
X80168Y-51801D01*
X80211Y-51830D01*
X80233Y-51844D01*
X80233Y-51844D01*
X80309Y-51859D01*
X80310Y-51860D01*
X81570Y-51860D01*
X81645Y-51935D01*
X81765Y-51984D01*
X81894Y-51985D01*
X82013Y-51935D01*
X82105Y-51844D01*
X82154Y-51724D01*
X82155Y-51595D01*
X82155Y-53119D01*
X81810Y-53119D01*
X81755Y-53142D01*
X81712Y-53184D01*
X81690Y-53240D01*
X81689Y-53299D01*
X81689Y-53840D01*
X81660Y-53840D01*
X81596Y-53852D01*
X81590Y-53853D01*
X81590Y-53480D01*
X81521Y-53315D01*
X81395Y-53188D01*
X81229Y-53120D01*
X81050Y-53119D01*
X80885Y-53188D01*
X80758Y-53314D01*
X80690Y-53480D01*
X80689Y-53659D01*
X80758Y-53824D01*
X80884Y-53951D01*
X81050Y-54019D01*
X81229Y-54020D01*
X81394Y-53951D01*
X81521Y-53825D01*
X81589Y-53659D01*
X81590Y-53480D01*
X81590Y-53853D01*
X81583Y-53855D01*
X81518Y-53898D01*
X81277Y-54139D01*
X81229Y-54120D01*
X81050Y-54119D01*
X80885Y-54188D01*
X80758Y-54314D01*
X80690Y-54480D01*
X80689Y-54659D01*
X80758Y-54824D01*
X80884Y-54951D01*
X81050Y-55019D01*
X81229Y-55020D01*
X81394Y-54951D01*
X81521Y-54825D01*
X81589Y-54659D01*
X81590Y-54480D01*
X81564Y-54418D01*
X81742Y-54240D01*
X81833Y-54240D01*
X81758Y-54314D01*
X81690Y-54480D01*
X81689Y-54659D01*
X81758Y-54824D01*
X81884Y-54951D01*
X82050Y-55019D01*
X82229Y-55020D01*
X82394Y-54951D01*
X82521Y-54825D01*
X82589Y-54659D01*
X82590Y-54480D01*
X82521Y-54315D01*
X82446Y-54240D01*
X82820Y-54240D01*
X82896Y-54224D01*
X82961Y-54181D01*
X85242Y-51900D01*
X85820Y-51900D01*
X85810Y-51925D01*
X85809Y-52024D01*
X85810Y-52137D01*
X85872Y-52200D01*
X86185Y-52200D01*
X86185Y-52192D01*
X86285Y-52192D01*
X86285Y-52200D01*
X86292Y-52200D01*
X86292Y-52300D01*
X86285Y-52300D01*
X86285Y-52712D01*
X86347Y-52775D01*
X86459Y-52775D01*
X86551Y-52737D01*
X86621Y-52666D01*
X86659Y-52574D01*
X86659Y-52554D01*
X86659Y-52554D01*
X86682Y-52609D01*
X86724Y-52652D01*
X86780Y-52674D01*
X86839Y-52675D01*
X87189Y-52675D01*
X87244Y-52652D01*
X87287Y-52610D01*
X87309Y-52554D01*
X87310Y-52495D01*
X87310Y-52450D01*
X88159Y-52450D01*
X88159Y-52554D01*
X88182Y-52609D01*
X88224Y-52652D01*
X88280Y-52674D01*
X88339Y-52675D01*
X88689Y-52675D01*
X88744Y-52652D01*
X88787Y-52610D01*
X88809Y-52554D01*
X88810Y-52495D01*
X88810Y-51945D01*
X88791Y-51900D01*
X88928Y-51900D01*
X88910Y-51945D01*
X88909Y-52004D01*
X88909Y-52554D01*
X88932Y-52609D01*
X88974Y-52652D01*
X89030Y-52674D01*
X89089Y-52675D01*
X89439Y-52675D01*
X89494Y-52652D01*
X89537Y-52610D01*
X89559Y-52554D01*
X89560Y-52502D01*
X89665Y-52607D01*
X89664Y-52714D01*
X89714Y-52833D01*
X89805Y-52925D01*
X89925Y-52974D01*
X90054Y-52975D01*
X90173Y-52925D01*
X90265Y-52834D01*
X90314Y-52714D01*
X90315Y-52585D01*
X90265Y-52466D01*
X90174Y-52374D01*
X90054Y-52325D01*
X89947Y-52324D01*
X89731Y-52108D01*
X89666Y-52065D01*
X89590Y-52050D01*
X89560Y-52050D01*
X89560Y-51945D01*
X89537Y-51890D01*
X89495Y-51847D01*
X89439Y-51825D01*
X89380Y-51824D01*
X89267Y-51824D01*
X89376Y-51716D01*
X89376Y-51716D01*
X89405Y-51673D01*
X89419Y-51651D01*
X89419Y-51651D01*
X89434Y-51575D01*
X89439Y-51575D01*
X89494Y-51552D01*
X89537Y-51510D01*
X89559Y-51454D01*
X89560Y-51395D01*
X89560Y-51350D01*
X89675Y-51350D01*
X89714Y-51443D01*
X89805Y-51535D01*
X89925Y-51584D01*
X90054Y-51585D01*
X90173Y-51535D01*
X90265Y-51444D01*
X90314Y-51324D01*
X90315Y-51195D01*
X90265Y-51076D01*
X90174Y-50984D01*
X90054Y-50935D01*
X89925Y-50934D01*
X89886Y-50951D01*
X89880Y-50950D01*
X89560Y-50950D01*
X89560Y-50845D01*
X89537Y-50790D01*
X89495Y-50747D01*
X89439Y-50725D01*
X89380Y-50724D01*
X89030Y-50724D01*
X88975Y-50747D01*
X88932Y-50789D01*
X88910Y-50845D01*
X88909Y-50874D01*
X88909Y-50825D01*
X88871Y-50733D01*
X88801Y-50662D01*
X88709Y-50624D01*
X88597Y-50625D01*
X88535Y-50687D01*
X88535Y-51100D01*
X88542Y-51100D01*
X88542Y-51200D01*
X88535Y-51200D01*
X88535Y-51207D01*
X88435Y-51207D01*
X88435Y-51200D01*
X88122Y-51200D01*
X88060Y-51262D01*
X88059Y-51375D01*
X88060Y-51474D01*
X88070Y-51500D01*
X87291Y-51500D01*
X87309Y-51454D01*
X87310Y-51395D01*
X87310Y-50845D01*
X87294Y-50808D01*
X87522Y-50580D01*
X87990Y-50580D01*
X88065Y-50655D01*
X88143Y-50687D01*
X88098Y-50733D01*
X88060Y-50825D01*
X88059Y-50924D01*
X88060Y-51037D01*
X88122Y-51100D01*
X88435Y-51100D01*
X88435Y-50687D01*
X88412Y-50664D01*
X88433Y-50655D01*
X88509Y-50580D01*
X92477Y-50580D01*
X93258Y-51361D01*
X93323Y-51404D01*
X93400Y-51420D01*
X94107Y-51420D01*
X94500Y-51812D01*
X94500Y-52049D01*
X94470Y-52049D01*
X94415Y-52072D01*
X94372Y-52114D01*
X94350Y-52170D01*
X94349Y-52229D01*
X94349Y-53029D01*
X94372Y-53084D01*
X94414Y-53127D01*
X94470Y-53149D01*
X94500Y-53150D01*
X94500Y-53297D01*
X94250Y-53547D01*
X94250Y-52950D01*
X94250Y-52249D01*
X94249Y-52150D01*
X94211Y-52058D01*
X94141Y-51987D01*
X94049Y-51949D01*
X93912Y-51950D01*
X93850Y-52012D01*
X93850Y-52550D01*
X94187Y-52550D01*
X94250Y-52487D01*
X94250Y-52249D01*
X94250Y-52950D01*
X94250Y-52712D01*
X94187Y-52650D01*
X93850Y-52650D01*
X93850Y-53187D01*
X93912Y-53250D01*
X94049Y-53250D01*
X94141Y-53212D01*
X94211Y-53141D01*
X94249Y-53049D01*
X94250Y-52950D01*
X94250Y-53547D01*
X94158Y-53638D01*
X94137Y-53669D01*
X93970Y-53669D01*
X93915Y-53692D01*
X93872Y-53734D01*
X93850Y-53790D01*
X93849Y-53849D01*
X93849Y-54649D01*
X93872Y-54704D01*
X93914Y-54747D01*
X93970Y-54769D01*
X94029Y-54770D01*
X94100Y-54770D01*
X94100Y-54917D01*
X93957Y-55060D01*
X93785Y-55060D01*
X93785Y-53325D01*
X93735Y-53206D01*
X93733Y-53203D01*
X93750Y-53187D01*
X93750Y-52650D01*
X93750Y-52550D01*
X93750Y-52012D01*
X93687Y-51950D01*
X93550Y-51949D01*
X93458Y-51987D01*
X93388Y-52058D01*
X93350Y-52150D01*
X93349Y-52249D01*
X93350Y-52487D01*
X93412Y-52550D01*
X93750Y-52550D01*
X93750Y-52650D01*
X93412Y-52650D01*
X93350Y-52712D01*
X93349Y-52950D01*
X93350Y-53049D01*
X93362Y-53078D01*
X93276Y-53114D01*
X93236Y-53153D01*
X93197Y-53114D01*
X93227Y-53085D01*
X93249Y-53029D01*
X93250Y-52970D01*
X93250Y-52170D01*
X93227Y-52115D01*
X93185Y-52072D01*
X93129Y-52050D01*
X93070Y-52049D01*
X92670Y-52049D01*
X92615Y-52072D01*
X92572Y-52114D01*
X92550Y-52170D01*
X92549Y-52229D01*
X92549Y-53029D01*
X92572Y-53084D01*
X92614Y-53127D01*
X92670Y-53149D01*
X92709Y-53150D01*
X92715Y-53176D01*
X92758Y-53241D01*
X93048Y-53531D01*
X93048Y-53531D01*
X93091Y-53560D01*
X93110Y-53572D01*
X93050Y-53632D01*
X93050Y-54170D01*
X93487Y-54170D01*
X93550Y-54107D01*
X93550Y-53869D01*
X93549Y-53770D01*
X93526Y-53714D01*
X93643Y-53665D01*
X93735Y-53574D01*
X93784Y-53454D01*
X93785Y-53325D01*
X93785Y-55060D01*
X93550Y-55060D01*
X93550Y-54570D01*
X93550Y-54332D01*
X93487Y-54270D01*
X93050Y-54270D01*
X93050Y-54807D01*
X93112Y-54870D01*
X93349Y-54870D01*
X93441Y-54832D01*
X93511Y-54761D01*
X93549Y-54669D01*
X93550Y-54570D01*
X93550Y-55060D01*
X92782Y-55060D01*
X92644Y-54922D01*
X92645Y-54867D01*
X92650Y-54870D01*
X92887Y-54870D01*
X92950Y-54807D01*
X92950Y-54270D01*
X92950Y-54170D01*
X92950Y-53632D01*
X92887Y-53570D01*
X92650Y-53569D01*
X92558Y-53607D01*
X92488Y-53678D01*
X92450Y-53770D01*
X92449Y-53869D01*
X92450Y-54107D01*
X92512Y-54170D01*
X92950Y-54170D01*
X92950Y-54270D01*
X92512Y-54270D01*
X92450Y-54332D01*
X92449Y-54570D01*
X92449Y-54582D01*
X92384Y-54555D01*
X92255Y-54554D01*
X92136Y-54604D01*
X92044Y-54695D01*
X91995Y-54815D01*
X91994Y-54944D01*
X92044Y-55063D01*
X92135Y-55155D01*
X92255Y-55204D01*
X92362Y-55205D01*
X92558Y-55401D01*
X92558Y-55401D01*
X92601Y-55430D01*
X92623Y-55444D01*
X92623Y-55444D01*
X92699Y-55459D01*
X92700Y-55460D01*
X94040Y-55460D01*
X94116Y-55444D01*
X94181Y-55401D01*
X94441Y-55141D01*
X94441Y-55141D01*
X94470Y-55098D01*
X94484Y-55076D01*
X94484Y-55076D01*
X94499Y-55000D01*
X94500Y-55000D01*
X94500Y-54770D01*
X94629Y-54770D01*
X94684Y-54747D01*
X94727Y-54705D01*
X94749Y-54649D01*
X94750Y-54590D01*
X94750Y-53790D01*
X94727Y-53735D01*
X94685Y-53692D01*
X94674Y-53688D01*
X94841Y-53521D01*
X94841Y-53521D01*
X94870Y-53478D01*
X94884Y-53456D01*
X94884Y-53456D01*
X94899Y-53380D01*
X94900Y-53380D01*
X94900Y-53150D01*
X94929Y-53150D01*
X94984Y-53127D01*
X95027Y-53085D01*
X95049Y-53029D01*
X95050Y-52970D01*
X95050Y-66770D01*
X90315Y-66770D01*
X90315Y-53985D01*
X90315Y-53285D01*
X90265Y-53166D01*
X90174Y-53074D01*
X90054Y-53025D01*
X89925Y-53024D01*
X89806Y-53074D01*
X89750Y-53130D01*
X89560Y-53130D01*
X89560Y-53045D01*
X89537Y-52990D01*
X89495Y-52947D01*
X89439Y-52925D01*
X89380Y-52924D01*
X89030Y-52924D01*
X88975Y-52947D01*
X88932Y-52989D01*
X88910Y-53045D01*
X88909Y-53104D01*
X88909Y-53654D01*
X88932Y-53709D01*
X88974Y-53752D01*
X89030Y-53774D01*
X89089Y-53775D01*
X89439Y-53775D01*
X89494Y-53752D01*
X89537Y-53710D01*
X89559Y-53654D01*
X89560Y-53595D01*
X89560Y-53570D01*
X89750Y-53570D01*
X89805Y-53625D01*
X89925Y-53674D01*
X90054Y-53675D01*
X90173Y-53625D01*
X90265Y-53534D01*
X90314Y-53414D01*
X90315Y-53285D01*
X90315Y-53985D01*
X90265Y-53866D01*
X90174Y-53774D01*
X90054Y-53725D01*
X89925Y-53724D01*
X89806Y-53774D01*
X89714Y-53865D01*
X89665Y-53985D01*
X89664Y-54092D01*
X89560Y-54197D01*
X89560Y-54145D01*
X89537Y-54090D01*
X89495Y-54047D01*
X89439Y-54025D01*
X89380Y-54024D01*
X89030Y-54024D01*
X88975Y-54047D01*
X88932Y-54089D01*
X88910Y-54145D01*
X88909Y-54204D01*
X88909Y-54754D01*
X88932Y-54809D01*
X88974Y-54852D01*
X89030Y-54874D01*
X89089Y-54875D01*
X89439Y-54875D01*
X89494Y-54852D01*
X89537Y-54810D01*
X89559Y-54754D01*
X89560Y-54695D01*
X89560Y-54650D01*
X89590Y-54650D01*
X89666Y-54634D01*
X89731Y-54591D01*
X89947Y-54374D01*
X90054Y-54375D01*
X90173Y-54325D01*
X90265Y-54234D01*
X90314Y-54114D01*
X90315Y-53985D01*
X90315Y-66770D01*
X88810Y-66770D01*
X88810Y-54695D01*
X88810Y-54145D01*
X88810Y-53595D01*
X88810Y-53045D01*
X88787Y-52990D01*
X88745Y-52947D01*
X88689Y-52925D01*
X88630Y-52924D01*
X88280Y-52924D01*
X88225Y-52947D01*
X88182Y-52989D01*
X88160Y-53045D01*
X88159Y-53104D01*
X88159Y-53150D01*
X87310Y-53150D01*
X87310Y-53045D01*
X87287Y-52990D01*
X87245Y-52947D01*
X87189Y-52925D01*
X87130Y-52924D01*
X86780Y-52924D01*
X86725Y-52947D01*
X86682Y-52989D01*
X86660Y-53045D01*
X86659Y-53074D01*
X86659Y-53025D01*
X86621Y-52933D01*
X86551Y-52862D01*
X86459Y-52824D01*
X86347Y-52825D01*
X86285Y-52887D01*
X86285Y-53300D01*
X86292Y-53300D01*
X86292Y-53400D01*
X86285Y-53400D01*
X86285Y-53812D01*
X86347Y-53875D01*
X86459Y-53875D01*
X86551Y-53837D01*
X86621Y-53766D01*
X86659Y-53674D01*
X86659Y-53654D01*
X86659Y-53654D01*
X86682Y-53709D01*
X86724Y-53752D01*
X86780Y-53774D01*
X86839Y-53775D01*
X87189Y-53775D01*
X87244Y-53752D01*
X87287Y-53710D01*
X87309Y-53654D01*
X87310Y-53595D01*
X87310Y-53550D01*
X88159Y-53550D01*
X88159Y-53654D01*
X88182Y-53709D01*
X88224Y-53752D01*
X88280Y-53774D01*
X88339Y-53775D01*
X88689Y-53775D01*
X88744Y-53752D01*
X88787Y-53710D01*
X88809Y-53654D01*
X88810Y-53595D01*
X88810Y-54145D01*
X88787Y-54090D01*
X88745Y-54047D01*
X88689Y-54025D01*
X88630Y-54024D01*
X88280Y-54024D01*
X88225Y-54047D01*
X88182Y-54089D01*
X88160Y-54145D01*
X88159Y-54204D01*
X88159Y-54250D01*
X87310Y-54250D01*
X87310Y-54145D01*
X87287Y-54090D01*
X87245Y-54047D01*
X87189Y-54025D01*
X87130Y-54024D01*
X86780Y-54024D01*
X86725Y-54047D01*
X86682Y-54089D01*
X86660Y-54145D01*
X86659Y-54174D01*
X86659Y-54125D01*
X86621Y-54033D01*
X86551Y-53962D01*
X86459Y-53924D01*
X86347Y-53925D01*
X86285Y-53987D01*
X86285Y-54400D01*
X86292Y-54400D01*
X86292Y-54500D01*
X86285Y-54500D01*
X86285Y-54912D01*
X86347Y-54975D01*
X86459Y-54975D01*
X86551Y-54937D01*
X86621Y-54866D01*
X86659Y-54774D01*
X86659Y-54754D01*
X86659Y-54754D01*
X86682Y-54809D01*
X86724Y-54852D01*
X86780Y-54874D01*
X86839Y-54875D01*
X87189Y-54875D01*
X87244Y-54852D01*
X87287Y-54810D01*
X87309Y-54754D01*
X87310Y-54695D01*
X87310Y-54650D01*
X88159Y-54650D01*
X88159Y-54754D01*
X88182Y-54809D01*
X88224Y-54852D01*
X88280Y-54874D01*
X88339Y-54875D01*
X88689Y-54875D01*
X88744Y-54852D01*
X88787Y-54810D01*
X88809Y-54754D01*
X88810Y-54695D01*
X88810Y-66770D01*
X88400Y-66770D01*
X88400Y-60921D01*
X88301Y-60682D01*
X88118Y-60499D01*
X87879Y-60400D01*
X87621Y-60399D01*
X87382Y-60498D01*
X87199Y-60681D01*
X87100Y-60920D01*
X87099Y-61178D01*
X87198Y-61417D01*
X87381Y-61600D01*
X87620Y-61699D01*
X87878Y-61700D01*
X88117Y-61601D01*
X88300Y-61418D01*
X88399Y-61179D01*
X88400Y-60921D01*
X88400Y-66770D01*
X86185Y-66770D01*
X86185Y-54912D01*
X86185Y-54500D01*
X86185Y-54400D01*
X86185Y-53987D01*
X86185Y-53812D01*
X86185Y-53400D01*
X86185Y-53300D01*
X86185Y-52887D01*
X86185Y-52712D01*
X86185Y-52300D01*
X85872Y-52300D01*
X85810Y-52362D01*
X85809Y-52475D01*
X85810Y-52574D01*
X85848Y-52666D01*
X85918Y-52737D01*
X86010Y-52775D01*
X86122Y-52775D01*
X86185Y-52712D01*
X86185Y-52887D01*
X86122Y-52825D01*
X86010Y-52824D01*
X85918Y-52862D01*
X85848Y-52933D01*
X85810Y-53025D01*
X85809Y-53124D01*
X85810Y-53237D01*
X85872Y-53300D01*
X86185Y-53300D01*
X86185Y-53400D01*
X85872Y-53400D01*
X85810Y-53462D01*
X85809Y-53575D01*
X85810Y-53674D01*
X85848Y-53766D01*
X85918Y-53837D01*
X86010Y-53875D01*
X86122Y-53875D01*
X86185Y-53812D01*
X86185Y-53987D01*
X86122Y-53925D01*
X86010Y-53924D01*
X85918Y-53962D01*
X85848Y-54033D01*
X85810Y-54125D01*
X85809Y-54224D01*
X85810Y-54337D01*
X85872Y-54400D01*
X86185Y-54400D01*
X86185Y-54500D01*
X85872Y-54500D01*
X85810Y-54562D01*
X85809Y-54675D01*
X85810Y-54774D01*
X85848Y-54866D01*
X85918Y-54937D01*
X86010Y-54975D01*
X86122Y-54975D01*
X86185Y-54912D01*
X86185Y-66770D01*
X79629Y-66770D01*
X79629Y-65425D01*
X79618Y-65217D01*
X79560Y-65077D01*
X79467Y-65052D01*
X79397Y-65123D01*
X79397Y-64982D01*
X79372Y-64889D01*
X79175Y-64820D01*
X78967Y-64831D01*
X78827Y-64889D01*
X78802Y-64982D01*
X79100Y-65279D01*
X79397Y-64982D01*
X79397Y-65123D01*
X79170Y-65350D01*
X79467Y-65647D01*
X79560Y-65622D01*
X79629Y-65425D01*
X79629Y-66770D01*
X79415Y-66770D01*
X79459Y-66752D01*
X79502Y-66710D01*
X79524Y-66654D01*
X79525Y-66595D01*
X79525Y-66045D01*
X79502Y-65990D01*
X79460Y-65947D01*
X79404Y-65925D01*
X79397Y-65925D01*
X79397Y-65717D01*
X79100Y-65420D01*
X78802Y-65717D01*
X78827Y-65810D01*
X79024Y-65879D01*
X79232Y-65868D01*
X79372Y-65810D01*
X79397Y-65717D01*
X79397Y-65925D01*
X79345Y-65924D01*
X78795Y-65924D01*
X78740Y-65947D01*
X78697Y-65989D01*
X78679Y-66034D01*
X78679Y-65633D01*
X78732Y-65647D01*
X79029Y-65350D01*
X78732Y-65052D01*
X78679Y-65066D01*
X78679Y-64445D01*
X78739Y-64590D01*
X78858Y-64710D01*
X79015Y-64774D01*
X79184Y-64775D01*
X79340Y-64710D01*
X79460Y-64591D01*
X79524Y-64434D01*
X79525Y-64265D01*
X79460Y-64109D01*
X79341Y-63989D01*
X79184Y-63925D01*
X79015Y-63924D01*
X78859Y-63989D01*
X78739Y-64108D01*
X78679Y-64254D01*
X78679Y-63445D01*
X78739Y-63590D01*
X78858Y-63710D01*
X79015Y-63774D01*
X79184Y-63775D01*
X79340Y-63710D01*
X79460Y-63591D01*
X79524Y-63434D01*
X79525Y-63265D01*
X79460Y-63109D01*
X79341Y-62989D01*
X79184Y-62925D01*
X79015Y-62924D01*
X78859Y-62989D01*
X78739Y-63108D01*
X78679Y-63254D01*
X78679Y-62445D01*
X78739Y-62590D01*
X78858Y-62710D01*
X79015Y-62774D01*
X79184Y-62775D01*
X79340Y-62710D01*
X79460Y-62591D01*
X79524Y-62434D01*
X79525Y-62265D01*
X79460Y-62109D01*
X79341Y-61989D01*
X79184Y-61925D01*
X79015Y-61924D01*
X78859Y-61989D01*
X78739Y-62108D01*
X78679Y-62254D01*
X78679Y-61445D01*
X78739Y-61590D01*
X78858Y-61710D01*
X79015Y-61774D01*
X79184Y-61775D01*
X79340Y-61710D01*
X79460Y-61591D01*
X79524Y-61434D01*
X79525Y-61265D01*
X79460Y-61109D01*
X79341Y-60989D01*
X79184Y-60925D01*
X79015Y-60924D01*
X78859Y-60989D01*
X78739Y-61108D01*
X78679Y-61254D01*
X78679Y-60445D01*
X78739Y-60590D01*
X78858Y-60710D01*
X79015Y-60774D01*
X79184Y-60775D01*
X79340Y-60710D01*
X79460Y-60591D01*
X79524Y-60434D01*
X79525Y-60265D01*
X79460Y-60109D01*
X79341Y-59989D01*
X79184Y-59925D01*
X79015Y-59924D01*
X78859Y-59989D01*
X78739Y-60108D01*
X78679Y-60254D01*
X78679Y-59445D01*
X78739Y-59590D01*
X78858Y-59710D01*
X79015Y-59774D01*
X79184Y-59775D01*
X79340Y-59710D01*
X79460Y-59591D01*
X79524Y-59434D01*
X79525Y-59265D01*
X79460Y-59109D01*
X79341Y-58989D01*
X79184Y-58925D01*
X79015Y-58924D01*
X78859Y-58989D01*
X78739Y-59108D01*
X78679Y-59254D01*
X78679Y-58445D01*
X78739Y-58590D01*
X78858Y-58710D01*
X79015Y-58774D01*
X79184Y-58775D01*
X79340Y-58710D01*
X79460Y-58591D01*
X79524Y-58434D01*
X79525Y-58265D01*
X79460Y-58109D01*
X79341Y-57989D01*
X79184Y-57925D01*
X79015Y-57924D01*
X78859Y-57989D01*
X78739Y-58108D01*
X78679Y-58254D01*
X78679Y-57445D01*
X78739Y-57590D01*
X78858Y-57710D01*
X79015Y-57774D01*
X79184Y-57775D01*
X79340Y-57710D01*
X79460Y-57591D01*
X79524Y-57434D01*
X79525Y-57265D01*
X79460Y-57109D01*
X79341Y-56989D01*
X79184Y-56925D01*
X79015Y-56924D01*
X78859Y-56989D01*
X78739Y-57108D01*
X78679Y-57254D01*
X78679Y-56445D01*
X78739Y-56590D01*
X78858Y-56710D01*
X79015Y-56774D01*
X79184Y-56775D01*
X79340Y-56710D01*
X79460Y-56591D01*
X79524Y-56434D01*
X79525Y-56265D01*
X79460Y-56109D01*
X79341Y-55989D01*
X79184Y-55925D01*
X79015Y-55924D01*
X78859Y-55989D01*
X78739Y-56108D01*
X78679Y-56254D01*
X78679Y-55445D01*
X78739Y-55590D01*
X78858Y-55710D01*
X79015Y-55774D01*
X79184Y-55775D01*
X79340Y-55710D01*
X79460Y-55591D01*
X79524Y-55434D01*
X79525Y-55265D01*
X79460Y-55109D01*
X79341Y-54989D01*
X79184Y-54925D01*
X79015Y-54924D01*
X78859Y-54989D01*
X78739Y-55108D01*
X78679Y-55254D01*
X78679Y-54445D01*
X78739Y-54590D01*
X78858Y-54710D01*
X79015Y-54774D01*
X79184Y-54775D01*
X79340Y-54710D01*
X79460Y-54591D01*
X79524Y-54434D01*
X79525Y-54265D01*
X79460Y-54109D01*
X79341Y-53989D01*
X79184Y-53925D01*
X79015Y-53924D01*
X78859Y-53989D01*
X78739Y-54108D01*
X78679Y-54254D01*
X78679Y-53650D01*
X78665Y-53581D01*
X78626Y-53523D01*
X78568Y-53484D01*
X78500Y-53470D01*
X76925Y-53470D01*
X76925Y-53212D01*
X76925Y-52800D01*
X76612Y-52800D01*
X76550Y-52862D01*
X76549Y-52975D01*
X76550Y-53074D01*
X76588Y-53166D01*
X76658Y-53237D01*
X76750Y-53275D01*
X76862Y-53275D01*
X76925Y-53212D01*
X76925Y-53470D01*
X75879Y-53470D01*
X75879Y-52225D01*
X75868Y-52017D01*
X75810Y-51877D01*
X75717Y-51852D01*
X75647Y-51923D01*
X75420Y-52150D01*
X75717Y-52447D01*
X75810Y-52422D01*
X75879Y-52225D01*
X75879Y-53470D01*
X75768Y-53470D01*
X75774Y-53454D01*
X75775Y-53395D01*
X75775Y-52845D01*
X75752Y-52790D01*
X75710Y-52747D01*
X75654Y-52725D01*
X75647Y-52725D01*
X75595Y-52724D01*
X75045Y-52724D01*
X75029Y-52731D01*
X75029Y-52541D01*
X75052Y-52517D01*
X75077Y-52610D01*
X75274Y-52679D01*
X75482Y-52668D01*
X75622Y-52610D01*
X75647Y-52517D01*
X75350Y-52220D01*
X75344Y-52226D01*
X75273Y-52155D01*
X75279Y-52150D01*
X75273Y-52144D01*
X75344Y-52073D01*
X75350Y-52079D01*
X75647Y-51782D01*
X75622Y-51689D01*
X75425Y-51620D01*
X75217Y-51631D01*
X75077Y-51689D01*
X75052Y-51782D01*
X75029Y-51758D01*
X75029Y-51430D01*
X75108Y-51510D01*
X75265Y-51574D01*
X75434Y-51575D01*
X75590Y-51510D01*
X75710Y-51391D01*
X75774Y-51234D01*
X75775Y-51065D01*
X75710Y-50909D01*
X75591Y-50789D01*
X75434Y-50725D01*
X75265Y-50724D01*
X75109Y-50789D01*
X75029Y-50869D01*
X75029Y-50430D01*
X75108Y-50510D01*
X75265Y-50574D01*
X75434Y-50575D01*
X75590Y-50510D01*
X75710Y-50391D01*
X75774Y-50234D01*
X75775Y-50065D01*
X75710Y-49909D01*
X75591Y-49789D01*
X75434Y-49725D01*
X75265Y-49724D01*
X75109Y-49789D01*
X75029Y-49869D01*
X75029Y-48529D01*
X95670Y-48529D01*
X95670Y-66770D01*
M02*
