G04 (created by PCBNEW (2012-nov-02)-testing) date Wed 19 Jun 2013 11:23:47 AM CDT*
%MOIN*%
G04 Gerber Fmt 3.4, Leading zero omitted, Abs format*
%FSLAX34Y34*%
G01*
G70*
G90*
G04 APERTURE LIST*
%ADD10C,0.006*%
%ADD11R,0.05X0.015*%
%ADD12R,0.09X0.04*%
%ADD13R,0.04X0.09*%
G04 APERTURE END LIST*
G54D10*
G54D11*
X82640Y-51506D03*
X82640Y-51762D03*
X82640Y-52018D03*
X82640Y-52274D03*
X80940Y-52274D03*
X80940Y-52018D03*
X80940Y-51762D03*
X80940Y-51506D03*
G54D12*
X91100Y-49850D03*
X91100Y-50350D03*
X91100Y-50850D03*
X91100Y-51350D03*
X91100Y-51850D03*
X91100Y-52350D03*
X91100Y-52850D03*
X91100Y-53350D03*
X91100Y-53850D03*
X91100Y-54350D03*
X91100Y-54850D03*
X91100Y-55350D03*
X91100Y-55850D03*
X91100Y-56350D03*
X91100Y-56850D03*
X91100Y-57350D03*
X91100Y-57850D03*
X91100Y-58350D03*
X91100Y-58850D03*
X91100Y-59350D03*
G54D13*
X89250Y-59700D03*
X88750Y-59700D03*
X88250Y-59700D03*
X87750Y-59700D03*
X87250Y-59700D03*
X86750Y-59700D03*
X86250Y-59700D03*
G54D12*
X84400Y-59350D03*
X84400Y-58850D03*
X84400Y-58350D03*
X84400Y-57850D03*
X84400Y-57350D03*
X84400Y-56850D03*
X84400Y-56350D03*
X84400Y-55850D03*
X84400Y-55350D03*
X84400Y-54850D03*
X84400Y-54350D03*
X84400Y-53850D03*
X84400Y-53350D03*
X84400Y-52850D03*
X84400Y-52350D03*
X84400Y-51850D03*
X84400Y-51350D03*
X84400Y-50850D03*
X84400Y-50350D03*
X84400Y-49850D03*
G54D13*
X89750Y-49500D03*
X88250Y-49500D03*
M02*
