G04 (created by PCBNEW (2012-nov-02)-testing) date Wed 19 Jun 2013 11:23:47 AM CDT*
%MOIN*%
G04 Gerber Fmt 3.4, Leading zero omitted, Abs format*
%FSLAX34Y34*%
G01*
G70*
G90*
G04 APERTURE LIST*
%ADD10C,0.006*%
%ADD11R,0.05X0.015*%
%ADD12R,0.144X0.08*%
%ADD13R,0.04X0.08*%
%ADD14R,0.06X0.08*%
%ADD15R,0.035X0.055*%
G04 APERTURE END LIST*
G54D10*
G54D11*
X82752Y-50846D03*
X82752Y-50590D03*
X82752Y-50334D03*
X82752Y-50078D03*
X82752Y-49822D03*
X82752Y-49566D03*
X82752Y-49310D03*
X82752Y-49054D03*
X80548Y-49054D03*
X80548Y-49310D03*
X80548Y-49566D03*
X80548Y-49822D03*
X80548Y-50078D03*
X80548Y-50334D03*
X80548Y-50590D03*
X80548Y-50846D03*
G54D12*
X93800Y-50000D03*
G54D13*
X93800Y-52600D03*
X94700Y-52600D03*
X92900Y-52600D03*
G54D14*
X94300Y-54220D03*
X93000Y-54220D03*
G54D15*
X86985Y-54450D03*
X86235Y-54450D03*
X86985Y-53350D03*
X86235Y-53350D03*
X86985Y-52250D03*
X86235Y-52250D03*
X89235Y-54450D03*
X88485Y-54450D03*
X89235Y-53350D03*
X88485Y-53350D03*
X89235Y-52250D03*
X88485Y-52250D03*
X76975Y-50550D03*
X77725Y-50550D03*
X76975Y-49450D03*
X77725Y-49450D03*
X77725Y-51650D03*
X76975Y-51650D03*
X77725Y-52750D03*
X76975Y-52750D03*
X86985Y-51150D03*
X86235Y-51150D03*
X89235Y-51150D03*
X88485Y-51150D03*
M02*
