M48
;DRILL file {Pcbnew (2012-nov-02)-testing} date Wed 19 Jun 2013 11:24:02 AM CDT
;FORMAT={-:-/ absolute / inch / decimal}
FMAT,2
INCH,TZ
T1C0.025
T2C0.032
T3C0.040
T4C0.045
%
G90
G05
M72
T1
X7.99Y-5.069
X8.008Y-5.246
X8.121Y-5.059
X8.183Y-5.166
X8.196Y-5.243
X8.316Y-5.316
X8.342Y-5.034
X8.342Y-5.085
X8.357Y-4.985
X8.357Y-5.385
X8.357Y-5.935
X8.675Y-5.887
X8.825Y-5.038
X8.875Y-5.887
X8.999Y-5.126
X8.999Y-5.265
X8.999Y-5.335
X8.999Y-5.405
X9.193Y-4.985
X9.193Y-5.635
X9.193Y-5.935
X9.232Y-5.488
X9.346Y-5.339
T2
X7.535Y-5.015
X7.535Y-5.115
X7.535Y-5.215
X7.535Y-5.315
X7.91Y-4.935
X7.91Y-5.035
X7.91Y-5.135
X7.91Y-5.235
X7.91Y-5.335
X7.91Y-5.435
X7.91Y-5.535
X7.91Y-5.635
X7.91Y-5.735
X7.91Y-5.835
X7.91Y-5.935
X7.91Y-6.035
X7.91Y-6.135
X7.91Y-6.235
X7.91Y-6.335
X7.91Y-6.435
X7.91Y-6.535
X7.91Y-6.635
T3
X8.114Y-5.357
X8.114Y-5.457
X8.214Y-5.357
X8.214Y-5.457
T4
X8.775Y-6.105
T0
M30
