G04 (created by PCBNEW (2012-nov-02)-testing) date Wed 19 Jun 2013 11:23:59 AM CDT*
%MOIN*%
G04 Gerber Fmt 3.4, Leading zero omitted, Abs format*
%FSLAX34Y34*%
G01*
G70*
G90*
G04 APERTURE LIST*
%ADD10C,0.006*%
%ADD11C,0.00625*%
%ADD12C,0.008*%
%ADD13C,0.005*%
%ADD14C,0.01*%
%ADD15C,0.00590551*%
%ADD16C,0.0039*%
%ADD17C,0.012*%
%ADD18C,0.015*%
%ADD19C,0.0075*%
%ADD20C,0.0043*%
G04 APERTURE END LIST*
G54D10*
G54D11*
X80542Y-65101D02*
X80625Y-65351D01*
X80709Y-65101D01*
X80887Y-65339D02*
X80863Y-65351D01*
X80816Y-65351D01*
X80792Y-65339D01*
X80780Y-65315D01*
X80780Y-65220D01*
X80792Y-65196D01*
X80816Y-65184D01*
X80863Y-65184D01*
X80887Y-65196D01*
X80899Y-65220D01*
X80899Y-65244D01*
X80780Y-65267D01*
X81006Y-65351D02*
X81006Y-65184D01*
X81006Y-65232D02*
X81018Y-65208D01*
X81030Y-65196D01*
X81054Y-65184D01*
X81078Y-65184D01*
X81149Y-65339D02*
X81173Y-65351D01*
X81220Y-65351D01*
X81244Y-65339D01*
X81256Y-65315D01*
X81256Y-65303D01*
X81244Y-65279D01*
X81220Y-65267D01*
X81185Y-65267D01*
X81161Y-65255D01*
X81149Y-65232D01*
X81149Y-65220D01*
X81161Y-65196D01*
X81185Y-65184D01*
X81220Y-65184D01*
X81244Y-65196D01*
X81363Y-65351D02*
X81363Y-65184D01*
X81363Y-65101D02*
X81351Y-65113D01*
X81363Y-65125D01*
X81375Y-65113D01*
X81363Y-65101D01*
X81363Y-65125D01*
X81518Y-65351D02*
X81494Y-65339D01*
X81482Y-65327D01*
X81470Y-65303D01*
X81470Y-65232D01*
X81482Y-65208D01*
X81494Y-65196D01*
X81518Y-65184D01*
X81554Y-65184D01*
X81578Y-65196D01*
X81590Y-65208D01*
X81601Y-65232D01*
X81601Y-65303D01*
X81590Y-65327D01*
X81578Y-65339D01*
X81554Y-65351D01*
X81518Y-65351D01*
X81709Y-65184D02*
X81709Y-65351D01*
X81709Y-65208D02*
X81720Y-65196D01*
X81744Y-65184D01*
X81780Y-65184D01*
X81804Y-65196D01*
X81816Y-65220D01*
X81816Y-65351D01*
X82173Y-65101D02*
X82197Y-65101D01*
X82220Y-65113D01*
X82232Y-65125D01*
X82244Y-65148D01*
X82256Y-65196D01*
X82256Y-65255D01*
X82244Y-65303D01*
X82232Y-65327D01*
X82220Y-65339D01*
X82197Y-65351D01*
X82173Y-65351D01*
X82149Y-65339D01*
X82137Y-65327D01*
X82125Y-65303D01*
X82113Y-65255D01*
X82113Y-65196D01*
X82125Y-65148D01*
X82137Y-65125D01*
X82149Y-65113D01*
X82173Y-65101D01*
X82363Y-65327D02*
X82375Y-65339D01*
X82363Y-65351D01*
X82351Y-65339D01*
X82363Y-65327D01*
X82363Y-65351D01*
X82470Y-65125D02*
X82482Y-65113D01*
X82506Y-65101D01*
X82566Y-65101D01*
X82590Y-65113D01*
X82601Y-65125D01*
X82613Y-65148D01*
X82613Y-65172D01*
X82601Y-65208D01*
X82459Y-65351D01*
X82613Y-65351D01*
G54D12*
X83087Y-53165D02*
X83087Y-53298D01*
X82878Y-53355D02*
X82878Y-53165D01*
X83278Y-53165D01*
X83278Y-53355D01*
X83144Y-53527D02*
X82878Y-53527D01*
X83106Y-53527D02*
X83125Y-53546D01*
X83144Y-53584D01*
X83144Y-53641D01*
X83125Y-53679D01*
X83087Y-53698D01*
X82878Y-53698D01*
X82878Y-54060D02*
X83087Y-54060D01*
X83125Y-54041D01*
X83144Y-54003D01*
X83144Y-53927D01*
X83125Y-53889D01*
X82897Y-54060D02*
X82878Y-54022D01*
X82878Y-53927D01*
X82897Y-53889D01*
X82935Y-53870D01*
X82973Y-53870D01*
X83011Y-53889D01*
X83030Y-53927D01*
X83030Y-54022D01*
X83049Y-54060D01*
X82878Y-54250D02*
X83278Y-54250D01*
X83125Y-54250D02*
X83144Y-54289D01*
X83144Y-54365D01*
X83125Y-54403D01*
X83106Y-54422D01*
X83068Y-54441D01*
X82954Y-54441D01*
X82916Y-54422D01*
X82897Y-54403D01*
X82878Y-54365D01*
X82878Y-54289D01*
X82897Y-54250D01*
X82878Y-54670D02*
X82897Y-54631D01*
X82935Y-54612D01*
X83278Y-54612D01*
X82897Y-54974D02*
X82878Y-54936D01*
X82878Y-54860D01*
X82897Y-54822D01*
X82935Y-54803D01*
X83087Y-54803D01*
X83125Y-54822D01*
X83144Y-54860D01*
X83144Y-54936D01*
X83125Y-54974D01*
X83087Y-54993D01*
X83049Y-54993D01*
X83011Y-54803D01*
G54D13*
X80673Y-66451D02*
X80554Y-66451D01*
X80554Y-66201D01*
X80757Y-66451D02*
X80757Y-66284D01*
X80757Y-66201D02*
X80745Y-66213D01*
X80757Y-66225D01*
X80769Y-66213D01*
X80757Y-66201D01*
X80757Y-66225D01*
X80983Y-66439D02*
X80959Y-66451D01*
X80911Y-66451D01*
X80888Y-66439D01*
X80876Y-66427D01*
X80864Y-66403D01*
X80864Y-66332D01*
X80876Y-66308D01*
X80888Y-66296D01*
X80911Y-66284D01*
X80959Y-66284D01*
X80983Y-66296D01*
X81185Y-66439D02*
X81161Y-66451D01*
X81114Y-66451D01*
X81090Y-66439D01*
X81078Y-66415D01*
X81078Y-66320D01*
X81090Y-66296D01*
X81114Y-66284D01*
X81161Y-66284D01*
X81185Y-66296D01*
X81197Y-66320D01*
X81197Y-66344D01*
X81078Y-66367D01*
X81304Y-66284D02*
X81304Y-66451D01*
X81304Y-66308D02*
X81316Y-66296D01*
X81340Y-66284D01*
X81376Y-66284D01*
X81399Y-66296D01*
X81411Y-66320D01*
X81411Y-66451D01*
X81519Y-66439D02*
X81542Y-66451D01*
X81590Y-66451D01*
X81614Y-66439D01*
X81626Y-66415D01*
X81626Y-66403D01*
X81614Y-66379D01*
X81590Y-66367D01*
X81554Y-66367D01*
X81530Y-66355D01*
X81519Y-66332D01*
X81519Y-66320D01*
X81530Y-66296D01*
X81554Y-66284D01*
X81590Y-66284D01*
X81614Y-66296D01*
X81828Y-66439D02*
X81804Y-66451D01*
X81757Y-66451D01*
X81733Y-66439D01*
X81721Y-66415D01*
X81721Y-66320D01*
X81733Y-66296D01*
X81757Y-66284D01*
X81804Y-66284D01*
X81828Y-66296D01*
X81840Y-66320D01*
X81840Y-66344D01*
X81721Y-66367D01*
X81947Y-66427D02*
X81959Y-66439D01*
X81947Y-66451D01*
X81935Y-66439D01*
X81947Y-66427D01*
X81947Y-66451D01*
X81947Y-66296D02*
X81959Y-66308D01*
X81947Y-66320D01*
X81935Y-66308D01*
X81947Y-66296D01*
X81947Y-66320D01*
X82399Y-66427D02*
X82388Y-66439D01*
X82352Y-66451D01*
X82328Y-66451D01*
X82292Y-66439D01*
X82269Y-66415D01*
X82257Y-66391D01*
X82245Y-66344D01*
X82245Y-66308D01*
X82257Y-66260D01*
X82269Y-66236D01*
X82292Y-66213D01*
X82328Y-66201D01*
X82352Y-66201D01*
X82388Y-66213D01*
X82399Y-66225D01*
X82507Y-66451D02*
X82507Y-66284D01*
X82507Y-66332D02*
X82519Y-66308D01*
X82530Y-66296D01*
X82554Y-66284D01*
X82578Y-66284D01*
X82757Y-66439D02*
X82733Y-66451D01*
X82685Y-66451D01*
X82661Y-66439D01*
X82649Y-66415D01*
X82649Y-66320D01*
X82661Y-66296D01*
X82685Y-66284D01*
X82733Y-66284D01*
X82757Y-66296D01*
X82769Y-66320D01*
X82769Y-66344D01*
X82649Y-66367D01*
X82983Y-66451D02*
X82983Y-66320D01*
X82971Y-66296D01*
X82947Y-66284D01*
X82899Y-66284D01*
X82876Y-66296D01*
X82983Y-66439D02*
X82959Y-66451D01*
X82899Y-66451D01*
X82876Y-66439D01*
X82864Y-66415D01*
X82864Y-66391D01*
X82876Y-66367D01*
X82899Y-66355D01*
X82959Y-66355D01*
X82983Y-66344D01*
X83066Y-66284D02*
X83161Y-66284D01*
X83102Y-66201D02*
X83102Y-66415D01*
X83114Y-66439D01*
X83138Y-66451D01*
X83161Y-66451D01*
X83245Y-66451D02*
X83245Y-66284D01*
X83245Y-66201D02*
X83233Y-66213D01*
X83245Y-66225D01*
X83257Y-66213D01*
X83245Y-66201D01*
X83245Y-66225D01*
X83340Y-66284D02*
X83399Y-66451D01*
X83459Y-66284D01*
X83649Y-66439D02*
X83626Y-66451D01*
X83578Y-66451D01*
X83554Y-66439D01*
X83542Y-66415D01*
X83542Y-66320D01*
X83554Y-66296D01*
X83578Y-66284D01*
X83626Y-66284D01*
X83649Y-66296D01*
X83661Y-66320D01*
X83661Y-66344D01*
X83542Y-66367D01*
X84102Y-66427D02*
X84090Y-66439D01*
X84054Y-66451D01*
X84030Y-66451D01*
X83995Y-66439D01*
X83971Y-66415D01*
X83959Y-66391D01*
X83947Y-66344D01*
X83947Y-66308D01*
X83959Y-66260D01*
X83971Y-66236D01*
X83995Y-66213D01*
X84030Y-66201D01*
X84054Y-66201D01*
X84090Y-66213D01*
X84102Y-66225D01*
X84245Y-66451D02*
X84221Y-66439D01*
X84209Y-66427D01*
X84197Y-66403D01*
X84197Y-66332D01*
X84209Y-66308D01*
X84221Y-66296D01*
X84245Y-66284D01*
X84280Y-66284D01*
X84304Y-66296D01*
X84316Y-66308D01*
X84328Y-66332D01*
X84328Y-66403D01*
X84316Y-66427D01*
X84304Y-66439D01*
X84280Y-66451D01*
X84245Y-66451D01*
X84435Y-66451D02*
X84435Y-66284D01*
X84435Y-66308D02*
X84447Y-66296D01*
X84471Y-66284D01*
X84507Y-66284D01*
X84530Y-66296D01*
X84542Y-66320D01*
X84542Y-66451D01*
X84542Y-66320D02*
X84554Y-66296D01*
X84578Y-66284D01*
X84614Y-66284D01*
X84638Y-66296D01*
X84650Y-66320D01*
X84650Y-66451D01*
X84769Y-66451D02*
X84769Y-66284D01*
X84769Y-66308D02*
X84780Y-66296D01*
X84804Y-66284D01*
X84840Y-66284D01*
X84864Y-66296D01*
X84876Y-66320D01*
X84876Y-66451D01*
X84876Y-66320D02*
X84888Y-66296D01*
X84911Y-66284D01*
X84947Y-66284D01*
X84971Y-66296D01*
X84983Y-66320D01*
X84983Y-66451D01*
X85138Y-66451D02*
X85114Y-66439D01*
X85102Y-66427D01*
X85090Y-66403D01*
X85090Y-66332D01*
X85102Y-66308D01*
X85114Y-66296D01*
X85138Y-66284D01*
X85173Y-66284D01*
X85197Y-66296D01*
X85209Y-66308D01*
X85221Y-66332D01*
X85221Y-66403D01*
X85209Y-66427D01*
X85197Y-66439D01*
X85173Y-66451D01*
X85138Y-66451D01*
X85328Y-66284D02*
X85328Y-66451D01*
X85328Y-66308D02*
X85340Y-66296D01*
X85364Y-66284D01*
X85400Y-66284D01*
X85423Y-66296D01*
X85435Y-66320D01*
X85435Y-66451D01*
X85542Y-66439D02*
X85566Y-66451D01*
X85614Y-66451D01*
X85638Y-66439D01*
X85650Y-66415D01*
X85650Y-66403D01*
X85638Y-66379D01*
X85614Y-66367D01*
X85578Y-66367D01*
X85554Y-66355D01*
X85542Y-66332D01*
X85542Y-66320D01*
X85554Y-66296D01*
X85578Y-66284D01*
X85614Y-66284D01*
X85638Y-66296D01*
X85935Y-66379D02*
X86054Y-66379D01*
X85911Y-66451D02*
X85995Y-66201D01*
X86078Y-66451D01*
X86126Y-66284D02*
X86221Y-66284D01*
X86161Y-66201D02*
X86161Y-66415D01*
X86173Y-66439D01*
X86197Y-66451D01*
X86221Y-66451D01*
X86269Y-66284D02*
X86364Y-66284D01*
X86304Y-66201D02*
X86304Y-66415D01*
X86316Y-66439D01*
X86340Y-66451D01*
X86364Y-66451D01*
X86447Y-66451D02*
X86447Y-66284D01*
X86447Y-66332D02*
X86459Y-66308D01*
X86471Y-66296D01*
X86495Y-66284D01*
X86519Y-66284D01*
X86602Y-66451D02*
X86602Y-66284D01*
X86602Y-66201D02*
X86590Y-66213D01*
X86602Y-66225D01*
X86614Y-66213D01*
X86602Y-66201D01*
X86602Y-66225D01*
X86721Y-66451D02*
X86721Y-66201D01*
X86721Y-66296D02*
X86745Y-66284D01*
X86792Y-66284D01*
X86816Y-66296D01*
X86828Y-66308D01*
X86840Y-66332D01*
X86840Y-66403D01*
X86828Y-66427D01*
X86816Y-66439D01*
X86792Y-66451D01*
X86745Y-66451D01*
X86721Y-66439D01*
X87054Y-66284D02*
X87054Y-66451D01*
X86947Y-66284D02*
X86947Y-66415D01*
X86959Y-66439D01*
X86983Y-66451D01*
X87019Y-66451D01*
X87042Y-66439D01*
X87054Y-66427D01*
X87138Y-66284D02*
X87233Y-66284D01*
X87173Y-66201D02*
X87173Y-66415D01*
X87185Y-66439D01*
X87209Y-66451D01*
X87233Y-66451D01*
X87316Y-66451D02*
X87316Y-66284D01*
X87316Y-66201D02*
X87304Y-66213D01*
X87316Y-66225D01*
X87328Y-66213D01*
X87316Y-66201D01*
X87316Y-66225D01*
X87471Y-66451D02*
X87447Y-66439D01*
X87435Y-66427D01*
X87423Y-66403D01*
X87423Y-66332D01*
X87435Y-66308D01*
X87447Y-66296D01*
X87471Y-66284D01*
X87507Y-66284D01*
X87530Y-66296D01*
X87542Y-66308D01*
X87554Y-66332D01*
X87554Y-66403D01*
X87542Y-66427D01*
X87530Y-66439D01*
X87507Y-66451D01*
X87471Y-66451D01*
X87661Y-66284D02*
X87661Y-66451D01*
X87661Y-66308D02*
X87673Y-66296D01*
X87697Y-66284D01*
X87733Y-66284D01*
X87757Y-66296D01*
X87769Y-66320D01*
X87769Y-66451D01*
X87888Y-66355D02*
X88078Y-66355D01*
X88185Y-66439D02*
X88221Y-66451D01*
X88280Y-66451D01*
X88304Y-66439D01*
X88316Y-66427D01*
X88328Y-66403D01*
X88328Y-66379D01*
X88316Y-66355D01*
X88304Y-66344D01*
X88280Y-66332D01*
X88233Y-66320D01*
X88209Y-66308D01*
X88197Y-66296D01*
X88185Y-66272D01*
X88185Y-66248D01*
X88197Y-66225D01*
X88209Y-66213D01*
X88233Y-66201D01*
X88292Y-66201D01*
X88328Y-66213D01*
X88435Y-66451D02*
X88435Y-66201D01*
X88542Y-66451D02*
X88542Y-66320D01*
X88530Y-66296D01*
X88507Y-66284D01*
X88471Y-66284D01*
X88447Y-66296D01*
X88435Y-66308D01*
X88769Y-66451D02*
X88769Y-66320D01*
X88757Y-66296D01*
X88733Y-66284D01*
X88685Y-66284D01*
X88661Y-66296D01*
X88769Y-66439D02*
X88745Y-66451D01*
X88685Y-66451D01*
X88661Y-66439D01*
X88650Y-66415D01*
X88650Y-66391D01*
X88661Y-66367D01*
X88685Y-66355D01*
X88745Y-66355D01*
X88769Y-66344D01*
X88888Y-66451D02*
X88888Y-66284D01*
X88888Y-66332D02*
X88900Y-66308D01*
X88911Y-66296D01*
X88935Y-66284D01*
X88959Y-66284D01*
X89138Y-66439D02*
X89114Y-66451D01*
X89066Y-66451D01*
X89042Y-66439D01*
X89030Y-66415D01*
X89030Y-66320D01*
X89042Y-66296D01*
X89066Y-66284D01*
X89114Y-66284D01*
X89138Y-66296D01*
X89150Y-66320D01*
X89150Y-66344D01*
X89030Y-66367D01*
X89245Y-66379D02*
X89364Y-66379D01*
X89221Y-66451D02*
X89304Y-66201D01*
X89388Y-66451D01*
X89507Y-66451D02*
X89483Y-66439D01*
X89471Y-66415D01*
X89471Y-66201D01*
X89602Y-66451D02*
X89602Y-66284D01*
X89602Y-66201D02*
X89590Y-66213D01*
X89602Y-66225D01*
X89614Y-66213D01*
X89602Y-66201D01*
X89602Y-66225D01*
X89721Y-66451D02*
X89721Y-66201D01*
X89745Y-66355D02*
X89816Y-66451D01*
X89816Y-66284D02*
X89721Y-66379D01*
X90019Y-66439D02*
X89995Y-66451D01*
X89947Y-66451D01*
X89923Y-66439D01*
X89911Y-66415D01*
X89911Y-66320D01*
X89923Y-66296D01*
X89947Y-66284D01*
X89995Y-66284D01*
X90019Y-66296D01*
X90030Y-66320D01*
X90030Y-66344D01*
X89911Y-66367D01*
X90400Y-66546D02*
X90388Y-66534D01*
X90364Y-66498D01*
X90352Y-66475D01*
X90340Y-66439D01*
X90328Y-66379D01*
X90328Y-66332D01*
X90340Y-66272D01*
X90352Y-66236D01*
X90364Y-66213D01*
X90388Y-66177D01*
X90400Y-66165D01*
X90638Y-66427D02*
X90626Y-66439D01*
X90590Y-66451D01*
X90566Y-66451D01*
X90530Y-66439D01*
X90507Y-66415D01*
X90495Y-66391D01*
X90483Y-66344D01*
X90483Y-66308D01*
X90495Y-66260D01*
X90507Y-66236D01*
X90530Y-66213D01*
X90566Y-66201D01*
X90590Y-66201D01*
X90626Y-66213D01*
X90638Y-66225D01*
X90888Y-66427D02*
X90876Y-66439D01*
X90840Y-66451D01*
X90816Y-66451D01*
X90780Y-66439D01*
X90757Y-66415D01*
X90745Y-66391D01*
X90733Y-66344D01*
X90733Y-66308D01*
X90745Y-66260D01*
X90757Y-66236D01*
X90780Y-66213D01*
X90816Y-66201D01*
X90840Y-66201D01*
X90876Y-66213D01*
X90888Y-66225D01*
X91161Y-66201D02*
X91316Y-66201D01*
X91233Y-66296D01*
X91269Y-66296D01*
X91292Y-66308D01*
X91304Y-66320D01*
X91316Y-66344D01*
X91316Y-66403D01*
X91304Y-66427D01*
X91292Y-66439D01*
X91269Y-66451D01*
X91197Y-66451D01*
X91173Y-66439D01*
X91161Y-66427D01*
X91423Y-66427D02*
X91435Y-66439D01*
X91423Y-66451D01*
X91411Y-66439D01*
X91423Y-66427D01*
X91423Y-66451D01*
X91590Y-66201D02*
X91614Y-66201D01*
X91638Y-66213D01*
X91650Y-66225D01*
X91661Y-66248D01*
X91673Y-66296D01*
X91673Y-66355D01*
X91661Y-66403D01*
X91650Y-66427D01*
X91638Y-66439D01*
X91614Y-66451D01*
X91590Y-66451D01*
X91566Y-66439D01*
X91554Y-66427D01*
X91542Y-66403D01*
X91530Y-66355D01*
X91530Y-66296D01*
X91542Y-66248D01*
X91554Y-66225D01*
X91566Y-66213D01*
X91590Y-66201D01*
X92054Y-66320D02*
X92090Y-66332D01*
X92102Y-66344D01*
X92114Y-66367D01*
X92114Y-66403D01*
X92102Y-66427D01*
X92090Y-66439D01*
X92066Y-66451D01*
X91971Y-66451D01*
X91971Y-66201D01*
X92054Y-66201D01*
X92078Y-66213D01*
X92090Y-66225D01*
X92102Y-66248D01*
X92102Y-66272D01*
X92090Y-66296D01*
X92078Y-66308D01*
X92054Y-66320D01*
X91971Y-66320D01*
X92269Y-66332D02*
X92269Y-66451D01*
X92185Y-66201D02*
X92269Y-66332D01*
X92352Y-66201D01*
X92435Y-66355D02*
X92626Y-66355D01*
X92733Y-66439D02*
X92769Y-66451D01*
X92828Y-66451D01*
X92852Y-66439D01*
X92864Y-66427D01*
X92876Y-66403D01*
X92876Y-66379D01*
X92864Y-66355D01*
X92852Y-66344D01*
X92828Y-66332D01*
X92780Y-66320D01*
X92757Y-66308D01*
X92745Y-66296D01*
X92733Y-66272D01*
X92733Y-66248D01*
X92745Y-66225D01*
X92757Y-66213D01*
X92780Y-66201D01*
X92840Y-66201D01*
X92876Y-66213D01*
X92971Y-66379D02*
X93090Y-66379D01*
X92947Y-66451D02*
X93030Y-66201D01*
X93114Y-66451D01*
X93173Y-66546D02*
X93185Y-66534D01*
X93209Y-66498D01*
X93221Y-66475D01*
X93233Y-66439D01*
X93245Y-66379D01*
X93245Y-66332D01*
X93233Y-66272D01*
X93221Y-66236D01*
X93209Y-66213D01*
X93185Y-66177D01*
X93173Y-66165D01*
X80599Y-65651D02*
X80647Y-65651D01*
X80671Y-65663D01*
X80695Y-65686D01*
X80707Y-65734D01*
X80707Y-65817D01*
X80695Y-65865D01*
X80671Y-65889D01*
X80647Y-65901D01*
X80599Y-65901D01*
X80576Y-65889D01*
X80552Y-65865D01*
X80540Y-65817D01*
X80540Y-65734D01*
X80552Y-65686D01*
X80576Y-65663D01*
X80599Y-65651D01*
X80814Y-65901D02*
X80814Y-65651D01*
X80873Y-65651D01*
X80909Y-65663D01*
X80933Y-65686D01*
X80945Y-65710D01*
X80957Y-65758D01*
X80957Y-65794D01*
X80945Y-65841D01*
X80933Y-65865D01*
X80909Y-65889D01*
X80873Y-65901D01*
X80814Y-65901D01*
X81064Y-65901D02*
X81064Y-65651D01*
X81123Y-65651D01*
X81159Y-65663D01*
X81183Y-65686D01*
X81195Y-65710D01*
X81207Y-65758D01*
X81207Y-65794D01*
X81195Y-65841D01*
X81183Y-65865D01*
X81159Y-65889D01*
X81123Y-65901D01*
X81064Y-65901D01*
X81409Y-65889D02*
X81385Y-65901D01*
X81338Y-65901D01*
X81314Y-65889D01*
X81302Y-65865D01*
X81302Y-65770D01*
X81314Y-65746D01*
X81338Y-65734D01*
X81385Y-65734D01*
X81409Y-65746D01*
X81421Y-65770D01*
X81421Y-65794D01*
X81302Y-65817D01*
X81528Y-65734D02*
X81528Y-65984D01*
X81528Y-65746D02*
X81552Y-65734D01*
X81599Y-65734D01*
X81623Y-65746D01*
X81635Y-65758D01*
X81647Y-65782D01*
X81647Y-65853D01*
X81635Y-65877D01*
X81623Y-65889D01*
X81599Y-65901D01*
X81552Y-65901D01*
X81528Y-65889D01*
X81790Y-65901D02*
X81766Y-65889D01*
X81754Y-65877D01*
X81742Y-65853D01*
X81742Y-65782D01*
X81754Y-65758D01*
X81766Y-65746D01*
X81790Y-65734D01*
X81826Y-65734D01*
X81849Y-65746D01*
X81861Y-65758D01*
X81873Y-65782D01*
X81873Y-65853D01*
X81861Y-65877D01*
X81849Y-65889D01*
X81826Y-65901D01*
X81790Y-65901D01*
X81945Y-65734D02*
X82040Y-65734D01*
X81980Y-65651D02*
X81980Y-65865D01*
X81992Y-65889D01*
X82016Y-65901D01*
X82040Y-65901D01*
X82123Y-65877D02*
X82135Y-65889D01*
X82123Y-65901D01*
X82111Y-65889D01*
X82123Y-65877D01*
X82123Y-65901D01*
X82349Y-65889D02*
X82326Y-65901D01*
X82278Y-65901D01*
X82254Y-65889D01*
X82242Y-65877D01*
X82230Y-65853D01*
X82230Y-65782D01*
X82242Y-65758D01*
X82254Y-65746D01*
X82278Y-65734D01*
X82326Y-65734D01*
X82349Y-65746D01*
X82492Y-65901D02*
X82469Y-65889D01*
X82457Y-65877D01*
X82445Y-65853D01*
X82445Y-65782D01*
X82457Y-65758D01*
X82469Y-65746D01*
X82492Y-65734D01*
X82528Y-65734D01*
X82552Y-65746D01*
X82564Y-65758D01*
X82576Y-65782D01*
X82576Y-65853D01*
X82564Y-65877D01*
X82552Y-65889D01*
X82528Y-65901D01*
X82492Y-65901D01*
X82683Y-65901D02*
X82683Y-65734D01*
X82683Y-65758D02*
X82695Y-65746D01*
X82719Y-65734D01*
X82754Y-65734D01*
X82778Y-65746D01*
X82790Y-65770D01*
X82790Y-65901D01*
X82790Y-65770D02*
X82802Y-65746D01*
X82826Y-65734D01*
X82861Y-65734D01*
X82885Y-65746D01*
X82897Y-65770D01*
X82897Y-65901D01*
X83028Y-65889D02*
X83028Y-65901D01*
X83016Y-65925D01*
X83004Y-65936D01*
X83409Y-65770D02*
X83326Y-65770D01*
X83326Y-65901D02*
X83326Y-65651D01*
X83445Y-65651D01*
X83540Y-65901D02*
X83540Y-65734D01*
X83540Y-65651D02*
X83528Y-65663D01*
X83540Y-65675D01*
X83552Y-65663D01*
X83540Y-65651D01*
X83540Y-65675D01*
X83659Y-65734D02*
X83659Y-65901D01*
X83659Y-65758D02*
X83671Y-65746D01*
X83695Y-65734D01*
X83730Y-65734D01*
X83754Y-65746D01*
X83766Y-65770D01*
X83766Y-65901D01*
X83992Y-65734D02*
X83992Y-65901D01*
X83885Y-65734D02*
X83885Y-65865D01*
X83897Y-65889D01*
X83921Y-65901D01*
X83957Y-65901D01*
X83980Y-65889D01*
X83992Y-65877D01*
X84219Y-65889D02*
X84195Y-65901D01*
X84147Y-65901D01*
X84123Y-65889D01*
X84111Y-65877D01*
X84099Y-65853D01*
X84099Y-65782D01*
X84111Y-65758D01*
X84123Y-65746D01*
X84147Y-65734D01*
X84195Y-65734D01*
X84219Y-65746D01*
X84433Y-65901D02*
X84433Y-65770D01*
X84421Y-65746D01*
X84397Y-65734D01*
X84350Y-65734D01*
X84326Y-65746D01*
X84433Y-65889D02*
X84409Y-65901D01*
X84350Y-65901D01*
X84326Y-65889D01*
X84314Y-65865D01*
X84314Y-65841D01*
X84326Y-65817D01*
X84350Y-65805D01*
X84409Y-65805D01*
X84433Y-65794D01*
X84552Y-65734D02*
X84552Y-65901D01*
X84552Y-65758D02*
X84564Y-65746D01*
X84588Y-65734D01*
X84623Y-65734D01*
X84647Y-65746D01*
X84659Y-65770D01*
X84659Y-65901D01*
X84873Y-65889D02*
X84850Y-65901D01*
X84802Y-65901D01*
X84778Y-65889D01*
X84766Y-65865D01*
X84766Y-65770D01*
X84778Y-65746D01*
X84802Y-65734D01*
X84850Y-65734D01*
X84873Y-65746D01*
X84885Y-65770D01*
X84885Y-65794D01*
X84766Y-65817D01*
X85183Y-65901D02*
X85183Y-65651D01*
X85242Y-65651D01*
X85278Y-65663D01*
X85302Y-65686D01*
X85314Y-65710D01*
X85326Y-65758D01*
X85326Y-65794D01*
X85314Y-65841D01*
X85302Y-65865D01*
X85278Y-65889D01*
X85242Y-65901D01*
X85183Y-65901D01*
X85528Y-65889D02*
X85504Y-65901D01*
X85457Y-65901D01*
X85433Y-65889D01*
X85421Y-65865D01*
X85421Y-65770D01*
X85433Y-65746D01*
X85457Y-65734D01*
X85504Y-65734D01*
X85528Y-65746D01*
X85540Y-65770D01*
X85540Y-65794D01*
X85421Y-65817D01*
X85635Y-65889D02*
X85659Y-65901D01*
X85707Y-65901D01*
X85730Y-65889D01*
X85742Y-65865D01*
X85742Y-65853D01*
X85730Y-65829D01*
X85707Y-65817D01*
X85671Y-65817D01*
X85647Y-65805D01*
X85635Y-65782D01*
X85635Y-65770D01*
X85647Y-65746D01*
X85671Y-65734D01*
X85707Y-65734D01*
X85730Y-65746D01*
X85850Y-65901D02*
X85850Y-65734D01*
X85850Y-65651D02*
X85838Y-65663D01*
X85850Y-65675D01*
X85861Y-65663D01*
X85850Y-65651D01*
X85850Y-65675D01*
X86076Y-65734D02*
X86076Y-65936D01*
X86064Y-65960D01*
X86052Y-65972D01*
X86028Y-65984D01*
X85992Y-65984D01*
X85969Y-65972D01*
X86076Y-65889D02*
X86052Y-65901D01*
X86004Y-65901D01*
X85980Y-65889D01*
X85969Y-65877D01*
X85957Y-65853D01*
X85957Y-65782D01*
X85969Y-65758D01*
X85980Y-65746D01*
X86004Y-65734D01*
X86052Y-65734D01*
X86076Y-65746D01*
X86195Y-65734D02*
X86195Y-65901D01*
X86195Y-65758D02*
X86207Y-65746D01*
X86230Y-65734D01*
X86266Y-65734D01*
X86290Y-65746D01*
X86302Y-65770D01*
X86302Y-65901D01*
X86730Y-65901D02*
X86611Y-65901D01*
X86611Y-65651D01*
X86933Y-65901D02*
X86814Y-65901D01*
X86814Y-65651D01*
X87159Y-65877D02*
X87147Y-65889D01*
X87111Y-65901D01*
X87088Y-65901D01*
X87052Y-65889D01*
X87028Y-65865D01*
X87016Y-65841D01*
X87004Y-65794D01*
X87004Y-65758D01*
X87016Y-65710D01*
X87028Y-65686D01*
X87052Y-65663D01*
X87088Y-65651D01*
X87111Y-65651D01*
X87147Y-65663D01*
X87159Y-65675D01*
G54D14*
X80852Y-64702D02*
X80686Y-64464D01*
X80567Y-64702D02*
X80567Y-64202D01*
X80757Y-64202D01*
X80805Y-64226D01*
X80829Y-64250D01*
X80852Y-64297D01*
X80852Y-64369D01*
X80829Y-64416D01*
X80805Y-64440D01*
X80757Y-64464D01*
X80567Y-64464D01*
X81043Y-64559D02*
X81281Y-64559D01*
X80995Y-64702D02*
X81162Y-64202D01*
X81329Y-64702D01*
X81495Y-64702D02*
X81495Y-64202D01*
X81662Y-64559D01*
X81829Y-64202D01*
X81829Y-64702D01*
X82067Y-64702D02*
X82067Y-64202D01*
X82257Y-64202D01*
X82305Y-64226D01*
X82329Y-64250D01*
X82352Y-64297D01*
X82352Y-64369D01*
X82329Y-64416D01*
X82305Y-64440D01*
X82257Y-64464D01*
X82067Y-64464D01*
X82543Y-64678D02*
X82614Y-64702D01*
X82733Y-64702D01*
X82781Y-64678D01*
X82805Y-64654D01*
X82829Y-64607D01*
X82829Y-64559D01*
X82805Y-64511D01*
X82781Y-64488D01*
X82733Y-64464D01*
X82638Y-64440D01*
X82590Y-64416D01*
X82567Y-64392D01*
X82543Y-64345D01*
X82543Y-64297D01*
X82567Y-64250D01*
X82590Y-64226D01*
X82638Y-64202D01*
X82757Y-64202D01*
X82829Y-64226D01*
X83376Y-64202D02*
X83495Y-64702D01*
X83590Y-64345D01*
X83686Y-64702D01*
X83805Y-64202D01*
X83995Y-64702D02*
X83995Y-64369D01*
X83995Y-64202D02*
X83971Y-64226D01*
X83995Y-64250D01*
X84019Y-64226D01*
X83995Y-64202D01*
X83995Y-64250D01*
X84400Y-64440D02*
X84233Y-64440D01*
X84233Y-64702D02*
X84233Y-64202D01*
X84471Y-64202D01*
X84662Y-64702D02*
X84662Y-64369D01*
X84662Y-64202D02*
X84638Y-64226D01*
X84662Y-64250D01*
X84686Y-64226D01*
X84662Y-64202D01*
X84662Y-64250D01*
X85257Y-64559D02*
X85495Y-64559D01*
X85210Y-64702D02*
X85376Y-64202D01*
X85543Y-64702D01*
X85924Y-64702D02*
X85924Y-64202D01*
X85924Y-64678D02*
X85876Y-64702D01*
X85781Y-64702D01*
X85733Y-64678D01*
X85710Y-64654D01*
X85686Y-64607D01*
X85686Y-64464D01*
X85710Y-64416D01*
X85733Y-64392D01*
X85781Y-64369D01*
X85876Y-64369D01*
X85924Y-64392D01*
X86376Y-64702D02*
X86376Y-64440D01*
X86352Y-64392D01*
X86305Y-64369D01*
X86210Y-64369D01*
X86162Y-64392D01*
X86376Y-64678D02*
X86329Y-64702D01*
X86210Y-64702D01*
X86162Y-64678D01*
X86138Y-64630D01*
X86138Y-64583D01*
X86162Y-64535D01*
X86210Y-64511D01*
X86329Y-64511D01*
X86376Y-64488D01*
X86614Y-64369D02*
X86614Y-64869D01*
X86614Y-64392D02*
X86662Y-64369D01*
X86757Y-64369D01*
X86805Y-64392D01*
X86829Y-64416D01*
X86852Y-64464D01*
X86852Y-64607D01*
X86829Y-64654D01*
X86805Y-64678D01*
X86757Y-64702D01*
X86662Y-64702D01*
X86614Y-64678D01*
X86995Y-64369D02*
X87186Y-64369D01*
X87067Y-64202D02*
X87067Y-64630D01*
X87090Y-64678D01*
X87138Y-64702D01*
X87186Y-64702D01*
X87543Y-64678D02*
X87495Y-64702D01*
X87400Y-64702D01*
X87352Y-64678D01*
X87329Y-64630D01*
X87329Y-64440D01*
X87352Y-64392D01*
X87400Y-64369D01*
X87495Y-64369D01*
X87543Y-64392D01*
X87567Y-64440D01*
X87567Y-64488D01*
X87329Y-64535D01*
X87781Y-64702D02*
X87781Y-64369D01*
X87781Y-64464D02*
X87805Y-64416D01*
X87829Y-64392D01*
X87876Y-64369D01*
X87924Y-64369D01*
G54D12*
X83478Y-52898D02*
X83878Y-52898D01*
X83878Y-53050D01*
X83859Y-53088D01*
X83840Y-53107D01*
X83801Y-53126D01*
X83744Y-53126D01*
X83706Y-53107D01*
X83687Y-53088D01*
X83668Y-53050D01*
X83668Y-52898D01*
X83478Y-53298D02*
X83744Y-53298D01*
X83668Y-53298D02*
X83706Y-53317D01*
X83725Y-53336D01*
X83744Y-53374D01*
X83744Y-53412D01*
X83478Y-53602D02*
X83497Y-53564D01*
X83516Y-53545D01*
X83554Y-53526D01*
X83668Y-53526D01*
X83706Y-53545D01*
X83725Y-53564D01*
X83744Y-53602D01*
X83744Y-53660D01*
X83725Y-53698D01*
X83706Y-53717D01*
X83668Y-53736D01*
X83554Y-53736D01*
X83516Y-53717D01*
X83497Y-53698D01*
X83478Y-53660D01*
X83478Y-53602D01*
X83744Y-54079D02*
X83420Y-54079D01*
X83382Y-54060D01*
X83363Y-54040D01*
X83344Y-54002D01*
X83344Y-53945D01*
X83363Y-53907D01*
X83497Y-54079D02*
X83478Y-54040D01*
X83478Y-53964D01*
X83497Y-53926D01*
X83516Y-53907D01*
X83554Y-53888D01*
X83668Y-53888D01*
X83706Y-53907D01*
X83725Y-53926D01*
X83744Y-53964D01*
X83744Y-54040D01*
X83725Y-54079D01*
X83478Y-54269D02*
X83744Y-54269D01*
X83668Y-54269D02*
X83706Y-54288D01*
X83725Y-54307D01*
X83744Y-54345D01*
X83744Y-54383D01*
X83478Y-54688D02*
X83687Y-54688D01*
X83725Y-54669D01*
X83744Y-54631D01*
X83744Y-54555D01*
X83725Y-54517D01*
X83497Y-54688D02*
X83478Y-54650D01*
X83478Y-54555D01*
X83497Y-54517D01*
X83535Y-54498D01*
X83573Y-54498D01*
X83611Y-54517D01*
X83630Y-54555D01*
X83630Y-54650D01*
X83649Y-54688D01*
X83478Y-54879D02*
X83744Y-54879D01*
X83706Y-54879D02*
X83725Y-54898D01*
X83744Y-54936D01*
X83744Y-54993D01*
X83725Y-55031D01*
X83687Y-55050D01*
X83478Y-55050D01*
X83687Y-55050D02*
X83725Y-55069D01*
X83744Y-55107D01*
X83744Y-55164D01*
X83725Y-55202D01*
X83687Y-55221D01*
X83478Y-55221D01*
X80978Y-55248D02*
X81378Y-55248D01*
X81378Y-55343D01*
X81359Y-55400D01*
X81320Y-55439D01*
X81282Y-55458D01*
X81206Y-55477D01*
X81149Y-55477D01*
X81073Y-55458D01*
X81035Y-55439D01*
X80997Y-55400D01*
X80978Y-55343D01*
X80978Y-55248D01*
X80997Y-55800D02*
X80978Y-55762D01*
X80978Y-55686D01*
X80997Y-55648D01*
X81035Y-55629D01*
X81187Y-55629D01*
X81225Y-55648D01*
X81244Y-55686D01*
X81244Y-55762D01*
X81225Y-55800D01*
X81187Y-55820D01*
X81149Y-55820D01*
X81111Y-55629D01*
X81244Y-55934D02*
X81244Y-56086D01*
X80978Y-55991D02*
X81320Y-55991D01*
X81359Y-56010D01*
X81378Y-56048D01*
X81378Y-56086D01*
X80978Y-56391D02*
X81187Y-56391D01*
X81225Y-56372D01*
X81244Y-56334D01*
X81244Y-56258D01*
X81225Y-56220D01*
X80997Y-56391D02*
X80978Y-56353D01*
X80978Y-56258D01*
X80997Y-56220D01*
X81035Y-56200D01*
X81073Y-56200D01*
X81111Y-56220D01*
X81130Y-56258D01*
X81130Y-56353D01*
X81149Y-56391D01*
X81244Y-56753D02*
X80978Y-56753D01*
X81244Y-56581D02*
X81035Y-56581D01*
X80997Y-56600D01*
X80978Y-56639D01*
X80978Y-56696D01*
X80997Y-56734D01*
X81016Y-56753D01*
X80978Y-57000D02*
X80997Y-56962D01*
X81035Y-56943D01*
X81378Y-56943D01*
X81244Y-57096D02*
X81244Y-57248D01*
X81378Y-57153D02*
X81035Y-57153D01*
X80997Y-57172D01*
X80978Y-57210D01*
X80978Y-57248D01*
X81978Y-55474D02*
X82168Y-55341D01*
X81978Y-55246D02*
X82378Y-55246D01*
X82378Y-55398D01*
X82359Y-55436D01*
X82340Y-55455D01*
X82301Y-55474D01*
X82244Y-55474D01*
X82206Y-55455D01*
X82187Y-55436D01*
X82168Y-55398D01*
X82168Y-55246D01*
X81997Y-55798D02*
X81978Y-55760D01*
X81978Y-55684D01*
X81997Y-55646D01*
X82035Y-55627D01*
X82187Y-55627D01*
X82225Y-55646D01*
X82244Y-55684D01*
X82244Y-55760D01*
X82225Y-55798D01*
X82187Y-55817D01*
X82149Y-55817D01*
X82111Y-55627D01*
X81997Y-55970D02*
X81978Y-56008D01*
X81978Y-56084D01*
X81997Y-56122D01*
X82035Y-56141D01*
X82054Y-56141D01*
X82092Y-56122D01*
X82111Y-56084D01*
X82111Y-56027D01*
X82130Y-55989D01*
X82168Y-55970D01*
X82187Y-55970D01*
X82225Y-55989D01*
X82244Y-56027D01*
X82244Y-56084D01*
X82225Y-56122D01*
X81997Y-56465D02*
X81978Y-56427D01*
X81978Y-56350D01*
X81997Y-56312D01*
X82035Y-56293D01*
X82187Y-56293D01*
X82225Y-56312D01*
X82244Y-56350D01*
X82244Y-56427D01*
X82225Y-56465D01*
X82187Y-56484D01*
X82149Y-56484D01*
X82111Y-56293D01*
X82244Y-56598D02*
X82244Y-56750D01*
X82378Y-56655D02*
X82035Y-56655D01*
X81997Y-56674D01*
X81978Y-56712D01*
X81978Y-56750D01*
G54D15*
X95850Y-48350D02*
X95850Y-66950D01*
X74850Y-48350D02*
X74850Y-53650D01*
X95850Y-48350D02*
X74850Y-48350D01*
X78500Y-66950D02*
X95850Y-66950D01*
X78500Y-53650D02*
X78500Y-66950D01*
X74850Y-53650D02*
X78500Y-53650D01*
G54D14*
X80900Y-51050D02*
X80900Y-48950D01*
X80900Y-48950D02*
X82350Y-48950D01*
X82350Y-48950D02*
X82350Y-51050D01*
X82350Y-51050D02*
X80900Y-51050D01*
X82234Y-50817D02*
G75*
G03X82234Y-50817I-128J0D01*
G74*
G01*
G54D12*
X92400Y-51900D02*
X92400Y-53100D01*
X92400Y-53100D02*
X95200Y-53100D01*
X95200Y-53100D02*
X95200Y-51900D01*
X92400Y-50700D02*
X92400Y-50400D01*
X92400Y-50400D02*
X93000Y-49500D01*
X93000Y-49500D02*
X94600Y-49500D01*
X94600Y-49500D02*
X95200Y-50400D01*
X95200Y-50400D02*
X95200Y-50700D01*
G54D13*
X94650Y-54670D02*
X94750Y-54670D01*
X94750Y-54670D02*
X94750Y-53770D01*
X94750Y-53770D02*
X94650Y-53770D01*
X94650Y-54670D02*
X94650Y-53770D01*
X94650Y-53770D02*
X94000Y-53770D01*
X93300Y-54670D02*
X92650Y-54670D01*
X92650Y-54670D02*
X92650Y-53770D01*
X92650Y-53770D02*
X93300Y-53770D01*
X94000Y-54670D02*
X94650Y-54670D01*
G54D16*
X87310Y-54150D02*
G75*
G03X87310Y-54150I-50J0D01*
G74*
G01*
X86810Y-54150D02*
X87210Y-54150D01*
X87210Y-54150D02*
X87210Y-54750D01*
X87210Y-54750D02*
X86810Y-54750D01*
X86410Y-54750D02*
X86010Y-54750D01*
X86010Y-54750D02*
X86010Y-54150D01*
X86010Y-54150D02*
X86410Y-54150D01*
X87310Y-53050D02*
G75*
G03X87310Y-53050I-50J0D01*
G74*
G01*
X86810Y-53050D02*
X87210Y-53050D01*
X87210Y-53050D02*
X87210Y-53650D01*
X87210Y-53650D02*
X86810Y-53650D01*
X86410Y-53650D02*
X86010Y-53650D01*
X86010Y-53650D02*
X86010Y-53050D01*
X86010Y-53050D02*
X86410Y-53050D01*
X87310Y-51950D02*
G75*
G03X87310Y-51950I-50J0D01*
G74*
G01*
X86810Y-51950D02*
X87210Y-51950D01*
X87210Y-51950D02*
X87210Y-52550D01*
X87210Y-52550D02*
X86810Y-52550D01*
X86410Y-52550D02*
X86010Y-52550D01*
X86010Y-52550D02*
X86010Y-51950D01*
X86010Y-51950D02*
X86410Y-51950D01*
X89560Y-54150D02*
G75*
G03X89560Y-54150I-50J0D01*
G74*
G01*
X89060Y-54150D02*
X89460Y-54150D01*
X89460Y-54150D02*
X89460Y-54750D01*
X89460Y-54750D02*
X89060Y-54750D01*
X88660Y-54750D02*
X88260Y-54750D01*
X88260Y-54750D02*
X88260Y-54150D01*
X88260Y-54150D02*
X88660Y-54150D01*
X89560Y-53050D02*
G75*
G03X89560Y-53050I-50J0D01*
G74*
G01*
X89060Y-53050D02*
X89460Y-53050D01*
X89460Y-53050D02*
X89460Y-53650D01*
X89460Y-53650D02*
X89060Y-53650D01*
X88660Y-53650D02*
X88260Y-53650D01*
X88260Y-53650D02*
X88260Y-53050D01*
X88260Y-53050D02*
X88660Y-53050D01*
X89560Y-51950D02*
G75*
G03X89560Y-51950I-50J0D01*
G74*
G01*
X89060Y-51950D02*
X89460Y-51950D01*
X89460Y-51950D02*
X89460Y-52550D01*
X89460Y-52550D02*
X89060Y-52550D01*
X88660Y-52550D02*
X88260Y-52550D01*
X88260Y-52550D02*
X88260Y-51950D01*
X88260Y-51950D02*
X88660Y-51950D01*
G54D17*
X74850Y-53650D02*
X74850Y-53650D01*
X75850Y-53650D02*
X74850Y-53650D01*
X74850Y-53650D02*
X74850Y-53650D01*
X74850Y-53650D02*
X74850Y-49650D01*
X74850Y-49650D02*
X75850Y-49650D01*
X75850Y-49650D02*
X75850Y-53650D01*
X75850Y-52650D02*
X74850Y-52650D01*
X78600Y-66850D02*
X78600Y-48850D01*
X78600Y-48850D02*
X79600Y-48850D01*
X79600Y-48850D02*
X79600Y-66850D01*
X79600Y-66850D02*
X78600Y-66850D01*
X78600Y-65850D02*
X79600Y-65850D01*
X82640Y-55070D02*
X80640Y-55070D01*
X80640Y-55070D02*
X80640Y-53070D01*
X80640Y-53070D02*
X82640Y-53070D01*
X82640Y-53070D02*
X82640Y-55070D01*
G54D18*
X88450Y-61050D02*
G75*
G03X88450Y-61050I-700J0D01*
G74*
G01*
G54D16*
X76750Y-50850D02*
G75*
G03X76750Y-50850I-50J0D01*
G74*
G01*
X77150Y-50850D02*
X76750Y-50850D01*
X76750Y-50850D02*
X76750Y-50250D01*
X76750Y-50250D02*
X77150Y-50250D01*
X77550Y-50250D02*
X77950Y-50250D01*
X77950Y-50250D02*
X77950Y-50850D01*
X77950Y-50850D02*
X77550Y-50850D01*
X76750Y-49750D02*
G75*
G03X76750Y-49750I-50J0D01*
G74*
G01*
X77150Y-49750D02*
X76750Y-49750D01*
X76750Y-49750D02*
X76750Y-49150D01*
X76750Y-49150D02*
X77150Y-49150D01*
X77550Y-49150D02*
X77950Y-49150D01*
X77950Y-49150D02*
X77950Y-49750D01*
X77950Y-49750D02*
X77550Y-49750D01*
X78050Y-51350D02*
G75*
G03X78050Y-51350I-50J0D01*
G74*
G01*
X77550Y-51350D02*
X77950Y-51350D01*
X77950Y-51350D02*
X77950Y-51950D01*
X77950Y-51950D02*
X77550Y-51950D01*
X77150Y-51950D02*
X76750Y-51950D01*
X76750Y-51950D02*
X76750Y-51350D01*
X76750Y-51350D02*
X77150Y-51350D01*
X78050Y-52450D02*
G75*
G03X78050Y-52450I-50J0D01*
G74*
G01*
X77550Y-52450D02*
X77950Y-52450D01*
X77950Y-52450D02*
X77950Y-53050D01*
X77950Y-53050D02*
X77550Y-53050D01*
X77150Y-53050D02*
X76750Y-53050D01*
X76750Y-53050D02*
X76750Y-52450D01*
X76750Y-52450D02*
X77150Y-52450D01*
X87310Y-50850D02*
G75*
G03X87310Y-50850I-50J0D01*
G74*
G01*
X86810Y-50850D02*
X87210Y-50850D01*
X87210Y-50850D02*
X87210Y-51450D01*
X87210Y-51450D02*
X86810Y-51450D01*
X86410Y-51450D02*
X86010Y-51450D01*
X86010Y-51450D02*
X86010Y-50850D01*
X86010Y-50850D02*
X86410Y-50850D01*
X89560Y-50850D02*
G75*
G03X89560Y-50850I-50J0D01*
G74*
G01*
X89060Y-50850D02*
X89460Y-50850D01*
X89460Y-50850D02*
X89460Y-51450D01*
X89460Y-51450D02*
X89060Y-51450D01*
X88660Y-51450D02*
X88260Y-51450D01*
X88260Y-51450D02*
X88260Y-50850D01*
X88260Y-50850D02*
X88660Y-50850D01*
G54D19*
X81116Y-50178D02*
X81440Y-50178D01*
X81478Y-50164D01*
X81497Y-50150D01*
X81516Y-50121D01*
X81516Y-50064D01*
X81497Y-50035D01*
X81478Y-50021D01*
X81440Y-50007D01*
X81116Y-50007D01*
X81155Y-49878D02*
X81135Y-49864D01*
X81116Y-49835D01*
X81116Y-49764D01*
X81135Y-49735D01*
X81155Y-49721D01*
X81193Y-49707D01*
X81231Y-49707D01*
X81288Y-49721D01*
X81516Y-49892D01*
X81516Y-49707D01*
G54D12*
X93495Y-50761D02*
X93495Y-51085D01*
X93514Y-51123D01*
X93533Y-51142D01*
X93571Y-51161D01*
X93647Y-51161D01*
X93685Y-51142D01*
X93704Y-51123D01*
X93723Y-51085D01*
X93723Y-50761D01*
X94085Y-50895D02*
X94085Y-51161D01*
X93990Y-50742D02*
X93895Y-51028D01*
X94142Y-51028D01*
G54D13*
X93600Y-54312D02*
X93585Y-54327D01*
X93542Y-54341D01*
X93514Y-54341D01*
X93471Y-54327D01*
X93442Y-54298D01*
X93428Y-54270D01*
X93414Y-54212D01*
X93414Y-54170D01*
X93428Y-54112D01*
X93442Y-54084D01*
X93471Y-54055D01*
X93514Y-54041D01*
X93542Y-54041D01*
X93585Y-54055D01*
X93600Y-54070D01*
X93885Y-54341D02*
X93714Y-54341D01*
X93800Y-54341D02*
X93800Y-54041D01*
X93771Y-54084D01*
X93742Y-54112D01*
X93714Y-54127D01*
G54D20*
X86577Y-54654D02*
X86511Y-54560D01*
X86464Y-54654D02*
X86464Y-54457D01*
X86539Y-54457D01*
X86558Y-54467D01*
X86567Y-54476D01*
X86577Y-54495D01*
X86577Y-54523D01*
X86567Y-54542D01*
X86558Y-54551D01*
X86539Y-54560D01*
X86464Y-54560D01*
X86764Y-54654D02*
X86652Y-54654D01*
X86708Y-54654D02*
X86708Y-54457D01*
X86689Y-54485D01*
X86670Y-54504D01*
X86652Y-54514D01*
X86577Y-53554D02*
X86511Y-53460D01*
X86464Y-53554D02*
X86464Y-53357D01*
X86539Y-53357D01*
X86558Y-53367D01*
X86567Y-53376D01*
X86577Y-53395D01*
X86577Y-53423D01*
X86567Y-53442D01*
X86558Y-53451D01*
X86539Y-53460D01*
X86464Y-53460D01*
X86652Y-53376D02*
X86661Y-53367D01*
X86680Y-53357D01*
X86727Y-53357D01*
X86746Y-53367D01*
X86755Y-53376D01*
X86764Y-53395D01*
X86764Y-53414D01*
X86755Y-53442D01*
X86642Y-53554D01*
X86764Y-53554D01*
X86577Y-52454D02*
X86511Y-52360D01*
X86464Y-52454D02*
X86464Y-52257D01*
X86539Y-52257D01*
X86558Y-52267D01*
X86567Y-52276D01*
X86577Y-52295D01*
X86577Y-52323D01*
X86567Y-52342D01*
X86558Y-52351D01*
X86539Y-52360D01*
X86464Y-52360D01*
X86642Y-52257D02*
X86764Y-52257D01*
X86699Y-52332D01*
X86727Y-52332D01*
X86746Y-52342D01*
X86755Y-52351D01*
X86764Y-52370D01*
X86764Y-52417D01*
X86755Y-52435D01*
X86746Y-52445D01*
X86727Y-52454D01*
X86670Y-52454D01*
X86652Y-52445D01*
X86642Y-52435D01*
X88714Y-54654D02*
X88714Y-54457D01*
X88761Y-54457D01*
X88789Y-54467D01*
X88808Y-54485D01*
X88817Y-54504D01*
X88827Y-54542D01*
X88827Y-54570D01*
X88817Y-54607D01*
X88808Y-54626D01*
X88789Y-54645D01*
X88761Y-54654D01*
X88714Y-54654D01*
X89014Y-54654D02*
X88902Y-54654D01*
X88958Y-54654D02*
X88958Y-54457D01*
X88939Y-54485D01*
X88920Y-54504D01*
X88902Y-54514D01*
X88714Y-53554D02*
X88714Y-53357D01*
X88761Y-53357D01*
X88789Y-53367D01*
X88808Y-53385D01*
X88817Y-53404D01*
X88827Y-53442D01*
X88827Y-53470D01*
X88817Y-53507D01*
X88808Y-53526D01*
X88789Y-53545D01*
X88761Y-53554D01*
X88714Y-53554D01*
X88902Y-53376D02*
X88911Y-53367D01*
X88930Y-53357D01*
X88977Y-53357D01*
X88996Y-53367D01*
X89005Y-53376D01*
X89014Y-53395D01*
X89014Y-53414D01*
X89005Y-53442D01*
X88892Y-53554D01*
X89014Y-53554D01*
X88714Y-52454D02*
X88714Y-52257D01*
X88761Y-52257D01*
X88789Y-52267D01*
X88808Y-52285D01*
X88817Y-52304D01*
X88827Y-52342D01*
X88827Y-52370D01*
X88817Y-52407D01*
X88808Y-52426D01*
X88789Y-52445D01*
X88761Y-52454D01*
X88714Y-52454D01*
X88892Y-52257D02*
X89014Y-52257D01*
X88949Y-52332D01*
X88977Y-52332D01*
X88996Y-52342D01*
X89005Y-52351D01*
X89014Y-52370D01*
X89014Y-52417D01*
X89005Y-52435D01*
X88996Y-52445D01*
X88977Y-52454D01*
X88920Y-52454D01*
X88902Y-52445D01*
X88892Y-52435D01*
G54D14*
X87166Y-62409D02*
X87404Y-62409D01*
X87119Y-62552D02*
X87285Y-62052D01*
X87452Y-62552D01*
X87619Y-62290D02*
X87785Y-62290D01*
X87857Y-62552D02*
X87619Y-62552D01*
X87619Y-62052D01*
X87857Y-62052D01*
X88333Y-62552D02*
X88047Y-62552D01*
X88190Y-62552D02*
X88190Y-62052D01*
X88142Y-62123D01*
X88095Y-62171D01*
X88047Y-62195D01*
G54D20*
X77317Y-50504D02*
X77251Y-50410D01*
X77204Y-50504D02*
X77204Y-50307D01*
X77279Y-50307D01*
X77298Y-50317D01*
X77307Y-50326D01*
X77317Y-50345D01*
X77317Y-50373D01*
X77307Y-50392D01*
X77298Y-50401D01*
X77279Y-50410D01*
X77204Y-50410D01*
X77486Y-50307D02*
X77448Y-50307D01*
X77429Y-50317D01*
X77420Y-50326D01*
X77401Y-50354D01*
X77392Y-50392D01*
X77392Y-50467D01*
X77401Y-50485D01*
X77410Y-50495D01*
X77429Y-50504D01*
X77467Y-50504D01*
X77486Y-50495D01*
X77495Y-50485D01*
X77504Y-50467D01*
X77504Y-50420D01*
X77495Y-50401D01*
X77486Y-50392D01*
X77467Y-50382D01*
X77429Y-50382D01*
X77410Y-50392D01*
X77401Y-50401D01*
X77392Y-50420D01*
X77317Y-49404D02*
X77251Y-49310D01*
X77204Y-49404D02*
X77204Y-49207D01*
X77279Y-49207D01*
X77298Y-49217D01*
X77307Y-49226D01*
X77317Y-49245D01*
X77317Y-49273D01*
X77307Y-49292D01*
X77298Y-49301D01*
X77279Y-49310D01*
X77204Y-49310D01*
X77382Y-49207D02*
X77514Y-49207D01*
X77429Y-49404D01*
X77317Y-51854D02*
X77251Y-51760D01*
X77204Y-51854D02*
X77204Y-51657D01*
X77279Y-51657D01*
X77298Y-51667D01*
X77307Y-51676D01*
X77317Y-51695D01*
X77317Y-51723D01*
X77307Y-51742D01*
X77298Y-51751D01*
X77279Y-51760D01*
X77204Y-51760D01*
X77429Y-51742D02*
X77410Y-51732D01*
X77401Y-51723D01*
X77392Y-51704D01*
X77392Y-51695D01*
X77401Y-51676D01*
X77410Y-51667D01*
X77429Y-51657D01*
X77467Y-51657D01*
X77486Y-51667D01*
X77495Y-51676D01*
X77504Y-51695D01*
X77504Y-51704D01*
X77495Y-51723D01*
X77486Y-51732D01*
X77467Y-51742D01*
X77429Y-51742D01*
X77410Y-51751D01*
X77401Y-51760D01*
X77392Y-51779D01*
X77392Y-51817D01*
X77401Y-51835D01*
X77410Y-51845D01*
X77429Y-51854D01*
X77467Y-51854D01*
X77486Y-51845D01*
X77495Y-51835D01*
X77504Y-51817D01*
X77504Y-51779D01*
X77495Y-51760D01*
X77486Y-51751D01*
X77467Y-51742D01*
X77317Y-52954D02*
X77251Y-52860D01*
X77204Y-52954D02*
X77204Y-52757D01*
X77279Y-52757D01*
X77298Y-52767D01*
X77307Y-52776D01*
X77317Y-52795D01*
X77317Y-52823D01*
X77307Y-52842D01*
X77298Y-52851D01*
X77279Y-52860D01*
X77204Y-52860D01*
X77410Y-52954D02*
X77448Y-52954D01*
X77467Y-52945D01*
X77476Y-52935D01*
X77495Y-52907D01*
X77504Y-52870D01*
X77504Y-52795D01*
X77495Y-52776D01*
X77486Y-52767D01*
X77467Y-52757D01*
X77429Y-52757D01*
X77410Y-52767D01*
X77401Y-52776D01*
X77392Y-52795D01*
X77392Y-52842D01*
X77401Y-52860D01*
X77410Y-52870D01*
X77429Y-52879D01*
X77467Y-52879D01*
X77486Y-52870D01*
X77495Y-52860D01*
X77504Y-52842D01*
X86577Y-51354D02*
X86511Y-51260D01*
X86464Y-51354D02*
X86464Y-51157D01*
X86539Y-51157D01*
X86558Y-51167D01*
X86567Y-51176D01*
X86577Y-51195D01*
X86577Y-51223D01*
X86567Y-51242D01*
X86558Y-51251D01*
X86539Y-51260D01*
X86464Y-51260D01*
X86746Y-51223D02*
X86746Y-51354D01*
X86699Y-51148D02*
X86652Y-51289D01*
X86774Y-51289D01*
X88827Y-51354D02*
X88761Y-51260D01*
X88714Y-51354D02*
X88714Y-51157D01*
X88789Y-51157D01*
X88808Y-51167D01*
X88817Y-51176D01*
X88827Y-51195D01*
X88827Y-51223D01*
X88817Y-51242D01*
X88808Y-51251D01*
X88789Y-51260D01*
X88714Y-51260D01*
X89005Y-51157D02*
X88911Y-51157D01*
X88902Y-51251D01*
X88911Y-51242D01*
X88930Y-51232D01*
X88977Y-51232D01*
X88996Y-51242D01*
X89005Y-51251D01*
X89014Y-51270D01*
X89014Y-51317D01*
X89005Y-51335D01*
X88996Y-51345D01*
X88977Y-51354D01*
X88930Y-51354D01*
X88911Y-51345D01*
X88902Y-51335D01*
M02*
